ISO-10303-21;
HEADER;
/* Generated by software containing ST-Developer
 * from STEP Tools, Inc. (www.steptools.com) 
 */
/* OPTION: using custom renumber hook */

FILE_DESCRIPTION(
/* description */ ('STEP AP242 Edition 2',
'CAx-IF Rec.Pracs.---Representation and Presentation of Product Manufa
cturing Information (PMI)---4.0---2014-10-13',
'CAx-IF Rec.Pracs.---3D Tessellated Geometry---0.4---2014-09-14','2;1',
'CAx-IF Rec.Pracs.---User Defined Attributes---1.5---2016-08-15'),
/* implementation_level */ '2;1');

FILE_NAME(
/* name */ 'robot - Right foot cover',
/* time_stamp */ '2026-08-16T03:04:30Z',
/* author */ (''),
/* organization */ (''),
/* preprocessor_version */ 'ST-DEVELOPER v20',
/* originating_system */ 'ONSHAPE BY PTC INC, 1.219',
/* authorisation */ '  ');

FILE_SCHEMA (('AP242_MANAGED_MODEL_BASED_3D_ENGINEERING_MIM_LF { 1 0 10303 442 3 1 4 }'));
ENDSEC;

DATA;
#10=SHAPE_REPRESENTATION_RELATIONSHIP('','',#249,#11);
#11=ADVANCED_BREP_SHAPE_REPRESENTATION('',(#247),#405);
#12=LINE('',#354,#37);
#13=LINE('',#356,#38);
#14=LINE('',#358,#39);
#15=LINE('',#360,#40);
#16=LINE('',#362,#41);
#17=LINE('',#364,#42);
#18=LINE('',#367,#43);
#19=LINE('',#369,#44);
#20=LINE('',#371,#45);
#21=LINE('',#373,#46);
#22=LINE('',#375,#47);
#23=LINE('',#377,#48);
#24=LINE('',#379,#49);
#25=LINE('',#381,#50);
#26=LINE('',#383,#51);
#27=LINE('',#385,#52);
#28=LINE('',#386,#53);
#29=LINE('',#388,#54);
#30=LINE('',#391,#55);
#31=LINE('',#392,#56);
#32=LINE('',#394,#57);
#33=LINE('',#396,#58);
#34=LINE('',#398,#59);
#35=LINE('',#400,#60);
#36=LINE('',#402,#61);
#37=VECTOR('',#286,1.);
#38=VECTOR('',#287,1.);
#39=VECTOR('',#288,1.);
#40=VECTOR('',#289,1.);
#41=VECTOR('',#290,1.);
#42=VECTOR('',#293,1.);
#43=VECTOR('',#294,1.);
#44=VECTOR('',#295,1.);
#45=VECTOR('',#296,1.);
#46=VECTOR('',#299,1.);
#47=VECTOR('',#300,1.);
#48=VECTOR('',#301,1.);
#49=VECTOR('',#304,1.);
#50=VECTOR('',#305,1.);
#51=VECTOR('',#306,1.);
#52=VECTOR('',#309,1.);
#53=VECTOR('',#310,1.);
#54=VECTOR('',#313,1.);
#55=VECTOR('',#314,1.);
#56=VECTOR('',#315,1.);
#57=VECTOR('',#318,1.);
#58=VECTOR('',#319,1.);
#59=VECTOR('',#322,1.);
#60=VECTOR('',#323,1.);
#61=VECTOR('',#326,1.);
#62=ELLIPSE('',#256,0.00126450000026871,0.0012645);
#63=PLANE('',#254);
#64=PLANE('',#258);
#65=PLANE('',#259);
#66=PLANE('',#260);
#67=PLANE('',#261);
#68=PLANE('',#262);
#69=PLANE('',#263);
#70=PLANE('',#264);
#71=PLANE('',#265);
#72=PLANE('',#266);
#73=PLANE('',#267);
#74=B_SPLINE_CURVE_WITH_KNOTS('',3,(#335,#336,#337,#338,#339,#340,#341,
#342,#343,#344,#345),.UNSPECIFIED.,.T.,.F.,(1,1,1,1,1,1,1,1,1,1,1,1,1,1,
1),(-0.00297138464676627,-0.00198092309784418,-0.000990461548922091,0.,
0.00099046154892209,0.00198092309784418,0.00297138464676627,0.00396184619568836,
0.00495230774461045,0.00594276929353254,0.00693323084245463,0.00792369239137672,
0.00891415394029881,0.00990461548922091,0.010895077038143),
 .UNSPECIFIED.);
#75=ORIENTED_EDGE('',*,*,#135,.F.);
#76=ORIENTED_EDGE('',*,*,#136,.T.);
#77=ORIENTED_EDGE('',*,*,#137,.F.);
#78=ORIENTED_EDGE('',*,*,#135,.T.);
#79=ORIENTED_EDGE('',*,*,#137,.T.);
#80=ORIENTED_EDGE('',*,*,#138,.T.);
#81=ORIENTED_EDGE('',*,*,#139,.T.);
#82=ORIENTED_EDGE('',*,*,#139,.F.);
#83=ORIENTED_EDGE('',*,*,#140,.T.);
#84=ORIENTED_EDGE('',*,*,#141,.T.);
#85=ORIENTED_EDGE('',*,*,#142,.F.);
#86=ORIENTED_EDGE('',*,*,#143,.T.);
#87=ORIENTED_EDGE('',*,*,#144,.T.);
#88=ORIENTED_EDGE('',*,*,#145,.T.);
#89=ORIENTED_EDGE('',*,*,#146,.T.);
#90=ORIENTED_EDGE('',*,*,#147,.T.);
#91=ORIENTED_EDGE('',*,*,#148,.F.);
#92=ORIENTED_EDGE('',*,*,#149,.T.);
#93=ORIENTED_EDGE('',*,*,#148,.T.);
#94=ORIENTED_EDGE('',*,*,#150,.T.);
#95=ORIENTED_EDGE('',*,*,#151,.F.);
#96=ORIENTED_EDGE('',*,*,#152,.T.);
#97=ORIENTED_EDGE('',*,*,#151,.T.);
#98=ORIENTED_EDGE('',*,*,#153,.T.);
#99=ORIENTED_EDGE('',*,*,#154,.F.);
#100=ORIENTED_EDGE('',*,*,#138,.F.);
#101=ORIENTED_EDGE('',*,*,#144,.F.);
#102=ORIENTED_EDGE('',*,*,#155,.T.);
#103=ORIENTED_EDGE('',*,*,#154,.T.);
#104=ORIENTED_EDGE('',*,*,#156,.T.);
#105=ORIENTED_EDGE('',*,*,#140,.F.);
#106=ORIENTED_EDGE('',*,*,#157,.F.);
#107=ORIENTED_EDGE('',*,*,#158,.F.);
#108=ORIENTED_EDGE('',*,*,#142,.T.);
#109=ORIENTED_EDGE('',*,*,#159,.T.);
#110=ORIENTED_EDGE('',*,*,#160,.F.);
#111=ORIENTED_EDGE('',*,*,#159,.F.);
#112=ORIENTED_EDGE('',*,*,#141,.F.);
#113=ORIENTED_EDGE('',*,*,#156,.F.);
#114=ORIENTED_EDGE('',*,*,#153,.F.);
#115=ORIENTED_EDGE('',*,*,#150,.F.);
#116=ORIENTED_EDGE('',*,*,#147,.F.);
#117=ORIENTED_EDGE('',*,*,#161,.T.);
#118=ORIENTED_EDGE('',*,*,#136,.F.);
#119=ORIENTED_EDGE('',*,*,#162,.F.);
#120=ORIENTED_EDGE('',*,*,#161,.F.);
#121=ORIENTED_EDGE('',*,*,#146,.F.);
#122=ORIENTED_EDGE('',*,*,#163,.T.);
#123=ORIENTED_EDGE('',*,*,#164,.F.);
#124=ORIENTED_EDGE('',*,*,#163,.F.);
#125=ORIENTED_EDGE('',*,*,#145,.F.);
#126=ORIENTED_EDGE('',*,*,#149,.F.);
#127=ORIENTED_EDGE('',*,*,#152,.F.);
#128=ORIENTED_EDGE('',*,*,#155,.F.);
#129=ORIENTED_EDGE('',*,*,#143,.F.);
#130=ORIENTED_EDGE('',*,*,#158,.T.);
#131=ORIENTED_EDGE('',*,*,#162,.T.);
#132=ORIENTED_EDGE('',*,*,#164,.T.);
#133=ORIENTED_EDGE('',*,*,#157,.T.);
#134=ORIENTED_EDGE('',*,*,#160,.T.);
#135=EDGE_CURVE('',#165,#165,#186,.T.);
#136=EDGE_CURVE('',#166,#166,#187,.T.);
#137=EDGE_CURVE('',#167,#167,#74,.T.);
#138=EDGE_CURVE('',#168,#169,#62,.F.);
#139=EDGE_CURVE('',#169,#168,#188,.T.);
#140=EDGE_CURVE('',#169,#170,#12,.T.);
#141=EDGE_CURVE('',#170,#171,#13,.T.);
#142=EDGE_CURVE('',#172,#171,#14,.T.);
#143=EDGE_CURVE('',#172,#173,#15,.T.);
#144=EDGE_CURVE('',#173,#168,#16,.T.);
#145=EDGE_CURVE('',#174,#175,#17,.T.);
#146=EDGE_CURVE('',#175,#176,#18,.T.);
#147=EDGE_CURVE('',#176,#177,#19,.T.);
#148=EDGE_CURVE('',#174,#177,#20,.T.);
#149=EDGE_CURVE('',#178,#174,#21,.T.);
#150=EDGE_CURVE('',#177,#179,#22,.T.);
#151=EDGE_CURVE('',#178,#179,#23,.T.);
#152=EDGE_CURVE('',#180,#178,#24,.T.);
#153=EDGE_CURVE('',#179,#181,#25,.F.);
#154=EDGE_CURVE('',#180,#181,#26,.T.);
#155=EDGE_CURVE('',#173,#180,#27,.T.);
#156=EDGE_CURVE('',#181,#170,#28,.T.);
#157=EDGE_CURVE('',#182,#183,#29,.F.);
#158=EDGE_CURVE('',#172,#182,#30,.T.);
#159=EDGE_CURVE('',#171,#183,#31,.T.);
#160=EDGE_CURVE('',#183,#184,#32,.F.);
#161=EDGE_CURVE('',#176,#184,#33,.T.);
#162=EDGE_CURVE('',#184,#185,#34,.F.);
#163=EDGE_CURVE('',#175,#185,#35,.T.);
#164=EDGE_CURVE('',#185,#182,#36,.F.);
#165=VERTEX_POINT('',#332);
#166=VERTEX_POINT('',#334);
#167=VERTEX_POINT('',#346);
#168=VERTEX_POINT('',#350);
#169=VERTEX_POINT('',#351);
#170=VERTEX_POINT('',#355);
#171=VERTEX_POINT('',#357);
#172=VERTEX_POINT('',#359);
#173=VERTEX_POINT('',#361);
#174=VERTEX_POINT('',#365);
#175=VERTEX_POINT('',#366);
#176=VERTEX_POINT('',#368);
#177=VERTEX_POINT('',#370);
#178=VERTEX_POINT('',#374);
#179=VERTEX_POINT('',#376);
#180=VERTEX_POINT('',#380);
#181=VERTEX_POINT('',#382);
#182=VERTEX_POINT('',#389);
#183=VERTEX_POINT('',#390);
#184=VERTEX_POINT('',#395);
#185=VERTEX_POINT('',#399);
#186=CIRCLE('',#252,0.00755);
#187=CIRCLE('',#253,0.00755);
#188=CIRCLE('',#257,0.0012645);
#189=EDGE_LOOP('',(#75));
#190=EDGE_LOOP('',(#76));
#191=EDGE_LOOP('',(#77));
#192=EDGE_LOOP('',(#78));
#193=EDGE_LOOP('',(#79));
#194=EDGE_LOOP('',(#80,#81));
#195=EDGE_LOOP('',(#82,#83,#84,#85,#86,#87));
#196=EDGE_LOOP('',(#88,#89,#90,#91));
#197=EDGE_LOOP('',(#92,#93,#94,#95));
#198=EDGE_LOOP('',(#96,#97,#98,#99));
#199=EDGE_LOOP('',(#100,#101,#102,#103,#104,#105));
#200=EDGE_LOOP('',(#106,#107,#108,#109));
#201=EDGE_LOOP('',(#110,#111,#112,#113,#114,#115,#116,#117));
#202=EDGE_LOOP('',(#118));
#203=EDGE_LOOP('',(#119,#120,#121,#122));
#204=EDGE_LOOP('',(#123,#124,#125,#126,#127,#128,#129,#130));
#205=EDGE_LOOP('',(#131,#132,#133,#134));
#206=FACE_BOUND('',#189,.T.);
#207=FACE_BOUND('',#190,.T.);
#208=FACE_BOUND('',#191,.T.);
#209=FACE_BOUND('',#192,.T.);
#210=FACE_BOUND('',#193,.T.);
#211=FACE_BOUND('',#194,.T.);
#212=FACE_BOUND('',#195,.T.);
#213=FACE_BOUND('',#196,.T.);
#214=FACE_BOUND('',#197,.T.);
#215=FACE_BOUND('',#198,.T.);
#216=FACE_BOUND('',#199,.T.);
#217=FACE_BOUND('',#200,.T.);
#218=FACE_BOUND('',#201,.T.);
#219=FACE_BOUND('',#202,.T.);
#220=FACE_BOUND('',#203,.T.);
#221=FACE_BOUND('',#204,.T.);
#222=FACE_BOUND('',#205,.T.);
#223=CYLINDRICAL_SURFACE('',#251,0.00755);
#224=CYLINDRICAL_SURFACE('',#255,0.0012645);
#225=ADVANCED_FACE('',(#206,#207,#208),#223,.F.);
#226=ADVANCED_FACE('',(#209),#63,.T.);
#227=ADVANCED_FACE('',(#210,#211),#224,.F.);
#228=ADVANCED_FACE('',(#212),#64,.T.);
#229=ADVANCED_FACE('',(#213),#65,.T.);
#230=ADVANCED_FACE('',(#214),#66,.T.);
#231=ADVANCED_FACE('',(#215),#67,.T.);
#232=ADVANCED_FACE('',(#216),#68,.T.);
#233=ADVANCED_FACE('',(#217),#69,.T.);
#234=ADVANCED_FACE('',(#218,#219),#70,.T.);
#235=ADVANCED_FACE('',(#220),#71,.T.);
#236=ADVANCED_FACE('',(#221),#72,.T.);
#237=ADVANCED_FACE('',(#222),#73,.T.);
#238=CLOSED_SHELL('',(#225,#226,#227,#228,#229,#230,#231,#232,#233,#234,
#235,#236,#237));
#239=STYLED_ITEM('',(#240),#247);
#240=PRESENTATION_STYLE_ASSIGNMENT((#241));
#241=SURFACE_STYLE_USAGE(.BOTH.,#242);
#242=SURFACE_SIDE_STYLE('',(#243));
#243=SURFACE_STYLE_FILL_AREA(#244);
#244=FILL_AREA_STYLE('',(#245));
#245=FILL_AREA_STYLE_COLOUR('',#246);
#246=COLOUR_RGB('',0.964705882352941,0.964705882352941,0.952941176470588);
#247=MANIFOLD_SOLID_BREP('Right foot cover',#238);
#248=SHAPE_DEFINITION_REPRESENTATION(#410,#249);
#249=SHAPE_REPRESENTATION('Right foot cover',(#250),#405);
#250=AXIS2_PLACEMENT_3D('',#329,#268,#269);
#251=AXIS2_PLACEMENT_3D('',#330,#270,#271);
#252=AXIS2_PLACEMENT_3D('',#331,#272,#273);
#253=AXIS2_PLACEMENT_3D('',#333,#274,#275);
#254=AXIS2_PLACEMENT_3D('',#347,#276,#277);
#255=AXIS2_PLACEMENT_3D('',#348,#278,#279);
#256=AXIS2_PLACEMENT_3D('',#349,#280,#281);
#257=AXIS2_PLACEMENT_3D('',#352,#282,#283);
#258=AXIS2_PLACEMENT_3D('',#353,#284,#285);
#259=AXIS2_PLACEMENT_3D('',#363,#291,#292);
#260=AXIS2_PLACEMENT_3D('',#372,#297,#298);
#261=AXIS2_PLACEMENT_3D('',#378,#302,#303);
#262=AXIS2_PLACEMENT_3D('',#384,#307,#308);
#263=AXIS2_PLACEMENT_3D('',#387,#311,#312);
#264=AXIS2_PLACEMENT_3D('',#393,#316,#317);
#265=AXIS2_PLACEMENT_3D('',#397,#320,#321);
#266=AXIS2_PLACEMENT_3D('',#401,#324,#325);
#267=AXIS2_PLACEMENT_3D('',#403,#327,#328);
#268=DIRECTION('',(0.,0.,1.));
#269=DIRECTION('',(1.,0.,0.));
#270=DIRECTION('',(-1.22464679914707E-16,1.09426356864617E-14,-1.));
#271=DIRECTION('',(-1.,4.88498130835069E-15,1.2246467991476E-16));
#272=DIRECTION('',(1.22464679914707E-16,-1.09426356864617E-14,1.));
#273=DIRECTION('',(0.,-1.,-1.09426356864617E-14));
#274=DIRECTION('',(1.22464679914707E-16,-1.09426356864617E-14,1.));
#275=DIRECTION('',(0.,-1.,-1.09426356864617E-14));
#276=DIRECTION('',(1.22464679914707E-16,-1.09426356864617E-14,1.));
#277=DIRECTION('',(-1.,4.88498130835069E-15,1.2246467991476E-16));
#278=DIRECTION('',(-4.88498130835069E-15,-1.,-1.09426356864617E-14));
#279=DIRECTION('',(1.,-4.88498130835069E-15,-1.22464679914761E-16));
#280=DIRECTION('',(2.06157020197789E-5,-0.999999999787496,-1.09426382088317E-14));
#281=DIRECTION('',(-0.999999999787496,-2.06157020197789E-5,1.22239089366425E-16));
#282=DIRECTION('',(4.88498130835069E-15,1.,1.09426356864617E-14));
#283=DIRECTION('',(2.44929359829414E-16,-1.09426356864617E-14,1.));
#284=DIRECTION('',(4.88498130835069E-15,1.,1.09426356864617E-14));
#285=DIRECTION('',(1.,-4.88498130835069E-15,-1.22464679914761E-16));
#286=DIRECTION('',(1.22464679914707E-16,-1.09426356864617E-14,1.));
#287=DIRECTION('',(1.,-3.08320233688924E-15,5.77257930007645E-16));
#288=DIRECTION('',(1.22464679914707E-16,-1.09426356864617E-14,1.));
#289=DIRECTION('',(-1.,2.87765551442995E-15,2.44929359829477E-16));
#290=DIRECTION('',(1.22464679914707E-16,-1.09426356864617E-14,1.));
#291=DIRECTION('',(-0.942054981680479,0.335458509343544,3.78616871746348E-15));
#292=DIRECTION('',(0.335458509343544,0.942054981680479,1.02674826421744E-14));
#293=DIRECTION('',(-0.335458509343528,-0.942054981680485,-4.40154895771415E-15));
#294=DIRECTION('',(1.22464679914707E-16,-1.09426356864617E-14,1.));
#295=DIRECTION('',(0.335458509343517,0.942054981680488,4.40154895771513E-15));
#296=DIRECTION('',(1.2246467991472E-16,-1.09426356864617E-14,1.));
#297=DIRECTION('',(-0.404162708692234,0.914687107650784,1.00585834428794E-14));
#298=DIRECTION('',(0.914687107650784,0.404162708692234,4.31058841541213E-15));
#299=DIRECTION('',(-0.914687107650784,-0.404162708692234,-4.59170811758628E-15));
#300=DIRECTION('',(0.914687107650784,0.404162708692233,4.14398937167092E-15));
#301=DIRECTION('',(1.2246467991471E-16,-1.09426356864618E-14,1.));
#302=DIRECTION('',(-0.999999999787496,-2.0615702019554E-5,1.22239089772062E-16));
#303=DIRECTION('',(-2.0615702019554E-5,0.999999999787496,1.09426382088317E-14));
#304=DIRECTION('',(2.061570201811E-5,-0.999999999787496,-1.09426382088317E-14));
#305=DIRECTION('',(2.06157020206099E-5,-0.999999999787496,-1.09426382088317E-14));
#306=DIRECTION('',(1.22464679914707E-16,-1.09426356864617E-14,1.));
#307=DIRECTION('',(-2.06157020197789E-5,0.999999999787496,1.09426382088317E-14));
#308=DIRECTION('',(0.999999999787496,2.06157020197789E-5,-1.22239089772059E-16));
#309=DIRECTION('',(-0.999999999787496,-2.061570201811E-5,1.22239089772078E-16));
#310=DIRECTION('',(0.999999999787496,2.06157020206099E-5,-1.22239089772051E-16));
#311=DIRECTION('',(0.999999999787496,2.06157020344794E-5,-1.22239089771899E-16));
#312=DIRECTION('',(-1.22464679914707E-16,1.09426356864617E-14,-1.));
#313=DIRECTION('',(-1.22464679914707E-16,1.09426356864617E-14,-1.));
#314=DIRECTION('',(2.06157020344794E-5,-0.999999999787496,-1.09426382088317E-14));
#315=DIRECTION('',(2.06157020206099E-5,-0.999999999787496,-1.09426382088317E-14));
#316=DIRECTION('',(1.22464679914707E-16,-1.09426356864617E-14,1.));
#317=DIRECTION('',(0.999999999787496,2.06157020206099E-5,-1.22239089772051E-16));
#318=DIRECTION('',(0.999999999787496,2.06157020206099E-5,-1.22239089772051E-16));
#319=DIRECTION('',(2.06157020344794E-5,-0.999999999787496,-1.09426382088317E-14));
#320=DIRECTION('',(-0.999999999787496,-2.06157020344794E-5,1.22239089771899E-16));
#321=DIRECTION('',(1.22464679914707E-16,-1.09426356864617E-14,1.));
#322=DIRECTION('',(1.22464679914707E-16,-1.09426356864617E-14,1.));
#323=DIRECTION('',(2.061570201811E-5,-0.999999999787496,-1.09426382088317E-14));
#324=DIRECTION('',(-1.22464679914707E-16,1.09426356864617E-14,-1.));
#325=DIRECTION('',(-0.999999999787496,-2.061570201811E-5,1.22239089772078E-16));
#326=DIRECTION('',(-0.999999999787496,-2.061570201811E-5,1.22239089772078E-16));
#327=DIRECTION('',(2.06157020127336E-5,-0.999999999787496,-1.09426382088317E-14));
#328=DIRECTION('',(-1.22464679914707E-16,1.09426356864617E-14,-1.));
#329=CARTESIAN_POINT('',(0.,0.,0.));
#330=CARTESIAN_POINT('',(0.0211331891896888,-0.000162696638115456,0.16519078267847));
#331=CARTESIAN_POINT('',(0.0211331891896888,-0.000162696638115369,0.15719078267847));
#332=CARTESIAN_POINT('',(0.0211331891896888,-0.00771269663811537,0.157190782678469));
#333=CARTESIAN_POINT('',(0.0211331891896888,-0.000162696638115456,0.16519078267847));
#334=CARTESIAN_POINT('',(0.0211331891896888,-0.00771269663811546,0.165190782678469));
#335=CARTESIAN_POINT('',(0.022487078262483,0.00727746508351884,0.159200048783811));
#336=CARTESIAN_POINT('',(0.0228987207555142,0.00717572227234124,0.160190939929442));
#337=CARTESIAN_POINT('',(0.0224869638462351,0.0072774032355687,0.161180887569239));
#338=CARTESIAN_POINT('',(0.0215035954936295,0.00740471210693121,0.161591595467845));
#339=CARTESIAN_POINT('',(0.0205070857237843,0.00737366236581177,0.161184380327835));
#340=CARTESIAN_POINT('',(0.0200951913226724,0.00731326674621122,0.160190403476394));
#341=CARTESIAN_POINT('',(0.0205070741412901,0.00737357928369649,0.159198086056322));
#342=CARTESIAN_POINT('',(0.0215008627268425,0.00740484927222901,0.158789894357454));
#343=CARTESIAN_POINT('',(0.022487078262483,0.00727746508351884,0.159200048783811));
#344=CARTESIAN_POINT('',(0.0228987207555142,0.00717572227234124,0.160190939929442));
#345=CARTESIAN_POINT('',(0.0224869638462351,0.0072774032355687,0.161180887569239));
#346=CARTESIAN_POINT('',(0.0227614875217958,0.00720962623474208,0.16019078267847));
#347=CARTESIAN_POINT('',(0.0211331891896888,-0.000162696638115366,0.15719078267847));
#348=CARTESIAN_POINT('',(0.0214969875217959,0.0240345687192264,0.16019078267847));
#349=CARTESIAN_POINT('',(0.0214969875217959,0.0240345687192264,0.16019078267847));
#350=CARTESIAN_POINT('',(0.0214969875222166,0.0240345687192264,0.15892628267847));
#351=CARTESIAN_POINT('',(0.0214969875222166,0.0240345687192264,0.16145528267847));
#352=CARTESIAN_POINT('',(0.0214969875217959,0.0240345687192264,0.16019078267847));
#353=CARTESIAN_POINT('',(0.0214969875217959,0.0240345687192264,0.15519078267847));
#354=CARTESIAN_POINT('',(0.0214969875217959,0.0240345687192265,0.15519078267847));
#355=CARTESIAN_POINT('',(0.0214969861276693,0.024034568719212,0.16519078267847));
#356=CARTESIAN_POINT('',(0.0214969875217959,0.0240345687192263,0.16519078267847));
#357=CARTESIAN_POINT('',(0.0552552029049688,0.0240345687192262,0.16519078267847));
#358=CARTESIAN_POINT('',(0.0552552029049688,0.0240345687192263,0.15519078267847));
#359=CARTESIAN_POINT('',(0.0552552029049684,0.0240345687192263,0.15519078267847));
#360=CARTESIAN_POINT('',(0.0552552029049688,0.0240345687192263,0.15519078267847));
#361=CARTESIAN_POINT('',(0.0214969875217737,0.0240345687192264,0.15519078267847));
#362=CARTESIAN_POINT('',(0.0214969875217959,0.0240345687192265,0.15519078267847));
#363=CARTESIAN_POINT('',(-0.06393084990153,-0.0220055357217845,0.155190782678469));
#364=CARTESIAN_POINT('',(-0.0633537344392198,-0.0203848449921375,0.155190782678469));
#365=CARTESIAN_POINT('',(-0.0633537344392197,-0.0203848449921375,0.155190782678469));
#366=CARTESIAN_POINT('',(-0.0639308499015301,-0.0220055357217845,0.155190782678469));
#367=CARTESIAN_POINT('',(-0.0639308499015301,-0.0220055357217845,0.155190782678469));
#368=CARTESIAN_POINT('',(-0.0639308499015301,-0.0220055357217847,0.165190782678469));
#369=CARTESIAN_POINT('',(-0.06393084990153,-0.0220055357217846,0.165190782678469));
#370=CARTESIAN_POINT('',(-0.0633537344392197,-0.0203848449921376,0.165190782678469));
#371=CARTESIAN_POINT('',(-0.0633537344392197,-0.0203848449921375,0.155190782678469));
#372=CARTESIAN_POINT('',(-0.0633537344392197,-0.0203848449921375,0.155190782678469));
#373=CARTESIAN_POINT('',(-0.0066492354369741,0.00467054686819406,0.155190782678469));
#374=CARTESIAN_POINT('',(-0.0066492354369741,0.00467054686819405,0.155190782678469));
#375=CARTESIAN_POINT('',(-0.0633537344392197,-0.0203848449921375,0.165190782678469));
#376=CARTESIAN_POINT('',(-0.00664923543697409,0.00467054686819395,0.16519078267847));
#377=CARTESIAN_POINT('',(-0.00664923543697408,0.00467054686819406,0.155190782678469));
#378=CARTESIAN_POINT('',(-0.00664923543697409,0.00467054686819407,0.15519078267847));
#379=CARTESIAN_POINT('',(-0.00664855750714564,-0.0282136026864254,0.155190782678469));
#380=CARTESIAN_POINT('',(-0.00664963462791605,0.0240339884568512,0.15519078267847));
#381=CARTESIAN_POINT('',(-0.00664855750714553,-0.0282136026864254,0.165190782678469));
#382=CARTESIAN_POINT('',(-0.00664963462791605,0.0240339884568511,0.16519078267847));
#383=CARTESIAN_POINT('',(-0.00664963462791604,0.0240339884568512,0.15519078267847));
#384=CARTESIAN_POINT('',(-0.00664963462791604,0.0240339884568512,0.15519078267847));
#385=CARTESIAN_POINT('',(0.0552552028906214,0.0240352646685353,0.15519078267847));
#386=CARTESIAN_POINT('',(-0.0639317990142966,0.0240328075448187,0.16519078267847));
#387=CARTESIAN_POINT('',(0.0552562800113918,-0.0282123264747415,0.165190782678469));
#388=CARTESIAN_POINT('',(0.0552562876598173,-0.0285833264746633,0.165190782678469));
#389=CARTESIAN_POINT('',(0.0552562876598173,-0.0285833264746629,0.15519078267847));
#390=CARTESIAN_POINT('',(0.0552562876598173,-0.0285833264746633,0.165190782678469));
#391=CARTESIAN_POINT('',(0.0552562800113918,-0.0282123264747414,0.15519078267847));
#392=CARTESIAN_POINT('',(0.0552562800113918,-0.0282123264747413,0.165190782678469));
#393=CARTESIAN_POINT('',(-0.063930721893526,-0.0282147835984578,0.165190782678469));
#394=CARTESIAN_POINT('',(-0.0639307142451006,-0.0285857835983798,0.165190782678469));
#395=CARTESIAN_POINT('',(-0.0639307142451006,-0.0285857835983793,0.165190782678469));
#396=CARTESIAN_POINT('',(-0.063930721893526,-0.0282147835984578,0.165190782678469));
#397=CARTESIAN_POINT('',(-0.063930721893526,-0.0282147835984577,0.155190782678469));
#398=CARTESIAN_POINT('',(-0.0639307142451006,-0.0285857835983788,0.155190782678469));
#399=CARTESIAN_POINT('',(-0.0639307142451006,-0.0285857835983788,0.155190782678469));
#400=CARTESIAN_POINT('',(-0.0639307218935261,-0.0282147835984576,0.155190782678469));
#401=CARTESIAN_POINT('',(0.0552562800113918,-0.0282123264747414,0.155190782678469));
#402=CARTESIAN_POINT('',(0.0552562876598172,-0.0285833264746626,0.155190782678469));
#403=CARTESIAN_POINT('',(-0.00433721329264164,-0.0285845550365211,0.160190782678469));
#404=MECHANICAL_DESIGN_GEOMETRIC_PRESENTATION_REPRESENTATION('',(#239),
#405);
#405=(
GEOMETRIC_REPRESENTATION_CONTEXT(3)
GLOBAL_UNCERTAINTY_ASSIGNED_CONTEXT((#406))
GLOBAL_UNIT_ASSIGNED_CONTEXT((#409,#408,#407))
REPRESENTATION_CONTEXT('Right foot cover','TOP_LEVEL_ASSEMBLY_PART')
);
#406=UNCERTAINTY_MEASURE_WITH_UNIT(LENGTH_MEASURE(2.E-5),#409,
'DISTANCE_ACCURACY_VALUE','Maximum Tolerance applied to model');
#407=(
NAMED_UNIT(*)
SI_UNIT($,.STERADIAN.)
SOLID_ANGLE_UNIT()
);
#408=(
NAMED_UNIT(*)
PLANE_ANGLE_UNIT()
SI_UNIT($,.RADIAN.)
);
#409=(
LENGTH_UNIT()
NAMED_UNIT(*)
SI_UNIT($,.METRE.)
);
#410=PRODUCT_DEFINITION_SHAPE('','',#411);
#411=PRODUCT_DEFINITION('','',#413,#412);
#412=PRODUCT_DEFINITION_CONTEXT('',#419,'design');
#413=PRODUCT_DEFINITION_FORMATION_WITH_SPECIFIED_SOURCE('','',#415,
 .NOT_KNOWN.);
#414=PRODUCT_RELATED_PRODUCT_CATEGORY('','',(#415));
#415=PRODUCT('Right foot cover','Right foot cover','Right foot cover',(#417));
#416=PRODUCT_CATEGORY('','');
#417=PRODUCT_CONTEXT('',#419,'mechanical');
#418=APPLICATION_PROTOCOL_DEFINITION('international standard',
'ap242_managed_model_based_3d_engineering',2020,#419);
#419=APPLICATION_CONTEXT('managed model based 3d engineering');
ENDSEC;
END-ISO-10303-21;
