ISO-10303-21;
HEADER;
/* Generated by software containing ST-Developer
 * from STEP Tools, Inc. (www.steptools.com) 
 */
/* OPTION: using custom renumber hook */

FILE_DESCRIPTION(
/* description */ ('STEP AP242 Edition 2',
'CAx-IF Rec.Pracs.---Representation and Presentation of Product Manufa
cturing Information (PMI)---4.0---2014-10-13',
'CAx-IF Rec.Pracs.---3D Tessellated Geometry---0.4---2014-09-14','2;1',
'CAx-IF Rec.Pracs.---User Defined Attributes---1.5---2016-08-15'),
/* implementation_level */ '2;1');

FILE_NAME(
/* name */ 'robot - Hip Support Roll Giver',
/* time_stamp */ '2026-08-16T03:04:30Z',
/* author */ (''),
/* organization */ (''),
/* preprocessor_version */ 'ST-DEVELOPER v20',
/* originating_system */ 'ONSHAPE BY PTC INC, 1.219',
/* authorisation */ '  ');

FILE_SCHEMA (('AP242_MANAGED_MODEL_BASED_3D_ENGINEERING_MIM_LF { 1 0 10303 442 3 1 4 }'));
ENDSEC;

DATA;
#10=SHAPE_REPRESENTATION_RELATIONSHIP('','',#1123,#11);
#11=ADVANCED_BREP_SHAPE_REPRESENTATION('',(#1121),#2015);
#12=TOROIDAL_SURFACE('',#1187,0.0425,0.005);
#13=TOROIDAL_SURFACE('',#1206,0.0425,0.005);
#14=TOROIDAL_SURFACE('',#1225,0.0425,0.005);
#15=TOROIDAL_SURFACE('',#1244,0.0425,0.005);
#16=TOROIDAL_SURFACE('',#1263,0.0425,0.005);
#17=TOROIDAL_SURFACE('',#1265,0.038,0.005);
#18=B_SPLINE_CURVE_WITH_KNOTS('',3,(#1761,#1762,#1763,#1764,#1765,#1766,
#1767),.UNSPECIFIED.,.F.,.F.,(4,1,1,1,4),(0.,0.00230938555784335,0.0046187711156867,
0.00692815667353005,0.0092375422313734),.UNSPECIFIED.);
#19=B_SPLINE_CURVE_WITH_KNOTS('',3,(#1769,#1770,#1771,#1772,#1773,#1774,
#1775),.UNSPECIFIED.,.F.,.F.,(4,1,1,1,4),(0.,0.00230938555784335,0.0046187711156867,
0.00692815667353005,0.0092375422313734),.UNSPECIFIED.);
#20=B_SPLINE_CURVE_WITH_KNOTS('',3,(#1820,#1821,#1822,#1823,#1824,#1825,
#1826),.UNSPECIFIED.,.F.,.F.,(4,1,1,1,4),(0.,0.00230938555784338,0.00461877111568675,
0.00692815667353013,0.00923754223137351),.UNSPECIFIED.);
#21=B_SPLINE_CURVE_WITH_KNOTS('',3,(#1828,#1829,#1830,#1831,#1832,#1833,
#1834),.UNSPECIFIED.,.F.,.F.,(4,1,1,1,4),(0.,0.00230938555784338,0.00461877111568676,
0.00692815667353013,0.00923754223137351),.UNSPECIFIED.);
#22=B_SPLINE_CURVE_WITH_KNOTS('',3,(#1879,#1880,#1881,#1882,#1883,#1884,
#1885),.UNSPECIFIED.,.F.,.F.,(4,1,1,1,4),(0.,0.00230938555784338,0.00461877111568675,
0.00692815667353013,0.0092375422313735),.UNSPECIFIED.);
#23=B_SPLINE_CURVE_WITH_KNOTS('',3,(#1887,#1888,#1889,#1890,#1891,#1892,
#1893),.UNSPECIFIED.,.F.,.F.,(4,1,1,1,4),(0.,0.00230938555784337,0.00461877111568674,
0.00692815667353012,0.00923754223137349),.UNSPECIFIED.);
#24=B_SPLINE_CURVE_WITH_KNOTS('',3,(#1938,#1939,#1940,#1941,#1942,#1943,
#1944),.UNSPECIFIED.,.F.,.F.,(4,1,1,1,4),(0.,0.00230938555784337,0.00461877111568674,
0.00692815667353011,0.00923754223137347),.UNSPECIFIED.);
#25=B_SPLINE_CURVE_WITH_KNOTS('',3,(#1946,#1947,#1948,#1949,#1950,#1951,
#1952),.UNSPECIFIED.,.F.,.F.,(4,1,1,1,4),(0.,0.00230938555784338,0.00461877111568676,
0.00692815667353014,0.00923754223137352),.UNSPECIFIED.);
#26=B_SPLINE_CURVE_WITH_KNOTS('',3,(#1997,#1998,#1999,#2000,#2001,#2002,
#2003),.UNSPECIFIED.,.F.,.F.,(4,1,1,1,4),(0.,0.00230938555784339,0.00461877111568678,
0.00692815667353018,0.00923754223137357),.UNSPECIFIED.);
#27=B_SPLINE_CURVE_WITH_KNOTS('',3,(#2005,#2006,#2007,#2008,#2009,#2010,
#2011),.UNSPECIFIED.,.F.,.F.,(4,1,1,1,4),(0.,0.00230938555784338,0.00461877111568675,
0.00692815667353013,0.00923754223137351),.UNSPECIFIED.);
#28=LINE('',#1690,#98);
#29=LINE('',#1692,#99);
#30=LINE('',#1696,#100);
#31=LINE('',#1697,#101);
#32=LINE('',#1701,#102);
#33=LINE('',#1702,#103);
#34=LINE('',#1706,#104);
#35=LINE('',#1707,#105);
#36=LINE('',#1711,#106);
#37=LINE('',#1712,#107);
#38=LINE('',#1722,#108);
#39=LINE('',#1723,#109);
#40=LINE('',#1725,#110);
#41=LINE('',#1730,#111);
#42=LINE('',#1738,#112);
#43=LINE('',#1739,#113);
#44=LINE('',#1746,#114);
#45=LINE('',#1747,#115);
#46=LINE('',#1754,#116);
#47=LINE('',#1755,#117);
#48=LINE('',#1757,#118);
#49=LINE('',#1759,#119);
#50=LINE('',#1781,#120);
#51=LINE('',#1782,#121);
#52=LINE('',#1784,#122);
#53=LINE('',#1789,#123);
#54=LINE('',#1797,#124);
#55=LINE('',#1798,#125);
#56=LINE('',#1805,#126);
#57=LINE('',#1806,#127);
#58=LINE('',#1813,#128);
#59=LINE('',#1814,#129);
#60=LINE('',#1816,#130);
#61=LINE('',#1818,#131);
#62=LINE('',#1840,#132);
#63=LINE('',#1841,#133);
#64=LINE('',#1843,#134);
#65=LINE('',#1848,#135);
#66=LINE('',#1856,#136);
#67=LINE('',#1857,#137);
#68=LINE('',#1864,#138);
#69=LINE('',#1865,#139);
#70=LINE('',#1872,#140);
#71=LINE('',#1873,#141);
#72=LINE('',#1875,#142);
#73=LINE('',#1877,#143);
#74=LINE('',#1899,#144);
#75=LINE('',#1900,#145);
#76=LINE('',#1902,#146);
#77=LINE('',#1907,#147);
#78=LINE('',#1915,#148);
#79=LINE('',#1916,#149);
#80=LINE('',#1923,#150);
#81=LINE('',#1924,#151);
#82=LINE('',#1931,#152);
#83=LINE('',#1932,#153);
#84=LINE('',#1934,#154);
#85=LINE('',#1936,#155);
#86=LINE('',#1958,#156);
#87=LINE('',#1959,#157);
#88=LINE('',#1961,#158);
#89=LINE('',#1966,#159);
#90=LINE('',#1974,#160);
#91=LINE('',#1975,#161);
#92=LINE('',#1982,#162);
#93=LINE('',#1983,#163);
#94=LINE('',#1990,#164);
#95=LINE('',#1991,#165);
#96=LINE('',#1993,#166);
#97=LINE('',#1995,#167);
#98=VECTOR('',#1344,1.);
#99=VECTOR('',#1345,1.);
#100=VECTOR('',#1348,1.);
#101=VECTOR('',#1349,1.);
#102=VECTOR('',#1352,1.);
#103=VECTOR('',#1353,1.);
#104=VECTOR('',#1356,1.);
#105=VECTOR('',#1357,1.);
#106=VECTOR('',#1360,1.);
#107=VECTOR('',#1361,1.);
#108=VECTOR('',#1372,1.);
#109=VECTOR('',#1373,1.);
#110=VECTOR('',#1376,1.);
#111=VECTOR('',#1379,1.);
#112=VECTOR('',#1388,1.);
#113=VECTOR('',#1389,1.);
#114=VECTOR('',#1396,1.);
#115=VECTOR('',#1397,1.);
#116=VECTOR('',#1404,1.);
#117=VECTOR('',#1405,1.);
#118=VECTOR('',#1408,1.);
#119=VECTOR('',#1411,1.);
#120=VECTOR('',#1422,1.);
#121=VECTOR('',#1423,1.);
#122=VECTOR('',#1426,1.);
#123=VECTOR('',#1429,1.);
#124=VECTOR('',#1438,1.);
#125=VECTOR('',#1439,1.);
#126=VECTOR('',#1446,1.);
#127=VECTOR('',#1447,1.);
#128=VECTOR('',#1454,1.);
#129=VECTOR('',#1455,1.);
#130=VECTOR('',#1458,1.);
#131=VECTOR('',#1461,1.);
#132=VECTOR('',#1472,1.);
#133=VECTOR('',#1473,1.);
#134=VECTOR('',#1476,1.);
#135=VECTOR('',#1479,1.);
#136=VECTOR('',#1488,1.);
#137=VECTOR('',#1489,1.);
#138=VECTOR('',#1496,1.);
#139=VECTOR('',#1497,1.);
#140=VECTOR('',#1504,1.);
#141=VECTOR('',#1505,1.);
#142=VECTOR('',#1508,1.);
#143=VECTOR('',#1511,1.);
#144=VECTOR('',#1522,1.);
#145=VECTOR('',#1523,1.);
#146=VECTOR('',#1526,1.);
#147=VECTOR('',#1529,1.);
#148=VECTOR('',#1538,1.);
#149=VECTOR('',#1539,1.);
#150=VECTOR('',#1546,1.);
#151=VECTOR('',#1547,1.);
#152=VECTOR('',#1554,1.);
#153=VECTOR('',#1555,1.);
#154=VECTOR('',#1558,1.);
#155=VECTOR('',#1561,1.);
#156=VECTOR('',#1572,1.);
#157=VECTOR('',#1573,1.);
#158=VECTOR('',#1576,1.);
#159=VECTOR('',#1579,1.);
#160=VECTOR('',#1588,1.);
#161=VECTOR('',#1589,1.);
#162=VECTOR('',#1596,1.);
#163=VECTOR('',#1597,1.);
#164=VECTOR('',#1604,1.);
#165=VECTOR('',#1605,1.);
#166=VECTOR('',#1608,1.);
#167=VECTOR('',#1611,1.);
#168=PLANE('',#1128);
#169=PLANE('',#1168);
#170=PLANE('',#1172);
#171=PLANE('',#1178);
#172=PLANE('',#1184);
#173=PLANE('',#1185);
#174=PLANE('',#1191);
#175=PLANE('',#1197);
#176=PLANE('',#1203);
#177=PLANE('',#1204);
#178=PLANE('',#1210);
#179=PLANE('',#1216);
#180=PLANE('',#1222);
#181=PLANE('',#1223);
#182=PLANE('',#1229);
#183=PLANE('',#1235);
#184=PLANE('',#1241);
#185=PLANE('',#1242);
#186=PLANE('',#1248);
#187=PLANE('',#1254);
#188=PLANE('',#1260);
#189=PLANE('',#1261);
#190=ORIENTED_EDGE('',*,*,#514,.F.);
#191=ORIENTED_EDGE('',*,*,#515,.F.);
#192=ORIENTED_EDGE('',*,*,#516,.F.);
#193=ORIENTED_EDGE('',*,*,#517,.F.);
#194=ORIENTED_EDGE('',*,*,#518,.F.);
#195=ORIENTED_EDGE('',*,*,#519,.T.);
#196=ORIENTED_EDGE('',*,*,#520,.F.);
#197=ORIENTED_EDGE('',*,*,#521,.F.);
#198=ORIENTED_EDGE('',*,*,#522,.F.);
#199=ORIENTED_EDGE('',*,*,#523,.T.);
#200=ORIENTED_EDGE('',*,*,#524,.F.);
#201=ORIENTED_EDGE('',*,*,#525,.F.);
#202=ORIENTED_EDGE('',*,*,#526,.F.);
#203=ORIENTED_EDGE('',*,*,#527,.T.);
#204=ORIENTED_EDGE('',*,*,#528,.F.);
#205=ORIENTED_EDGE('',*,*,#529,.F.);
#206=ORIENTED_EDGE('',*,*,#530,.F.);
#207=ORIENTED_EDGE('',*,*,#531,.T.);
#208=ORIENTED_EDGE('',*,*,#532,.F.);
#209=ORIENTED_EDGE('',*,*,#533,.F.);
#210=ORIENTED_EDGE('',*,*,#534,.F.);
#211=ORIENTED_EDGE('',*,*,#535,.T.);
#212=ORIENTED_EDGE('',*,*,#536,.F.);
#213=ORIENTED_EDGE('',*,*,#537,.F.);
#214=ORIENTED_EDGE('',*,*,#538,.F.);
#215=ORIENTED_EDGE('',*,*,#539,.F.);
#216=ORIENTED_EDGE('',*,*,#515,.T.);
#217=ORIENTED_EDGE('',*,*,#536,.T.);
#218=ORIENTED_EDGE('',*,*,#540,.F.);
#219=ORIENTED_EDGE('',*,*,#537,.T.);
#220=ORIENTED_EDGE('',*,*,#541,.F.);
#221=ORIENTED_EDGE('',*,*,#538,.T.);
#222=ORIENTED_EDGE('',*,*,#542,.F.);
#223=ORIENTED_EDGE('',*,*,#539,.T.);
#224=ORIENTED_EDGE('',*,*,#543,.F.);
#225=ORIENTED_EDGE('',*,*,#544,.F.);
#226=ORIENTED_EDGE('',*,*,#545,.F.);
#227=ORIENTED_EDGE('',*,*,#535,.F.);
#228=ORIENTED_EDGE('',*,*,#546,.F.);
#229=ORIENTED_EDGE('',*,*,#547,.F.);
#230=ORIENTED_EDGE('',*,*,#548,.F.);
#231=ORIENTED_EDGE('',*,*,#531,.F.);
#232=ORIENTED_EDGE('',*,*,#549,.F.);
#233=ORIENTED_EDGE('',*,*,#550,.F.);
#234=ORIENTED_EDGE('',*,*,#551,.F.);
#235=ORIENTED_EDGE('',*,*,#527,.F.);
#236=ORIENTED_EDGE('',*,*,#552,.F.);
#237=ORIENTED_EDGE('',*,*,#553,.F.);
#238=ORIENTED_EDGE('',*,*,#554,.F.);
#239=ORIENTED_EDGE('',*,*,#523,.F.);
#240=ORIENTED_EDGE('',*,*,#555,.F.);
#241=ORIENTED_EDGE('',*,*,#556,.F.);
#242=ORIENTED_EDGE('',*,*,#557,.F.);
#243=ORIENTED_EDGE('',*,*,#519,.F.);
#244=ORIENTED_EDGE('',*,*,#558,.F.);
#245=ORIENTED_EDGE('',*,*,#559,.F.);
#246=ORIENTED_EDGE('',*,*,#560,.F.);
#247=ORIENTED_EDGE('',*,*,#543,.T.);
#248=ORIENTED_EDGE('',*,*,#542,.T.);
#249=ORIENTED_EDGE('',*,*,#541,.T.);
#250=ORIENTED_EDGE('',*,*,#540,.T.);
#251=ORIENTED_EDGE('',*,*,#514,.T.);
#252=ORIENTED_EDGE('',*,*,#561,.F.);
#253=ORIENTED_EDGE('',*,*,#562,.F.);
#254=ORIENTED_EDGE('',*,*,#521,.T.);
#255=ORIENTED_EDGE('',*,*,#563,.F.);
#256=ORIENTED_EDGE('',*,*,#564,.T.);
#257=ORIENTED_EDGE('',*,*,#565,.F.);
#258=ORIENTED_EDGE('',*,*,#566,.F.);
#259=ORIENTED_EDGE('',*,*,#567,.F.);
#260=ORIENTED_EDGE('',*,*,#561,.T.);
#261=ORIENTED_EDGE('',*,*,#568,.F.);
#262=ORIENTED_EDGE('',*,*,#569,.F.);
#263=ORIENTED_EDGE('',*,*,#570,.F.);
#264=ORIENTED_EDGE('',*,*,#565,.T.);
#265=ORIENTED_EDGE('',*,*,#571,.T.);
#266=ORIENTED_EDGE('',*,*,#572,.F.);
#267=ORIENTED_EDGE('',*,*,#573,.F.);
#268=ORIENTED_EDGE('',*,*,#574,.F.);
#269=ORIENTED_EDGE('',*,*,#569,.T.);
#270=ORIENTED_EDGE('',*,*,#575,.T.);
#271=ORIENTED_EDGE('',*,*,#576,.F.);
#272=ORIENTED_EDGE('',*,*,#577,.F.);
#273=ORIENTED_EDGE('',*,*,#578,.F.);
#274=ORIENTED_EDGE('',*,*,#572,.T.);
#275=ORIENTED_EDGE('',*,*,#579,.F.);
#276=ORIENTED_EDGE('',*,*,#566,.T.);
#277=ORIENTED_EDGE('',*,*,#570,.T.);
#278=ORIENTED_EDGE('',*,*,#574,.T.);
#279=ORIENTED_EDGE('',*,*,#580,.F.);
#280=ORIENTED_EDGE('',*,*,#575,.F.);
#281=ORIENTED_EDGE('',*,*,#571,.F.);
#282=ORIENTED_EDGE('',*,*,#564,.F.);
#283=ORIENTED_EDGE('',*,*,#581,.F.);
#284=ORIENTED_EDGE('',*,*,#522,.T.);
#285=ORIENTED_EDGE('',*,*,#562,.T.);
#286=ORIENTED_EDGE('',*,*,#567,.T.);
#287=ORIENTED_EDGE('',*,*,#580,.T.);
#288=ORIENTED_EDGE('',*,*,#573,.T.);
#289=ORIENTED_EDGE('',*,*,#578,.T.);
#290=ORIENTED_EDGE('',*,*,#582,.T.);
#291=ORIENTED_EDGE('',*,*,#555,.T.);
#292=ORIENTED_EDGE('',*,*,#582,.F.);
#293=ORIENTED_EDGE('',*,*,#577,.T.);
#294=ORIENTED_EDGE('',*,*,#583,.T.);
#295=ORIENTED_EDGE('',*,*,#556,.T.);
#296=ORIENTED_EDGE('',*,*,#576,.T.);
#297=ORIENTED_EDGE('',*,*,#581,.T.);
#298=ORIENTED_EDGE('',*,*,#568,.T.);
#299=ORIENTED_EDGE('',*,*,#563,.T.);
#300=ORIENTED_EDGE('',*,*,#520,.T.);
#301=ORIENTED_EDGE('',*,*,#557,.T.);
#302=ORIENTED_EDGE('',*,*,#583,.F.);
#303=ORIENTED_EDGE('',*,*,#579,.T.);
#304=ORIENTED_EDGE('',*,*,#584,.F.);
#305=ORIENTED_EDGE('',*,*,#585,.F.);
#306=ORIENTED_EDGE('',*,*,#525,.T.);
#307=ORIENTED_EDGE('',*,*,#586,.F.);
#308=ORIENTED_EDGE('',*,*,#587,.T.);
#309=ORIENTED_EDGE('',*,*,#588,.F.);
#310=ORIENTED_EDGE('',*,*,#589,.F.);
#311=ORIENTED_EDGE('',*,*,#590,.F.);
#312=ORIENTED_EDGE('',*,*,#584,.T.);
#313=ORIENTED_EDGE('',*,*,#591,.F.);
#314=ORIENTED_EDGE('',*,*,#592,.F.);
#315=ORIENTED_EDGE('',*,*,#593,.F.);
#316=ORIENTED_EDGE('',*,*,#588,.T.);
#317=ORIENTED_EDGE('',*,*,#594,.T.);
#318=ORIENTED_EDGE('',*,*,#595,.F.);
#319=ORIENTED_EDGE('',*,*,#596,.F.);
#320=ORIENTED_EDGE('',*,*,#597,.F.);
#321=ORIENTED_EDGE('',*,*,#592,.T.);
#322=ORIENTED_EDGE('',*,*,#598,.T.);
#323=ORIENTED_EDGE('',*,*,#599,.F.);
#324=ORIENTED_EDGE('',*,*,#600,.F.);
#325=ORIENTED_EDGE('',*,*,#601,.F.);
#326=ORIENTED_EDGE('',*,*,#595,.T.);
#327=ORIENTED_EDGE('',*,*,#602,.F.);
#328=ORIENTED_EDGE('',*,*,#589,.T.);
#329=ORIENTED_EDGE('',*,*,#593,.T.);
#330=ORIENTED_EDGE('',*,*,#597,.T.);
#331=ORIENTED_EDGE('',*,*,#603,.F.);
#332=ORIENTED_EDGE('',*,*,#598,.F.);
#333=ORIENTED_EDGE('',*,*,#594,.F.);
#334=ORIENTED_EDGE('',*,*,#587,.F.);
#335=ORIENTED_EDGE('',*,*,#604,.F.);
#336=ORIENTED_EDGE('',*,*,#526,.T.);
#337=ORIENTED_EDGE('',*,*,#585,.T.);
#338=ORIENTED_EDGE('',*,*,#590,.T.);
#339=ORIENTED_EDGE('',*,*,#603,.T.);
#340=ORIENTED_EDGE('',*,*,#596,.T.);
#341=ORIENTED_EDGE('',*,*,#601,.T.);
#342=ORIENTED_EDGE('',*,*,#605,.T.);
#343=ORIENTED_EDGE('',*,*,#552,.T.);
#344=ORIENTED_EDGE('',*,*,#605,.F.);
#345=ORIENTED_EDGE('',*,*,#600,.T.);
#346=ORIENTED_EDGE('',*,*,#606,.T.);
#347=ORIENTED_EDGE('',*,*,#553,.T.);
#348=ORIENTED_EDGE('',*,*,#599,.T.);
#349=ORIENTED_EDGE('',*,*,#604,.T.);
#350=ORIENTED_EDGE('',*,*,#591,.T.);
#351=ORIENTED_EDGE('',*,*,#586,.T.);
#352=ORIENTED_EDGE('',*,*,#524,.T.);
#353=ORIENTED_EDGE('',*,*,#554,.T.);
#354=ORIENTED_EDGE('',*,*,#606,.F.);
#355=ORIENTED_EDGE('',*,*,#602,.T.);
#356=ORIENTED_EDGE('',*,*,#607,.F.);
#357=ORIENTED_EDGE('',*,*,#608,.F.);
#358=ORIENTED_EDGE('',*,*,#529,.T.);
#359=ORIENTED_EDGE('',*,*,#609,.F.);
#360=ORIENTED_EDGE('',*,*,#610,.T.);
#361=ORIENTED_EDGE('',*,*,#611,.F.);
#362=ORIENTED_EDGE('',*,*,#612,.F.);
#363=ORIENTED_EDGE('',*,*,#613,.F.);
#364=ORIENTED_EDGE('',*,*,#607,.T.);
#365=ORIENTED_EDGE('',*,*,#614,.F.);
#366=ORIENTED_EDGE('',*,*,#615,.F.);
#367=ORIENTED_EDGE('',*,*,#616,.F.);
#368=ORIENTED_EDGE('',*,*,#611,.T.);
#369=ORIENTED_EDGE('',*,*,#617,.T.);
#370=ORIENTED_EDGE('',*,*,#618,.F.);
#371=ORIENTED_EDGE('',*,*,#619,.F.);
#372=ORIENTED_EDGE('',*,*,#620,.F.);
#373=ORIENTED_EDGE('',*,*,#615,.T.);
#374=ORIENTED_EDGE('',*,*,#621,.T.);
#375=ORIENTED_EDGE('',*,*,#622,.F.);
#376=ORIENTED_EDGE('',*,*,#623,.F.);
#377=ORIENTED_EDGE('',*,*,#624,.F.);
#378=ORIENTED_EDGE('',*,*,#618,.T.);
#379=ORIENTED_EDGE('',*,*,#625,.F.);
#380=ORIENTED_EDGE('',*,*,#612,.T.);
#381=ORIENTED_EDGE('',*,*,#616,.T.);
#382=ORIENTED_EDGE('',*,*,#620,.T.);
#383=ORIENTED_EDGE('',*,*,#626,.F.);
#384=ORIENTED_EDGE('',*,*,#621,.F.);
#385=ORIENTED_EDGE('',*,*,#617,.F.);
#386=ORIENTED_EDGE('',*,*,#610,.F.);
#387=ORIENTED_EDGE('',*,*,#627,.F.);
#388=ORIENTED_EDGE('',*,*,#530,.T.);
#389=ORIENTED_EDGE('',*,*,#608,.T.);
#390=ORIENTED_EDGE('',*,*,#613,.T.);
#391=ORIENTED_EDGE('',*,*,#626,.T.);
#392=ORIENTED_EDGE('',*,*,#619,.T.);
#393=ORIENTED_EDGE('',*,*,#624,.T.);
#394=ORIENTED_EDGE('',*,*,#628,.T.);
#395=ORIENTED_EDGE('',*,*,#549,.T.);
#396=ORIENTED_EDGE('',*,*,#628,.F.);
#397=ORIENTED_EDGE('',*,*,#623,.T.);
#398=ORIENTED_EDGE('',*,*,#629,.T.);
#399=ORIENTED_EDGE('',*,*,#550,.T.);
#400=ORIENTED_EDGE('',*,*,#622,.T.);
#401=ORIENTED_EDGE('',*,*,#627,.T.);
#402=ORIENTED_EDGE('',*,*,#614,.T.);
#403=ORIENTED_EDGE('',*,*,#609,.T.);
#404=ORIENTED_EDGE('',*,*,#528,.T.);
#405=ORIENTED_EDGE('',*,*,#551,.T.);
#406=ORIENTED_EDGE('',*,*,#629,.F.);
#407=ORIENTED_EDGE('',*,*,#625,.T.);
#408=ORIENTED_EDGE('',*,*,#630,.F.);
#409=ORIENTED_EDGE('',*,*,#631,.F.);
#410=ORIENTED_EDGE('',*,*,#533,.T.);
#411=ORIENTED_EDGE('',*,*,#632,.F.);
#412=ORIENTED_EDGE('',*,*,#633,.T.);
#413=ORIENTED_EDGE('',*,*,#634,.F.);
#414=ORIENTED_EDGE('',*,*,#635,.F.);
#415=ORIENTED_EDGE('',*,*,#636,.F.);
#416=ORIENTED_EDGE('',*,*,#630,.T.);
#417=ORIENTED_EDGE('',*,*,#637,.F.);
#418=ORIENTED_EDGE('',*,*,#638,.F.);
#419=ORIENTED_EDGE('',*,*,#639,.F.);
#420=ORIENTED_EDGE('',*,*,#634,.T.);
#421=ORIENTED_EDGE('',*,*,#640,.T.);
#422=ORIENTED_EDGE('',*,*,#641,.F.);
#423=ORIENTED_EDGE('',*,*,#642,.F.);
#424=ORIENTED_EDGE('',*,*,#643,.F.);
#425=ORIENTED_EDGE('',*,*,#638,.T.);
#426=ORIENTED_EDGE('',*,*,#644,.T.);
#427=ORIENTED_EDGE('',*,*,#645,.F.);
#428=ORIENTED_EDGE('',*,*,#646,.F.);
#429=ORIENTED_EDGE('',*,*,#647,.F.);
#430=ORIENTED_EDGE('',*,*,#641,.T.);
#431=ORIENTED_EDGE('',*,*,#648,.F.);
#432=ORIENTED_EDGE('',*,*,#635,.T.);
#433=ORIENTED_EDGE('',*,*,#639,.T.);
#434=ORIENTED_EDGE('',*,*,#643,.T.);
#435=ORIENTED_EDGE('',*,*,#649,.F.);
#436=ORIENTED_EDGE('',*,*,#644,.F.);
#437=ORIENTED_EDGE('',*,*,#640,.F.);
#438=ORIENTED_EDGE('',*,*,#633,.F.);
#439=ORIENTED_EDGE('',*,*,#650,.F.);
#440=ORIENTED_EDGE('',*,*,#534,.T.);
#441=ORIENTED_EDGE('',*,*,#631,.T.);
#442=ORIENTED_EDGE('',*,*,#636,.T.);
#443=ORIENTED_EDGE('',*,*,#649,.T.);
#444=ORIENTED_EDGE('',*,*,#642,.T.);
#445=ORIENTED_EDGE('',*,*,#647,.T.);
#446=ORIENTED_EDGE('',*,*,#651,.T.);
#447=ORIENTED_EDGE('',*,*,#546,.T.);
#448=ORIENTED_EDGE('',*,*,#651,.F.);
#449=ORIENTED_EDGE('',*,*,#646,.T.);
#450=ORIENTED_EDGE('',*,*,#652,.T.);
#451=ORIENTED_EDGE('',*,*,#547,.T.);
#452=ORIENTED_EDGE('',*,*,#645,.T.);
#453=ORIENTED_EDGE('',*,*,#650,.T.);
#454=ORIENTED_EDGE('',*,*,#637,.T.);
#455=ORIENTED_EDGE('',*,*,#632,.T.);
#456=ORIENTED_EDGE('',*,*,#532,.T.);
#457=ORIENTED_EDGE('',*,*,#548,.T.);
#458=ORIENTED_EDGE('',*,*,#652,.F.);
#459=ORIENTED_EDGE('',*,*,#648,.T.);
#460=ORIENTED_EDGE('',*,*,#653,.F.);
#461=ORIENTED_EDGE('',*,*,#654,.F.);
#462=ORIENTED_EDGE('',*,*,#517,.T.);
#463=ORIENTED_EDGE('',*,*,#655,.F.);
#464=ORIENTED_EDGE('',*,*,#656,.T.);
#465=ORIENTED_EDGE('',*,*,#657,.F.);
#466=ORIENTED_EDGE('',*,*,#658,.F.);
#467=ORIENTED_EDGE('',*,*,#659,.F.);
#468=ORIENTED_EDGE('',*,*,#653,.T.);
#469=ORIENTED_EDGE('',*,*,#660,.F.);
#470=ORIENTED_EDGE('',*,*,#661,.F.);
#471=ORIENTED_EDGE('',*,*,#662,.F.);
#472=ORIENTED_EDGE('',*,*,#657,.T.);
#473=ORIENTED_EDGE('',*,*,#663,.T.);
#474=ORIENTED_EDGE('',*,*,#664,.F.);
#475=ORIENTED_EDGE('',*,*,#665,.F.);
#476=ORIENTED_EDGE('',*,*,#666,.F.);
#477=ORIENTED_EDGE('',*,*,#661,.T.);
#478=ORIENTED_EDGE('',*,*,#667,.T.);
#479=ORIENTED_EDGE('',*,*,#668,.F.);
#480=ORIENTED_EDGE('',*,*,#669,.F.);
#481=ORIENTED_EDGE('',*,*,#670,.F.);
#482=ORIENTED_EDGE('',*,*,#664,.T.);
#483=ORIENTED_EDGE('',*,*,#671,.F.);
#484=ORIENTED_EDGE('',*,*,#658,.T.);
#485=ORIENTED_EDGE('',*,*,#662,.T.);
#486=ORIENTED_EDGE('',*,*,#666,.T.);
#487=ORIENTED_EDGE('',*,*,#672,.F.);
#488=ORIENTED_EDGE('',*,*,#667,.F.);
#489=ORIENTED_EDGE('',*,*,#663,.F.);
#490=ORIENTED_EDGE('',*,*,#656,.F.);
#491=ORIENTED_EDGE('',*,*,#673,.F.);
#492=ORIENTED_EDGE('',*,*,#518,.T.);
#493=ORIENTED_EDGE('',*,*,#654,.T.);
#494=ORIENTED_EDGE('',*,*,#659,.T.);
#495=ORIENTED_EDGE('',*,*,#672,.T.);
#496=ORIENTED_EDGE('',*,*,#665,.T.);
#497=ORIENTED_EDGE('',*,*,#670,.T.);
#498=ORIENTED_EDGE('',*,*,#674,.T.);
#499=ORIENTED_EDGE('',*,*,#558,.T.);
#500=ORIENTED_EDGE('',*,*,#674,.F.);
#501=ORIENTED_EDGE('',*,*,#669,.T.);
#502=ORIENTED_EDGE('',*,*,#675,.T.);
#503=ORIENTED_EDGE('',*,*,#559,.T.);
#504=ORIENTED_EDGE('',*,*,#668,.T.);
#505=ORIENTED_EDGE('',*,*,#673,.T.);
#506=ORIENTED_EDGE('',*,*,#660,.T.);
#507=ORIENTED_EDGE('',*,*,#655,.T.);
#508=ORIENTED_EDGE('',*,*,#516,.T.);
#509=ORIENTED_EDGE('',*,*,#545,.T.);
#510=ORIENTED_EDGE('',*,*,#675,.F.);
#511=ORIENTED_EDGE('',*,*,#671,.T.);
#512=ORIENTED_EDGE('',*,*,#544,.T.);
#513=ORIENTED_EDGE('',*,*,#560,.T.);
#514=EDGE_CURVE('',#676,#676,#788,.T.);
#515=EDGE_CURVE('',#677,#677,#789,.T.);
#516=EDGE_CURVE('',#678,#679,#790,.F.);
#517=EDGE_CURVE('',#680,#678,#791,.T.);
#518=EDGE_CURVE('',#681,#680,#792,.F.);
#519=EDGE_CURVE('',#681,#682,#793,.T.);
#520=EDGE_CURVE('',#683,#682,#794,.F.);
#521=EDGE_CURVE('',#684,#683,#795,.T.);
#522=EDGE_CURVE('',#685,#684,#796,.F.);
#523=EDGE_CURVE('',#685,#686,#797,.T.);
#524=EDGE_CURVE('',#687,#686,#798,.F.);
#525=EDGE_CURVE('',#688,#687,#799,.T.);
#526=EDGE_CURVE('',#689,#688,#800,.F.);
#527=EDGE_CURVE('',#689,#690,#801,.T.);
#528=EDGE_CURVE('',#691,#690,#802,.F.);
#529=EDGE_CURVE('',#692,#691,#803,.T.);
#530=EDGE_CURVE('',#693,#692,#804,.F.);
#531=EDGE_CURVE('',#693,#694,#805,.T.);
#532=EDGE_CURVE('',#695,#694,#806,.F.);
#533=EDGE_CURVE('',#696,#695,#807,.T.);
#534=EDGE_CURVE('',#697,#696,#808,.F.);
#535=EDGE_CURVE('',#697,#679,#809,.T.);
#536=EDGE_CURVE('',#698,#698,#810,.T.);
#537=EDGE_CURVE('',#699,#699,#811,.T.);
#538=EDGE_CURVE('',#700,#700,#812,.T.);
#539=EDGE_CURVE('',#701,#701,#813,.T.);
#540=EDGE_CURVE('',#702,#702,#814,.T.);
#541=EDGE_CURVE('',#703,#703,#815,.T.);
#542=EDGE_CURVE('',#704,#704,#816,.T.);
#543=EDGE_CURVE('',#705,#705,#817,.T.);
#544=EDGE_CURVE('',#706,#706,#818,.F.);
#545=EDGE_CURVE('',#679,#707,#28,.T.);
#546=EDGE_CURVE('',#708,#697,#29,.F.);
#547=EDGE_CURVE('',#709,#708,#819,.T.);
#548=EDGE_CURVE('',#694,#709,#30,.T.);
#549=EDGE_CURVE('',#710,#693,#31,.F.);
#550=EDGE_CURVE('',#711,#710,#820,.T.);
#551=EDGE_CURVE('',#690,#711,#32,.T.);
#552=EDGE_CURVE('',#712,#689,#33,.F.);
#553=EDGE_CURVE('',#713,#712,#821,.T.);
#554=EDGE_CURVE('',#686,#713,#34,.T.);
#555=EDGE_CURVE('',#714,#685,#35,.F.);
#556=EDGE_CURVE('',#715,#714,#822,.T.);
#557=EDGE_CURVE('',#682,#715,#36,.T.);
#558=EDGE_CURVE('',#716,#681,#37,.F.);
#559=EDGE_CURVE('',#707,#716,#823,.T.);
#560=EDGE_CURVE('',#717,#717,#824,.T.);
#561=EDGE_CURVE('',#718,#719,#825,.T.);
#562=EDGE_CURVE('',#684,#718,#38,.T.);
#563=EDGE_CURVE('',#719,#683,#39,.F.);
#564=EDGE_CURVE('',#720,#721,#40,.T.);
#565=EDGE_CURVE('',#722,#721,#826,.T.);
#566=EDGE_CURVE('',#723,#722,#41,.T.);
#567=EDGE_CURVE('',#718,#723,#827,.T.);
#568=EDGE_CURVE('',#720,#719,#828,.T.);
#569=EDGE_CURVE('',#724,#725,#829,.T.);
#570=EDGE_CURVE('',#722,#724,#42,.T.);
#571=EDGE_CURVE('',#721,#725,#43,.T.);
#572=EDGE_CURVE('',#726,#727,#830,.T.);
#573=EDGE_CURVE('',#728,#726,#831,.T.);
#574=EDGE_CURVE('',#724,#728,#44,.T.);
#575=EDGE_CURVE('',#725,#729,#45,.T.);
#576=EDGE_CURVE('',#727,#729,#832,.T.);
#577=EDGE_CURVE('',#730,#731,#833,.F.);
#578=EDGE_CURVE('',#726,#730,#46,.F.);
#579=EDGE_CURVE('',#731,#727,#47,.T.);
#580=EDGE_CURVE('',#723,#728,#48,.F.);
#581=EDGE_CURVE('',#729,#720,#49,.F.);
#582=EDGE_CURVE('',#730,#714,#18,.F.);
#583=EDGE_CURVE('',#731,#715,#19,.F.);
#584=EDGE_CURVE('',#732,#733,#834,.T.);
#585=EDGE_CURVE('',#688,#732,#50,.T.);
#586=EDGE_CURVE('',#733,#687,#51,.F.);
#587=EDGE_CURVE('',#734,#735,#52,.T.);
#588=EDGE_CURVE('',#736,#735,#835,.T.);
#589=EDGE_CURVE('',#737,#736,#53,.T.);
#590=EDGE_CURVE('',#732,#737,#836,.T.);
#591=EDGE_CURVE('',#734,#733,#837,.T.);
#592=EDGE_CURVE('',#738,#739,#838,.T.);
#593=EDGE_CURVE('',#736,#738,#54,.T.);
#594=EDGE_CURVE('',#735,#739,#55,.T.);
#595=EDGE_CURVE('',#740,#741,#839,.T.);
#596=EDGE_CURVE('',#742,#740,#840,.T.);
#597=EDGE_CURVE('',#738,#742,#56,.T.);
#598=EDGE_CURVE('',#739,#743,#57,.T.);
#599=EDGE_CURVE('',#741,#743,#841,.T.);
#600=EDGE_CURVE('',#744,#745,#842,.F.);
#601=EDGE_CURVE('',#740,#744,#58,.F.);
#602=EDGE_CURVE('',#745,#741,#59,.T.);
#603=EDGE_CURVE('',#737,#742,#60,.F.);
#604=EDGE_CURVE('',#743,#734,#61,.F.);
#605=EDGE_CURVE('',#744,#712,#20,.F.);
#606=EDGE_CURVE('',#745,#713,#21,.F.);
#607=EDGE_CURVE('',#746,#747,#843,.T.);
#608=EDGE_CURVE('',#692,#746,#62,.T.);
#609=EDGE_CURVE('',#747,#691,#63,.F.);
#610=EDGE_CURVE('',#748,#749,#64,.T.);
#611=EDGE_CURVE('',#750,#749,#844,.T.);
#612=EDGE_CURVE('',#751,#750,#65,.T.);
#613=EDGE_CURVE('',#746,#751,#845,.T.);
#614=EDGE_CURVE('',#748,#747,#846,.T.);
#615=EDGE_CURVE('',#752,#753,#847,.T.);
#616=EDGE_CURVE('',#750,#752,#66,.T.);
#617=EDGE_CURVE('',#749,#753,#67,.T.);
#618=EDGE_CURVE('',#754,#755,#848,.T.);
#619=EDGE_CURVE('',#756,#754,#849,.T.);
#620=EDGE_CURVE('',#752,#756,#68,.T.);
#621=EDGE_CURVE('',#753,#757,#69,.T.);
#622=EDGE_CURVE('',#755,#757,#850,.T.);
#623=EDGE_CURVE('',#758,#759,#851,.F.);
#624=EDGE_CURVE('',#754,#758,#70,.F.);
#625=EDGE_CURVE('',#759,#755,#71,.T.);
#626=EDGE_CURVE('',#751,#756,#72,.F.);
#627=EDGE_CURVE('',#757,#748,#73,.F.);
#628=EDGE_CURVE('',#758,#710,#22,.F.);
#629=EDGE_CURVE('',#759,#711,#23,.F.);
#630=EDGE_CURVE('',#760,#761,#852,.T.);
#631=EDGE_CURVE('',#696,#760,#74,.T.);
#632=EDGE_CURVE('',#761,#695,#75,.F.);
#633=EDGE_CURVE('',#762,#763,#76,.T.);
#634=EDGE_CURVE('',#764,#763,#853,.T.);
#635=EDGE_CURVE('',#765,#764,#77,.T.);
#636=EDGE_CURVE('',#760,#765,#854,.T.);
#637=EDGE_CURVE('',#762,#761,#855,.T.);
#638=EDGE_CURVE('',#766,#767,#856,.T.);
#639=EDGE_CURVE('',#764,#766,#78,.T.);
#640=EDGE_CURVE('',#763,#767,#79,.T.);
#641=EDGE_CURVE('',#768,#769,#857,.T.);
#642=EDGE_CURVE('',#770,#768,#858,.T.);
#643=EDGE_CURVE('',#766,#770,#80,.T.);
#644=EDGE_CURVE('',#767,#771,#81,.T.);
#645=EDGE_CURVE('',#769,#771,#859,.T.);
#646=EDGE_CURVE('',#772,#773,#860,.F.);
#647=EDGE_CURVE('',#768,#772,#82,.F.);
#648=EDGE_CURVE('',#773,#769,#83,.T.);
#649=EDGE_CURVE('',#765,#770,#84,.F.);
#650=EDGE_CURVE('',#771,#762,#85,.F.);
#651=EDGE_CURVE('',#772,#708,#24,.F.);
#652=EDGE_CURVE('',#773,#709,#25,.F.);
#653=EDGE_CURVE('',#774,#775,#861,.T.);
#654=EDGE_CURVE('',#680,#774,#86,.T.);
#655=EDGE_CURVE('',#775,#678,#87,.F.);
#656=EDGE_CURVE('',#776,#777,#88,.T.);
#657=EDGE_CURVE('',#778,#777,#862,.T.);
#658=EDGE_CURVE('',#779,#778,#89,.T.);
#659=EDGE_CURVE('',#774,#779,#863,.T.);
#660=EDGE_CURVE('',#776,#775,#864,.T.);
#661=EDGE_CURVE('',#780,#781,#865,.T.);
#662=EDGE_CURVE('',#778,#780,#90,.T.);
#663=EDGE_CURVE('',#777,#781,#91,.T.);
#664=EDGE_CURVE('',#782,#783,#866,.T.);
#665=EDGE_CURVE('',#784,#782,#867,.T.);
#666=EDGE_CURVE('',#780,#784,#92,.T.);
#667=EDGE_CURVE('',#781,#785,#93,.T.);
#668=EDGE_CURVE('',#783,#785,#868,.T.);
#669=EDGE_CURVE('',#786,#787,#869,.F.);
#670=EDGE_CURVE('',#782,#786,#94,.F.);
#671=EDGE_CURVE('',#787,#783,#95,.T.);
#672=EDGE_CURVE('',#779,#784,#96,.F.);
#673=EDGE_CURVE('',#785,#776,#97,.F.);
#674=EDGE_CURVE('',#786,#716,#26,.F.);
#675=EDGE_CURVE('',#787,#707,#27,.F.);
#676=VERTEX_POINT('',#1623);
#677=VERTEX_POINT('',#1625);
#678=VERTEX_POINT('',#1628);
#679=VERTEX_POINT('',#1629);
#680=VERTEX_POINT('',#1631);
#681=VERTEX_POINT('',#1633);
#682=VERTEX_POINT('',#1635);
#683=VERTEX_POINT('',#1637);
#684=VERTEX_POINT('',#1639);
#685=VERTEX_POINT('',#1641);
#686=VERTEX_POINT('',#1643);
#687=VERTEX_POINT('',#1645);
#688=VERTEX_POINT('',#1647);
#689=VERTEX_POINT('',#1649);
#690=VERTEX_POINT('',#1651);
#691=VERTEX_POINT('',#1653);
#692=VERTEX_POINT('',#1655);
#693=VERTEX_POINT('',#1657);
#694=VERTEX_POINT('',#1659);
#695=VERTEX_POINT('',#1661);
#696=VERTEX_POINT('',#1663);
#697=VERTEX_POINT('',#1665);
#698=VERTEX_POINT('',#1668);
#699=VERTEX_POINT('',#1670);
#700=VERTEX_POINT('',#1672);
#701=VERTEX_POINT('',#1674);
#702=VERTEX_POINT('',#1677);
#703=VERTEX_POINT('',#1680);
#704=VERTEX_POINT('',#1683);
#705=VERTEX_POINT('',#1686);
#706=VERTEX_POINT('',#1689);
#707=VERTEX_POINT('',#1691);
#708=VERTEX_POINT('',#1693);
#709=VERTEX_POINT('',#1695);
#710=VERTEX_POINT('',#1698);
#711=VERTEX_POINT('',#1700);
#712=VERTEX_POINT('',#1703);
#713=VERTEX_POINT('',#1705);
#714=VERTEX_POINT('',#1708);
#715=VERTEX_POINT('',#1710);
#716=VERTEX_POINT('',#1713);
#717=VERTEX_POINT('',#1717);
#718=VERTEX_POINT('',#1720);
#719=VERTEX_POINT('',#1721);
#720=VERTEX_POINT('',#1726);
#721=VERTEX_POINT('',#1727);
#722=VERTEX_POINT('',#1729);
#723=VERTEX_POINT('',#1731);
#724=VERTEX_POINT('',#1736);
#725=VERTEX_POINT('',#1737);
#726=VERTEX_POINT('',#1742);
#727=VERTEX_POINT('',#1743);
#728=VERTEX_POINT('',#1745);
#729=VERTEX_POINT('',#1748);
#730=VERTEX_POINT('',#1752);
#731=VERTEX_POINT('',#1753);
#732=VERTEX_POINT('',#1779);
#733=VERTEX_POINT('',#1780);
#734=VERTEX_POINT('',#1785);
#735=VERTEX_POINT('',#1786);
#736=VERTEX_POINT('',#1788);
#737=VERTEX_POINT('',#1790);
#738=VERTEX_POINT('',#1795);
#739=VERTEX_POINT('',#1796);
#740=VERTEX_POINT('',#1801);
#741=VERTEX_POINT('',#1802);
#742=VERTEX_POINT('',#1804);
#743=VERTEX_POINT('',#1807);
#744=VERTEX_POINT('',#1811);
#745=VERTEX_POINT('',#1812);
#746=VERTEX_POINT('',#1838);
#747=VERTEX_POINT('',#1839);
#748=VERTEX_POINT('',#1844);
#749=VERTEX_POINT('',#1845);
#750=VERTEX_POINT('',#1847);
#751=VERTEX_POINT('',#1849);
#752=VERTEX_POINT('',#1854);
#753=VERTEX_POINT('',#1855);
#754=VERTEX_POINT('',#1860);
#755=VERTEX_POINT('',#1861);
#756=VERTEX_POINT('',#1863);
#757=VERTEX_POINT('',#1866);
#758=VERTEX_POINT('',#1870);
#759=VERTEX_POINT('',#1871);
#760=VERTEX_POINT('',#1897);
#761=VERTEX_POINT('',#1898);
#762=VERTEX_POINT('',#1903);
#763=VERTEX_POINT('',#1904);
#764=VERTEX_POINT('',#1906);
#765=VERTEX_POINT('',#1908);
#766=VERTEX_POINT('',#1913);
#767=VERTEX_POINT('',#1914);
#768=VERTEX_POINT('',#1919);
#769=VERTEX_POINT('',#1920);
#770=VERTEX_POINT('',#1922);
#771=VERTEX_POINT('',#1925);
#772=VERTEX_POINT('',#1929);
#773=VERTEX_POINT('',#1930);
#774=VERTEX_POINT('',#1956);
#775=VERTEX_POINT('',#1957);
#776=VERTEX_POINT('',#1962);
#777=VERTEX_POINT('',#1963);
#778=VERTEX_POINT('',#1965);
#779=VERTEX_POINT('',#1967);
#780=VERTEX_POINT('',#1972);
#781=VERTEX_POINT('',#1973);
#782=VERTEX_POINT('',#1978);
#783=VERTEX_POINT('',#1979);
#784=VERTEX_POINT('',#1981);
#785=VERTEX_POINT('',#1984);
#786=VERTEX_POINT('',#1988);
#787=VERTEX_POINT('',#1989);
#788=CIRCLE('',#1126,0.01025);
#789=CIRCLE('',#1127,0.01025);
#790=CIRCLE('',#1129,0.005);
#791=CIRCLE('',#1130,0.044);
#792=CIRCLE('',#1131,0.005);
#793=CIRCLE('',#1132,0.043);
#794=CIRCLE('',#1133,0.005);
#795=CIRCLE('',#1134,0.044);
#796=CIRCLE('',#1135,0.005);
#797=CIRCLE('',#1136,0.043);
#798=CIRCLE('',#1137,0.005);
#799=CIRCLE('',#1138,0.044);
#800=CIRCLE('',#1139,0.005);
#801=CIRCLE('',#1140,0.043);
#802=CIRCLE('',#1141,0.005);
#803=CIRCLE('',#1142,0.044);
#804=CIRCLE('',#1143,0.005);
#805=CIRCLE('',#1144,0.043);
#806=CIRCLE('',#1145,0.005);
#807=CIRCLE('',#1146,0.044);
#808=CIRCLE('',#1147,0.005);
#809=CIRCLE('',#1148,0.043);
#810=CIRCLE('',#1149,0.0016);
#811=CIRCLE('',#1150,0.0016);
#812=CIRCLE('',#1151,0.0016);
#813=CIRCLE('',#1152,0.0016);
#814=CIRCLE('',#1154,0.0016);
#815=CIRCLE('',#1156,0.0016);
#816=CIRCLE('',#1158,0.0016);
#817=CIRCLE('',#1160,0.0016);
#818=CIRCLE('',#1162,0.043);
#819=CIRCLE('',#1163,0.043);
#820=CIRCLE('',#1164,0.043);
#821=CIRCLE('',#1165,0.043);
#822=CIRCLE('',#1166,0.043);
#823=CIRCLE('',#1167,0.043);
#824=CIRCLE('',#1169,0.038);
#825=CIRCLE('',#1171,0.044);
#826=CIRCLE('',#1173,0.0385);
#827=CIRCLE('',#1174,0.005);
#828=CIRCLE('',#1175,0.005);
#829=CIRCLE('',#1177,0.0385);
#830=CIRCLE('',#1179,0.0475);
#831=CIRCLE('',#1180,0.005);
#832=CIRCLE('',#1181,0.005);
#833=CIRCLE('',#1183,0.0475);
#834=CIRCLE('',#1190,0.044);
#835=CIRCLE('',#1192,0.0385);
#836=CIRCLE('',#1193,0.005);
#837=CIRCLE('',#1194,0.005);
#838=CIRCLE('',#1196,0.0385);
#839=CIRCLE('',#1198,0.0475);
#840=CIRCLE('',#1199,0.005);
#841=CIRCLE('',#1200,0.005);
#842=CIRCLE('',#1202,0.0475);
#843=CIRCLE('',#1209,0.044);
#844=CIRCLE('',#1211,0.0385);
#845=CIRCLE('',#1212,0.005);
#846=CIRCLE('',#1213,0.005);
#847=CIRCLE('',#1215,0.0385);
#848=CIRCLE('',#1217,0.0475);
#849=CIRCLE('',#1218,0.005);
#850=CIRCLE('',#1219,0.005);
#851=CIRCLE('',#1221,0.0475);
#852=CIRCLE('',#1228,0.044);
#853=CIRCLE('',#1230,0.0385);
#854=CIRCLE('',#1231,0.005);
#855=CIRCLE('',#1232,0.005);
#856=CIRCLE('',#1234,0.0385);
#857=CIRCLE('',#1236,0.0475);
#858=CIRCLE('',#1237,0.005);
#859=CIRCLE('',#1238,0.005);
#860=CIRCLE('',#1240,0.0475);
#861=CIRCLE('',#1247,0.044);
#862=CIRCLE('',#1249,0.0385);
#863=CIRCLE('',#1250,0.005);
#864=CIRCLE('',#1251,0.005);
#865=CIRCLE('',#1253,0.0385);
#866=CIRCLE('',#1255,0.0475);
#867=CIRCLE('',#1256,0.005);
#868=CIRCLE('',#1257,0.005);
#869=CIRCLE('',#1259,0.0475);
#870=EDGE_LOOP('',(#190));
#871=EDGE_LOOP('',(#191));
#872=EDGE_LOOP('',(#192,#193,#194,#195,#196,#197,#198,#199,#200,#201,#202,
#203,#204,#205,#206,#207,#208,#209,#210,#211));
#873=EDGE_LOOP('',(#212));
#874=EDGE_LOOP('',(#213));
#875=EDGE_LOOP('',(#214));
#876=EDGE_LOOP('',(#215));
#877=EDGE_LOOP('',(#216));
#878=EDGE_LOOP('',(#217));
#879=EDGE_LOOP('',(#218));
#880=EDGE_LOOP('',(#219));
#881=EDGE_LOOP('',(#220));
#882=EDGE_LOOP('',(#221));
#883=EDGE_LOOP('',(#222));
#884=EDGE_LOOP('',(#223));
#885=EDGE_LOOP('',(#224));
#886=EDGE_LOOP('',(#225));
#887=EDGE_LOOP('',(#226,#227,#228,#229,#230,#231,#232,#233,#234,#235,#236,
#237,#238,#239,#240,#241,#242,#243,#244,#245));
#888=EDGE_LOOP('',(#246));
#889=EDGE_LOOP('',(#247));
#890=EDGE_LOOP('',(#248));
#891=EDGE_LOOP('',(#249));
#892=EDGE_LOOP('',(#250));
#893=EDGE_LOOP('',(#251));
#894=EDGE_LOOP('',(#252,#253,#254,#255));
#895=EDGE_LOOP('',(#256,#257,#258,#259,#260,#261));
#896=EDGE_LOOP('',(#262,#263,#264,#265));
#897=EDGE_LOOP('',(#266,#267,#268,#269,#270,#271));
#898=EDGE_LOOP('',(#272,#273,#274,#275));
#899=EDGE_LOOP('',(#276,#277,#278,#279));
#900=EDGE_LOOP('',(#280,#281,#282,#283));
#901=EDGE_LOOP('',(#284,#285,#286,#287,#288,#289,#290,#291));
#902=EDGE_LOOP('',(#292,#293,#294,#295));
#903=EDGE_LOOP('',(#296,#297,#298,#299,#300,#301,#302,#303));
#904=EDGE_LOOP('',(#304,#305,#306,#307));
#905=EDGE_LOOP('',(#308,#309,#310,#311,#312,#313));
#906=EDGE_LOOP('',(#314,#315,#316,#317));
#907=EDGE_LOOP('',(#318,#319,#320,#321,#322,#323));
#908=EDGE_LOOP('',(#324,#325,#326,#327));
#909=EDGE_LOOP('',(#328,#329,#330,#331));
#910=EDGE_LOOP('',(#332,#333,#334,#335));
#911=EDGE_LOOP('',(#336,#337,#338,#339,#340,#341,#342,#343));
#912=EDGE_LOOP('',(#344,#345,#346,#347));
#913=EDGE_LOOP('',(#348,#349,#350,#351,#352,#353,#354,#355));
#914=EDGE_LOOP('',(#356,#357,#358,#359));
#915=EDGE_LOOP('',(#360,#361,#362,#363,#364,#365));
#916=EDGE_LOOP('',(#366,#367,#368,#369));
#917=EDGE_LOOP('',(#370,#371,#372,#373,#374,#375));
#918=EDGE_LOOP('',(#376,#377,#378,#379));
#919=EDGE_LOOP('',(#380,#381,#382,#383));
#920=EDGE_LOOP('',(#384,#385,#386,#387));
#921=EDGE_LOOP('',(#388,#389,#390,#391,#392,#393,#394,#395));
#922=EDGE_LOOP('',(#396,#397,#398,#399));
#923=EDGE_LOOP('',(#400,#401,#402,#403,#404,#405,#406,#407));
#924=EDGE_LOOP('',(#408,#409,#410,#411));
#925=EDGE_LOOP('',(#412,#413,#414,#415,#416,#417));
#926=EDGE_LOOP('',(#418,#419,#420,#421));
#927=EDGE_LOOP('',(#422,#423,#424,#425,#426,#427));
#928=EDGE_LOOP('',(#428,#429,#430,#431));
#929=EDGE_LOOP('',(#432,#433,#434,#435));
#930=EDGE_LOOP('',(#436,#437,#438,#439));
#931=EDGE_LOOP('',(#440,#441,#442,#443,#444,#445,#446,#447));
#932=EDGE_LOOP('',(#448,#449,#450,#451));
#933=EDGE_LOOP('',(#452,#453,#454,#455,#456,#457,#458,#459));
#934=EDGE_LOOP('',(#460,#461,#462,#463));
#935=EDGE_LOOP('',(#464,#465,#466,#467,#468,#469));
#936=EDGE_LOOP('',(#470,#471,#472,#473));
#937=EDGE_LOOP('',(#474,#475,#476,#477,#478,#479));
#938=EDGE_LOOP('',(#480,#481,#482,#483));
#939=EDGE_LOOP('',(#484,#485,#486,#487));
#940=EDGE_LOOP('',(#488,#489,#490,#491));
#941=EDGE_LOOP('',(#492,#493,#494,#495,#496,#497,#498,#499));
#942=EDGE_LOOP('',(#500,#501,#502,#503));
#943=EDGE_LOOP('',(#504,#505,#506,#507,#508,#509,#510,#511));
#944=EDGE_LOOP('',(#512));
#945=EDGE_LOOP('',(#513));
#946=FACE_BOUND('',#870,.T.);
#947=FACE_BOUND('',#871,.T.);
#948=FACE_BOUND('',#872,.T.);
#949=FACE_BOUND('',#873,.T.);
#950=FACE_BOUND('',#874,.T.);
#951=FACE_BOUND('',#875,.T.);
#952=FACE_BOUND('',#876,.T.);
#953=FACE_BOUND('',#877,.T.);
#954=FACE_BOUND('',#878,.T.);
#955=FACE_BOUND('',#879,.T.);
#956=FACE_BOUND('',#880,.T.);
#957=FACE_BOUND('',#881,.T.);
#958=FACE_BOUND('',#882,.T.);
#959=FACE_BOUND('',#883,.T.);
#960=FACE_BOUND('',#884,.T.);
#961=FACE_BOUND('',#885,.T.);
#962=FACE_BOUND('',#886,.T.);
#963=FACE_BOUND('',#887,.T.);
#964=FACE_BOUND('',#888,.T.);
#965=FACE_BOUND('',#889,.T.);
#966=FACE_BOUND('',#890,.T.);
#967=FACE_BOUND('',#891,.T.);
#968=FACE_BOUND('',#892,.T.);
#969=FACE_BOUND('',#893,.T.);
#970=FACE_BOUND('',#894,.T.);
#971=FACE_BOUND('',#895,.T.);
#972=FACE_BOUND('',#896,.T.);
#973=FACE_BOUND('',#897,.T.);
#974=FACE_BOUND('',#898,.T.);
#975=FACE_BOUND('',#899,.T.);
#976=FACE_BOUND('',#900,.T.);
#977=FACE_BOUND('',#901,.T.);
#978=FACE_BOUND('',#902,.T.);
#979=FACE_BOUND('',#903,.T.);
#980=FACE_BOUND('',#904,.T.);
#981=FACE_BOUND('',#905,.T.);
#982=FACE_BOUND('',#906,.T.);
#983=FACE_BOUND('',#907,.T.);
#984=FACE_BOUND('',#908,.T.);
#985=FACE_BOUND('',#909,.T.);
#986=FACE_BOUND('',#910,.T.);
#987=FACE_BOUND('',#911,.T.);
#988=FACE_BOUND('',#912,.T.);
#989=FACE_BOUND('',#913,.T.);
#990=FACE_BOUND('',#914,.T.);
#991=FACE_BOUND('',#915,.T.);
#992=FACE_BOUND('',#916,.T.);
#993=FACE_BOUND('',#917,.T.);
#994=FACE_BOUND('',#918,.T.);
#995=FACE_BOUND('',#919,.T.);
#996=FACE_BOUND('',#920,.T.);
#997=FACE_BOUND('',#921,.T.);
#998=FACE_BOUND('',#922,.T.);
#999=FACE_BOUND('',#923,.T.);
#1000=FACE_BOUND('',#924,.T.);
#1001=FACE_BOUND('',#925,.T.);
#1002=FACE_BOUND('',#926,.T.);
#1003=FACE_BOUND('',#927,.T.);
#1004=FACE_BOUND('',#928,.T.);
#1005=FACE_BOUND('',#929,.T.);
#1006=FACE_BOUND('',#930,.T.);
#1007=FACE_BOUND('',#931,.T.);
#1008=FACE_BOUND('',#932,.T.);
#1009=FACE_BOUND('',#933,.T.);
#1010=FACE_BOUND('',#934,.T.);
#1011=FACE_BOUND('',#935,.T.);
#1012=FACE_BOUND('',#936,.T.);
#1013=FACE_BOUND('',#937,.T.);
#1014=FACE_BOUND('',#938,.T.);
#1015=FACE_BOUND('',#939,.T.);
#1016=FACE_BOUND('',#940,.T.);
#1017=FACE_BOUND('',#941,.T.);
#1018=FACE_BOUND('',#942,.T.);
#1019=FACE_BOUND('',#943,.T.);
#1020=FACE_BOUND('',#944,.T.);
#1021=FACE_BOUND('',#945,.T.);
#1022=CYLINDRICAL_SURFACE('',#1125,0.01025);
#1023=CYLINDRICAL_SURFACE('',#1153,0.0016);
#1024=CYLINDRICAL_SURFACE('',#1155,0.0016);
#1025=CYLINDRICAL_SURFACE('',#1157,0.0016);
#1026=CYLINDRICAL_SURFACE('',#1159,0.0016);
#1027=CYLINDRICAL_SURFACE('',#1161,0.043);
#1028=CYLINDRICAL_SURFACE('',#1170,0.044);
#1029=CYLINDRICAL_SURFACE('',#1176,0.0385);
#1030=CYLINDRICAL_SURFACE('',#1182,0.0475);
#1031=CYLINDRICAL_SURFACE('',#1186,0.005);
#1032=CYLINDRICAL_SURFACE('',#1188,0.005);
#1033=CYLINDRICAL_SURFACE('',#1189,0.044);
#1034=CYLINDRICAL_SURFACE('',#1195,0.0385);
#1035=CYLINDRICAL_SURFACE('',#1201,0.0475);
#1036=CYLINDRICAL_SURFACE('',#1205,0.005);
#1037=CYLINDRICAL_SURFACE('',#1207,0.005);
#1038=CYLINDRICAL_SURFACE('',#1208,0.044);
#1039=CYLINDRICAL_SURFACE('',#1214,0.0385);
#1040=CYLINDRICAL_SURFACE('',#1220,0.0475);
#1041=CYLINDRICAL_SURFACE('',#1224,0.005);
#1042=CYLINDRICAL_SURFACE('',#1226,0.005);
#1043=CYLINDRICAL_SURFACE('',#1227,0.044);
#1044=CYLINDRICAL_SURFACE('',#1233,0.0385);
#1045=CYLINDRICAL_SURFACE('',#1239,0.0475);
#1046=CYLINDRICAL_SURFACE('',#1243,0.005);
#1047=CYLINDRICAL_SURFACE('',#1245,0.005);
#1048=CYLINDRICAL_SURFACE('',#1246,0.044);
#1049=CYLINDRICAL_SURFACE('',#1252,0.0385);
#1050=CYLINDRICAL_SURFACE('',#1258,0.0475);
#1051=CYLINDRICAL_SURFACE('',#1262,0.005);
#1052=CYLINDRICAL_SURFACE('',#1264,0.005);
#1053=ADVANCED_FACE('',(#946,#947),#1022,.F.);
#1054=ADVANCED_FACE('',(#948,#949,#950,#951,#952,#953),#168,.F.);
#1055=ADVANCED_FACE('',(#954,#955),#1023,.F.);
#1056=ADVANCED_FACE('',(#956,#957),#1024,.F.);
#1057=ADVANCED_FACE('',(#958,#959),#1025,.F.);
#1058=ADVANCED_FACE('',(#960,#961),#1026,.F.);
#1059=ADVANCED_FACE('',(#962,#963),#1027,.T.);
#1060=ADVANCED_FACE('',(#964,#965,#966,#967,#968,#969),#169,.T.);
#1061=ADVANCED_FACE('',(#970),#1028,.F.);
#1062=ADVANCED_FACE('',(#971),#170,.T.);
#1063=ADVANCED_FACE('',(#972),#1029,.F.);
#1064=ADVANCED_FACE('',(#973),#171,.T.);
#1065=ADVANCED_FACE('',(#974),#1030,.T.);
#1066=ADVANCED_FACE('',(#975),#172,.F.);
#1067=ADVANCED_FACE('',(#976),#173,.T.);
#1068=ADVANCED_FACE('',(#977),#1031,.T.);
#1069=ADVANCED_FACE('',(#978),#12,.T.);
#1070=ADVANCED_FACE('',(#979),#1032,.T.);
#1071=ADVANCED_FACE('',(#980),#1033,.F.);
#1072=ADVANCED_FACE('',(#981),#174,.T.);
#1073=ADVANCED_FACE('',(#982),#1034,.F.);
#1074=ADVANCED_FACE('',(#983),#175,.T.);
#1075=ADVANCED_FACE('',(#984),#1035,.T.);
#1076=ADVANCED_FACE('',(#985),#176,.F.);
#1077=ADVANCED_FACE('',(#986),#177,.T.);
#1078=ADVANCED_FACE('',(#987),#1036,.T.);
#1079=ADVANCED_FACE('',(#988),#13,.T.);
#1080=ADVANCED_FACE('',(#989),#1037,.T.);
#1081=ADVANCED_FACE('',(#990),#1038,.F.);
#1082=ADVANCED_FACE('',(#991),#178,.T.);
#1083=ADVANCED_FACE('',(#992),#1039,.F.);
#1084=ADVANCED_FACE('',(#993),#179,.T.);
#1085=ADVANCED_FACE('',(#994),#1040,.T.);
#1086=ADVANCED_FACE('',(#995),#180,.F.);
#1087=ADVANCED_FACE('',(#996),#181,.T.);
#1088=ADVANCED_FACE('',(#997),#1041,.T.);
#1089=ADVANCED_FACE('',(#998),#14,.T.);
#1090=ADVANCED_FACE('',(#999),#1042,.T.);
#1091=ADVANCED_FACE('',(#1000),#1043,.F.);
#1092=ADVANCED_FACE('',(#1001),#182,.T.);
#1093=ADVANCED_FACE('',(#1002),#1044,.F.);
#1094=ADVANCED_FACE('',(#1003),#183,.T.);
#1095=ADVANCED_FACE('',(#1004),#1045,.T.);
#1096=ADVANCED_FACE('',(#1005),#184,.F.);
#1097=ADVANCED_FACE('',(#1006),#185,.T.);
#1098=ADVANCED_FACE('',(#1007),#1046,.T.);
#1099=ADVANCED_FACE('',(#1008),#15,.T.);
#1100=ADVANCED_FACE('',(#1009),#1047,.T.);
#1101=ADVANCED_FACE('',(#1010),#1048,.F.);
#1102=ADVANCED_FACE('',(#1011),#186,.T.);
#1103=ADVANCED_FACE('',(#1012),#1049,.F.);
#1104=ADVANCED_FACE('',(#1013),#187,.T.);
#1105=ADVANCED_FACE('',(#1014),#1050,.T.);
#1106=ADVANCED_FACE('',(#1015),#188,.F.);
#1107=ADVANCED_FACE('',(#1016),#189,.T.);
#1108=ADVANCED_FACE('',(#1017),#1051,.T.);
#1109=ADVANCED_FACE('',(#1018),#16,.T.);
#1110=ADVANCED_FACE('',(#1019),#1052,.T.);
#1111=ADVANCED_FACE('',(#1020,#1021),#17,.T.);
#1112=CLOSED_SHELL('',(#1053,#1054,#1055,#1056,#1057,#1058,#1059,#1060,
#1061,#1062,#1063,#1064,#1065,#1066,#1067,#1068,#1069,#1070,#1071,#1072,
#1073,#1074,#1075,#1076,#1077,#1078,#1079,#1080,#1081,#1082,#1083,#1084,
#1085,#1086,#1087,#1088,#1089,#1090,#1091,#1092,#1093,#1094,#1095,#1096,
#1097,#1098,#1099,#1100,#1101,#1102,#1103,#1104,#1105,#1106,#1107,#1108,
#1109,#1110,#1111));
#1113=STYLED_ITEM('',(#1114),#1121);
#1114=PRESENTATION_STYLE_ASSIGNMENT((#1115));
#1115=SURFACE_STYLE_USAGE(.BOTH.,#1116);
#1116=SURFACE_SIDE_STYLE('',(#1117));
#1117=SURFACE_STYLE_FILL_AREA(#1118);
#1118=FILL_AREA_STYLE('',(#1119));
#1119=FILL_AREA_STYLE_COLOUR('',#1120);
#1120=COLOUR_RGB('',0.917647058823529,0.917647058823529,0.917647058823529);
#1121=MANIFOLD_SOLID_BREP('Hip Support Roll Giver',#1112);
#1122=SHAPE_DEFINITION_REPRESENTATION(#2020,#1123);
#1123=SHAPE_REPRESENTATION('Hip Support Roll Giver',(#1124),#2015);
#1124=AXIS2_PLACEMENT_3D('',#1620,#1266,#1267);
#1125=AXIS2_PLACEMENT_3D('',#1621,#1268,#1269);
#1126=AXIS2_PLACEMENT_3D('',#1622,#1270,#1271);
#1127=AXIS2_PLACEMENT_3D('',#1624,#1272,#1273);
#1128=AXIS2_PLACEMENT_3D('',#1626,#1274,#1275);
#1129=AXIS2_PLACEMENT_3D('',#1627,#1276,#1277);
#1130=AXIS2_PLACEMENT_3D('',#1630,#1278,#1279);
#1131=AXIS2_PLACEMENT_3D('',#1632,#1280,#1281);
#1132=AXIS2_PLACEMENT_3D('',#1634,#1282,#1283);
#1133=AXIS2_PLACEMENT_3D('',#1636,#1284,#1285);
#1134=AXIS2_PLACEMENT_3D('',#1638,#1286,#1287);
#1135=AXIS2_PLACEMENT_3D('',#1640,#1288,#1289);
#1136=AXIS2_PLACEMENT_3D('',#1642,#1290,#1291);
#1137=AXIS2_PLACEMENT_3D('',#1644,#1292,#1293);
#1138=AXIS2_PLACEMENT_3D('',#1646,#1294,#1295);
#1139=AXIS2_PLACEMENT_3D('',#1648,#1296,#1297);
#1140=AXIS2_PLACEMENT_3D('',#1650,#1298,#1299);
#1141=AXIS2_PLACEMENT_3D('',#1652,#1300,#1301);
#1142=AXIS2_PLACEMENT_3D('',#1654,#1302,#1303);
#1143=AXIS2_PLACEMENT_3D('',#1656,#1304,#1305);
#1144=AXIS2_PLACEMENT_3D('',#1658,#1306,#1307);
#1145=AXIS2_PLACEMENT_3D('',#1660,#1308,#1309);
#1146=AXIS2_PLACEMENT_3D('',#1662,#1310,#1311);
#1147=AXIS2_PLACEMENT_3D('',#1664,#1312,#1313);
#1148=AXIS2_PLACEMENT_3D('',#1666,#1314,#1315);
#1149=AXIS2_PLACEMENT_3D('',#1667,#1316,#1317);
#1150=AXIS2_PLACEMENT_3D('',#1669,#1318,#1319);
#1151=AXIS2_PLACEMENT_3D('',#1671,#1320,#1321);
#1152=AXIS2_PLACEMENT_3D('',#1673,#1322,#1323);
#1153=AXIS2_PLACEMENT_3D('',#1675,#1324,#1325);
#1154=AXIS2_PLACEMENT_3D('',#1676,#1326,#1327);
#1155=AXIS2_PLACEMENT_3D('',#1678,#1328,#1329);
#1156=AXIS2_PLACEMENT_3D('',#1679,#1330,#1331);
#1157=AXIS2_PLACEMENT_3D('',#1681,#1332,#1333);
#1158=AXIS2_PLACEMENT_3D('',#1682,#1334,#1335);
#1159=AXIS2_PLACEMENT_3D('',#1684,#1336,#1337);
#1160=AXIS2_PLACEMENT_3D('',#1685,#1338,#1339);
#1161=AXIS2_PLACEMENT_3D('',#1687,#1340,#1341);
#1162=AXIS2_PLACEMENT_3D('',#1688,#1342,#1343);
#1163=AXIS2_PLACEMENT_3D('',#1694,#1346,#1347);
#1164=AXIS2_PLACEMENT_3D('',#1699,#1350,#1351);
#1165=AXIS2_PLACEMENT_3D('',#1704,#1354,#1355);
#1166=AXIS2_PLACEMENT_3D('',#1709,#1358,#1359);
#1167=AXIS2_PLACEMENT_3D('',#1714,#1362,#1363);
#1168=AXIS2_PLACEMENT_3D('',#1715,#1364,#1365);
#1169=AXIS2_PLACEMENT_3D('',#1716,#1366,#1367);
#1170=AXIS2_PLACEMENT_3D('',#1718,#1368,#1369);
#1171=AXIS2_PLACEMENT_3D('',#1719,#1370,#1371);
#1172=AXIS2_PLACEMENT_3D('',#1724,#1374,#1375);
#1173=AXIS2_PLACEMENT_3D('',#1728,#1377,#1378);
#1174=AXIS2_PLACEMENT_3D('',#1732,#1380,#1381);
#1175=AXIS2_PLACEMENT_3D('',#1733,#1382,#1383);
#1176=AXIS2_PLACEMENT_3D('',#1734,#1384,#1385);
#1177=AXIS2_PLACEMENT_3D('',#1735,#1386,#1387);
#1178=AXIS2_PLACEMENT_3D('',#1740,#1390,#1391);
#1179=AXIS2_PLACEMENT_3D('',#1741,#1392,#1393);
#1180=AXIS2_PLACEMENT_3D('',#1744,#1394,#1395);
#1181=AXIS2_PLACEMENT_3D('',#1749,#1398,#1399);
#1182=AXIS2_PLACEMENT_3D('',#1750,#1400,#1401);
#1183=AXIS2_PLACEMENT_3D('',#1751,#1402,#1403);
#1184=AXIS2_PLACEMENT_3D('',#1756,#1406,#1407);
#1185=AXIS2_PLACEMENT_3D('',#1758,#1409,#1410);
#1186=AXIS2_PLACEMENT_3D('',#1760,#1412,#1413);
#1187=AXIS2_PLACEMENT_3D('',#1768,#1414,#1415);
#1188=AXIS2_PLACEMENT_3D('',#1776,#1416,#1417);
#1189=AXIS2_PLACEMENT_3D('',#1777,#1418,#1419);
#1190=AXIS2_PLACEMENT_3D('',#1778,#1420,#1421);
#1191=AXIS2_PLACEMENT_3D('',#1783,#1424,#1425);
#1192=AXIS2_PLACEMENT_3D('',#1787,#1427,#1428);
#1193=AXIS2_PLACEMENT_3D('',#1791,#1430,#1431);
#1194=AXIS2_PLACEMENT_3D('',#1792,#1432,#1433);
#1195=AXIS2_PLACEMENT_3D('',#1793,#1434,#1435);
#1196=AXIS2_PLACEMENT_3D('',#1794,#1436,#1437);
#1197=AXIS2_PLACEMENT_3D('',#1799,#1440,#1441);
#1198=AXIS2_PLACEMENT_3D('',#1800,#1442,#1443);
#1199=AXIS2_PLACEMENT_3D('',#1803,#1444,#1445);
#1200=AXIS2_PLACEMENT_3D('',#1808,#1448,#1449);
#1201=AXIS2_PLACEMENT_3D('',#1809,#1450,#1451);
#1202=AXIS2_PLACEMENT_3D('',#1810,#1452,#1453);
#1203=AXIS2_PLACEMENT_3D('',#1815,#1456,#1457);
#1204=AXIS2_PLACEMENT_3D('',#1817,#1459,#1460);
#1205=AXIS2_PLACEMENT_3D('',#1819,#1462,#1463);
#1206=AXIS2_PLACEMENT_3D('',#1827,#1464,#1465);
#1207=AXIS2_PLACEMENT_3D('',#1835,#1466,#1467);
#1208=AXIS2_PLACEMENT_3D('',#1836,#1468,#1469);
#1209=AXIS2_PLACEMENT_3D('',#1837,#1470,#1471);
#1210=AXIS2_PLACEMENT_3D('',#1842,#1474,#1475);
#1211=AXIS2_PLACEMENT_3D('',#1846,#1477,#1478);
#1212=AXIS2_PLACEMENT_3D('',#1850,#1480,#1481);
#1213=AXIS2_PLACEMENT_3D('',#1851,#1482,#1483);
#1214=AXIS2_PLACEMENT_3D('',#1852,#1484,#1485);
#1215=AXIS2_PLACEMENT_3D('',#1853,#1486,#1487);
#1216=AXIS2_PLACEMENT_3D('',#1858,#1490,#1491);
#1217=AXIS2_PLACEMENT_3D('',#1859,#1492,#1493);
#1218=AXIS2_PLACEMENT_3D('',#1862,#1494,#1495);
#1219=AXIS2_PLACEMENT_3D('',#1867,#1498,#1499);
#1220=AXIS2_PLACEMENT_3D('',#1868,#1500,#1501);
#1221=AXIS2_PLACEMENT_3D('',#1869,#1502,#1503);
#1222=AXIS2_PLACEMENT_3D('',#1874,#1506,#1507);
#1223=AXIS2_PLACEMENT_3D('',#1876,#1509,#1510);
#1224=AXIS2_PLACEMENT_3D('',#1878,#1512,#1513);
#1225=AXIS2_PLACEMENT_3D('',#1886,#1514,#1515);
#1226=AXIS2_PLACEMENT_3D('',#1894,#1516,#1517);
#1227=AXIS2_PLACEMENT_3D('',#1895,#1518,#1519);
#1228=AXIS2_PLACEMENT_3D('',#1896,#1520,#1521);
#1229=AXIS2_PLACEMENT_3D('',#1901,#1524,#1525);
#1230=AXIS2_PLACEMENT_3D('',#1905,#1527,#1528);
#1231=AXIS2_PLACEMENT_3D('',#1909,#1530,#1531);
#1232=AXIS2_PLACEMENT_3D('',#1910,#1532,#1533);
#1233=AXIS2_PLACEMENT_3D('',#1911,#1534,#1535);
#1234=AXIS2_PLACEMENT_3D('',#1912,#1536,#1537);
#1235=AXIS2_PLACEMENT_3D('',#1917,#1540,#1541);
#1236=AXIS2_PLACEMENT_3D('',#1918,#1542,#1543);
#1237=AXIS2_PLACEMENT_3D('',#1921,#1544,#1545);
#1238=AXIS2_PLACEMENT_3D('',#1926,#1548,#1549);
#1239=AXIS2_PLACEMENT_3D('',#1927,#1550,#1551);
#1240=AXIS2_PLACEMENT_3D('',#1928,#1552,#1553);
#1241=AXIS2_PLACEMENT_3D('',#1933,#1556,#1557);
#1242=AXIS2_PLACEMENT_3D('',#1935,#1559,#1560);
#1243=AXIS2_PLACEMENT_3D('',#1937,#1562,#1563);
#1244=AXIS2_PLACEMENT_3D('',#1945,#1564,#1565);
#1245=AXIS2_PLACEMENT_3D('',#1953,#1566,#1567);
#1246=AXIS2_PLACEMENT_3D('',#1954,#1568,#1569);
#1247=AXIS2_PLACEMENT_3D('',#1955,#1570,#1571);
#1248=AXIS2_PLACEMENT_3D('',#1960,#1574,#1575);
#1249=AXIS2_PLACEMENT_3D('',#1964,#1577,#1578);
#1250=AXIS2_PLACEMENT_3D('',#1968,#1580,#1581);
#1251=AXIS2_PLACEMENT_3D('',#1969,#1582,#1583);
#1252=AXIS2_PLACEMENT_3D('',#1970,#1584,#1585);
#1253=AXIS2_PLACEMENT_3D('',#1971,#1586,#1587);
#1254=AXIS2_PLACEMENT_3D('',#1976,#1590,#1591);
#1255=AXIS2_PLACEMENT_3D('',#1977,#1592,#1593);
#1256=AXIS2_PLACEMENT_3D('',#1980,#1594,#1595);
#1257=AXIS2_PLACEMENT_3D('',#1985,#1598,#1599);
#1258=AXIS2_PLACEMENT_3D('',#1986,#1600,#1601);
#1259=AXIS2_PLACEMENT_3D('',#1987,#1602,#1603);
#1260=AXIS2_PLACEMENT_3D('',#1992,#1606,#1607);
#1261=AXIS2_PLACEMENT_3D('',#1994,#1609,#1610);
#1262=AXIS2_PLACEMENT_3D('',#1996,#1612,#1613);
#1263=AXIS2_PLACEMENT_3D('',#2004,#1614,#1615);
#1264=AXIS2_PLACEMENT_3D('',#2012,#1616,#1617);
#1265=AXIS2_PLACEMENT_3D('',#2013,#1618,#1619);
#1266=DIRECTION('',(0.,0.,1.));
#1267=DIRECTION('',(1.,0.,0.));
#1268=DIRECTION('',(-1.,0.,0.));
#1269=DIRECTION('',(0.,0.,-1.));
#1270=DIRECTION('',(1.,0.,0.));
#1271=DIRECTION('',(0.,0.,-1.));
#1272=DIRECTION('',(-1.,0.,0.));
#1273=DIRECTION('',(0.,0.,1.));
#1274=DIRECTION('',(-1.,0.,0.));
#1275=DIRECTION('',(0.,1.,0.));
#1276=DIRECTION('',(1.,0.,0.));
#1277=DIRECTION('',(0.,0.,-1.));
#1278=DIRECTION('',(-1.,0.,-1.24580888572481E-16));
#1279=DIRECTION('',(-3.84976117432283E-17,0.951056516295154,0.309016994374948));
#1280=DIRECTION('',(1.,0.,0.));
#1281=DIRECTION('',(0.,0.,-1.));
#1282=DIRECTION('',(1.,0.,0.));
#1283=DIRECTION('',(0.,0.,-1.));
#1284=DIRECTION('',(1.,0.,0.));
#1285=DIRECTION('',(0.,0.,-1.));
#1286=DIRECTION('',(-1.,0.,-1.24580888572481E-16));
#1287=DIRECTION('',(-1.24580888572481E-16,0.,1.));
#1288=DIRECTION('',(1.,0.,0.));
#1289=DIRECTION('',(0.,0.,-1.));
#1290=DIRECTION('',(1.,0.,0.));
#1291=DIRECTION('',(0.,0.,-1.));
#1292=DIRECTION('',(1.,0.,0.));
#1293=DIRECTION('',(0.,0.,-1.));
#1294=DIRECTION('',(-1.,0.,-1.24580888572481E-16));
#1295=DIRECTION('',(-3.84976117432283E-17,-0.951056516295154,0.309016994374948));
#1296=DIRECTION('',(1.,0.,0.));
#1297=DIRECTION('',(0.,0.,-1.));
#1298=DIRECTION('',(1.,0.,0.));
#1299=DIRECTION('',(0.,0.,-1.));
#1300=DIRECTION('',(1.,0.,0.));
#1301=DIRECTION('',(0.,0.,-1.));
#1302=DIRECTION('',(-1.,0.,-1.24580888572481E-16));
#1303=DIRECTION('',(1.00788056029469E-16,-0.587785252292473,-0.809016994374947));
#1304=DIRECTION('',(1.,0.,0.));
#1305=DIRECTION('',(0.,0.,-1.));
#1306=DIRECTION('',(1.,0.,0.));
#1307=DIRECTION('',(0.,0.,-1.));
#1308=DIRECTION('',(1.,0.,0.));
#1309=DIRECTION('',(0.,0.,-1.));
#1310=DIRECTION('',(-1.,0.,-1.24580888572481E-16));
#1311=DIRECTION('',(1.00788056029469E-16,0.587785252292473,-0.809016994374948));
#1312=DIRECTION('',(1.,0.,0.));
#1313=DIRECTION('',(0.,0.,-1.));
#1314=DIRECTION('',(1.,0.,0.));
#1315=DIRECTION('',(0.,0.,-1.));
#1316=DIRECTION('',(1.,0.,0.));
#1317=DIRECTION('',(0.,0.,-1.));
#1318=DIRECTION('',(1.,0.,0.));
#1319=DIRECTION('',(0.,0.,-1.));
#1320=DIRECTION('',(1.,0.,0.));
#1321=DIRECTION('',(0.,0.,-1.));
#1322=DIRECTION('',(1.,0.,0.));
#1323=DIRECTION('',(0.,0.,-1.));
#1324=DIRECTION('',(-1.,0.,0.));
#1325=DIRECTION('',(0.,0.,-1.));
#1326=DIRECTION('',(1.,0.,0.));
#1327=DIRECTION('',(0.,0.,-1.));
#1328=DIRECTION('',(-1.,0.,0.));
#1329=DIRECTION('',(0.,0.,-1.));
#1330=DIRECTION('',(1.,0.,0.));
#1331=DIRECTION('',(0.,0.,-1.));
#1332=DIRECTION('',(-1.,0.,0.));
#1333=DIRECTION('',(0.,0.,-1.));
#1334=DIRECTION('',(1.,0.,0.));
#1335=DIRECTION('',(0.,0.,-1.));
#1336=DIRECTION('',(-1.,0.,0.));
#1337=DIRECTION('',(0.,0.,-1.));
#1338=DIRECTION('',(1.,0.,0.));
#1339=DIRECTION('',(0.,0.,-1.));
#1340=DIRECTION('',(-1.,0.,0.));
#1341=DIRECTION('',(0.,0.,-1.));
#1342=DIRECTION('',(1.,0.,0.));
#1343=DIRECTION('',(0.,0.,-1.));
#1344=DIRECTION('',(-1.,0.,0.));
#1345=DIRECTION('',(-1.,0.,0.));
#1346=DIRECTION('',(1.,0.,0.));
#1347=DIRECTION('',(0.,0.,-1.));
#1348=DIRECTION('',(-1.,0.,0.));
#1349=DIRECTION('',(-1.,0.,0.));
#1350=DIRECTION('',(1.,0.,0.));
#1351=DIRECTION('',(0.,0.,-1.));
#1352=DIRECTION('',(-1.,0.,0.));
#1353=DIRECTION('',(-1.,0.,0.));
#1354=DIRECTION('',(1.,0.,0.));
#1355=DIRECTION('',(0.,0.,-1.));
#1356=DIRECTION('',(-1.,0.,0.));
#1357=DIRECTION('',(-1.,0.,0.));
#1358=DIRECTION('',(1.,0.,0.));
#1359=DIRECTION('',(0.,0.,-1.));
#1360=DIRECTION('',(-1.,0.,0.));
#1361=DIRECTION('',(-1.,0.,0.));
#1362=DIRECTION('',(1.,0.,0.));
#1363=DIRECTION('',(0.,0.,-1.));
#1364=DIRECTION('',(-1.,0.,0.));
#1365=DIRECTION('',(0.,1.,0.));
#1366=DIRECTION('',(1.,0.,0.));
#1367=DIRECTION('',(0.,0.,-1.));
#1368=DIRECTION('',(1.,0.,1.24580888572481E-16));
#1369=DIRECTION('',(-1.24580888572481E-16,0.,1.));
#1370=DIRECTION('',(-1.,0.,-1.24580888572481E-16));
#1371=DIRECTION('',(-1.24580888572481E-16,0.,1.));
#1372=DIRECTION('',(1.,0.,1.24580888572481E-16));
#1373=DIRECTION('',(1.,0.,1.24580888572481E-16));
#1374=DIRECTION('',(-1.,0.,-1.24580888572481E-16));
#1375=DIRECTION('',(1.24580888572481E-16,0.,-1.));
#1376=DIRECTION('',(1.22688224943329E-16,-0.17364817766693,-0.984807753012208));
#1377=DIRECTION('',(-1.,0.,-1.24580888572481E-16));
#1378=DIRECTION('',(-1.24580888572481E-16,0.,1.));
#1379=DIRECTION('',(1.22688224943329E-16,0.17364817766693,-0.984807753012208));
#1380=DIRECTION('',(1.,0.,1.24580888572481E-16));
#1381=DIRECTION('',(1.24580888572481E-16,0.,-1.));
#1382=DIRECTION('',(1.,0.,1.24580888572481E-16));
#1383=DIRECTION('',(1.24580888572481E-16,0.,-1.));
#1384=DIRECTION('',(1.,0.,1.24580888572481E-16));
#1385=DIRECTION('',(-1.24580888572481E-16,0.,1.));
#1386=DIRECTION('',(-1.,0.,-1.24580888572481E-16));
#1387=DIRECTION('',(-1.24580888572481E-16,0.,1.));
#1388=DIRECTION('',(1.,0.,1.24580888572481E-16));
#1389=DIRECTION('',(1.,0.,1.24580888572481E-16));
#1390=DIRECTION('',(1.,0.,1.24580888572481E-16));
#1391=DIRECTION('',(-1.24580888572481E-16,0.,1.));
#1392=DIRECTION('',(-1.,0.,-1.24580888572481E-16));
#1393=DIRECTION('',(-1.24580888572481E-16,0.,1.));
#1394=DIRECTION('',(-1.,0.,-1.24580888572481E-16));
#1395=DIRECTION('',(-1.24580888572481E-16,0.,1.));
#1396=DIRECTION('',(-1.22688224943329E-16,-0.17364817766693,0.984807753012208));
#1397=DIRECTION('',(-1.22688224943329E-16,0.17364817766693,0.984807753012208));
#1398=DIRECTION('',(-1.,0.,-1.24580888572481E-16));
#1399=DIRECTION('',(-1.24580888572481E-16,0.,1.));
#1400=DIRECTION('',(1.,0.,1.24580888572481E-16));
#1401=DIRECTION('',(-1.24580888572481E-16,0.,1.));
#1402=DIRECTION('',(1.,0.,1.24580888572481E-16));
#1403=DIRECTION('',(1.24580888572481E-16,0.,-1.));
#1404=DIRECTION('',(1.,0.,1.24580888572481E-16));
#1405=DIRECTION('',(1.,0.,1.24580888572481E-16));
#1406=DIRECTION('',(-2.16332442727381E-17,0.984807753012208,0.17364817766693));
#1407=DIRECTION('',(1.,2.16332442727381E-17,1.89266362915172E-18));
#1408=DIRECTION('',(-1.,0.,-1.24580888572481E-16));
#1409=DIRECTION('',(2.16332442727382E-17,0.984807753012208,-0.17364817766693));
#1410=DIRECTION('',(1.,-2.16332442727382E-17,1.89266362915172E-18));
#1411=DIRECTION('',(1.,0.,1.24580888572481E-16));
#1412=DIRECTION('',(1.,0.,1.24580888572481E-16));
#1413=DIRECTION('',(-1.24580888572481E-16,0.,1.));
#1414=DIRECTION('',(-1.,0.,-1.24580888572481E-16));
#1415=DIRECTION('',(1.24580888572481E-16,0.,-1.));
#1416=DIRECTION('',(1.,0.,1.24580888572481E-16));
#1417=DIRECTION('',(-1.24580888572481E-16,0.,1.));
#1418=DIRECTION('',(1.,0.,1.24580888572481E-16));
#1419=DIRECTION('',(-3.84976117432283E-17,-0.951056516295154,0.309016994374948));
#1420=DIRECTION('',(-1.,0.,-1.24580888572481E-16));
#1421=DIRECTION('',(-3.84976117432283E-17,-0.951056516295154,0.309016994374948));
#1422=DIRECTION('',(1.,0.,1.24580888572481E-16));
#1423=DIRECTION('',(1.,0.,1.24580888572481E-16));
#1424=DIRECTION('',(-1.,0.,-1.24580888572481E-16));
#1425=DIRECTION('',(3.84976117432283E-17,0.951056516295154,-0.309016994374948));
#1426=DIRECTION('',(5.84871844513775E-17,0.882947592858927,-0.469471562785891));
#1427=DIRECTION('',(-1.,0.,-1.24580888572481E-16));
#1428=DIRECTION('',(-3.84976117432283E-17,-0.951056516295154,0.309016994374948));
#1429=DIRECTION('',(1.73383085829926E-17,0.99026806874157,-0.139173100960066));
#1430=DIRECTION('',(1.,0.,1.24580888572481E-16));
#1431=DIRECTION('',(1.24580888572481E-16,0.,-1.));
#1432=DIRECTION('',(1.,0.,1.24580888572481E-16));
#1433=DIRECTION('',(1.24580888572481E-16,0.,-1.));
#1434=DIRECTION('',(1.,0.,1.24580888572481E-16));
#1435=DIRECTION('',(-3.84976117432283E-17,-0.951056516295154,0.309016994374948));
#1436=DIRECTION('',(-1.,0.,-1.24580888572481E-16));
#1437=DIRECTION('',(-3.84976117432283E-17,-0.951056516295154,0.309016994374948));
#1438=DIRECTION('',(1.,0.,1.24580888572481E-16));
#1439=DIRECTION('',(1.,0.,1.24580888572481E-16));
#1440=DIRECTION('',(1.,0.,1.24580888572481E-16));
#1441=DIRECTION('',(-3.84976117432283E-17,-0.951056516295154,0.309016994374948));
#1442=DIRECTION('',(-1.,0.,-1.24580888572481E-16));
#1443=DIRECTION('',(-3.84976117432283E-17,-0.951056516295154,0.309016994374948));
#1444=DIRECTION('',(-1.,0.,-1.24580888572481E-16));
#1445=DIRECTION('',(-1.24580888572481E-16,0.,1.));
#1446=DIRECTION('',(-1.73383085829926E-17,-0.99026806874157,0.139173100960066));
#1447=DIRECTION('',(-5.84871844513775E-17,-0.882947592858927,0.469471562785891));
#1448=DIRECTION('',(-1.,0.,-1.24580888572481E-16));
#1449=DIRECTION('',(-1.24580888572481E-16,0.,1.));
#1450=DIRECTION('',(1.,0.,1.24580888572481E-16));
#1451=DIRECTION('',(-3.84976117432283E-17,-0.951056516295154,0.309016994374948));
#1452=DIRECTION('',(1.,0.,1.24580888572481E-16));
#1453=DIRECTION('',(1.24580888572481E-16,0.,-1.));
#1454=DIRECTION('',(1.,0.,1.24580888572481E-16));
#1455=DIRECTION('',(1.,0.,1.24580888572481E-16));
#1456=DIRECTION('',(-1.23368475928779E-16,0.139173100960066,0.99026806874157));
#1457=DIRECTION('',(1.,1.23368475928779E-16,1.07242579989488E-16));
#1458=DIRECTION('',(-1.,2.99888285237245E-35,-1.24580888572481E-16));
#1459=DIRECTION('',(-1.09998395681298E-16,0.469471562785891,0.882947592858927));
#1460=DIRECTION('',(1.,1.09998395681298E-16,6.60937041211033E-17));
#1461=DIRECTION('',(1.,-1.27022436849487E-32,1.24580888572481E-16));
#1462=DIRECTION('',(1.,0.,1.24580888572481E-16));
#1463=DIRECTION('',(-1.24580888572481E-16,0.,1.));
#1464=DIRECTION('',(-1.,0.,-1.24580888572481E-16));
#1465=DIRECTION('',(1.24580888572481E-16,0.,-1.));
#1466=DIRECTION('',(1.,0.,1.24580888572481E-16));
#1467=DIRECTION('',(-1.24580888572481E-16,0.,1.));
#1468=DIRECTION('',(1.,0.,1.24580888572481E-16));
#1469=DIRECTION('',(1.00788056029469E-16,-0.587785252292473,-0.809016994374947));
#1470=DIRECTION('',(-1.,0.,-1.24580888572481E-16));
#1471=DIRECTION('',(1.00788056029469E-16,-0.587785252292473,-0.809016994374947));
#1472=DIRECTION('',(1.,0.,1.24580888572481E-16));
#1473=DIRECTION('',(1.,0.,1.24580888572481E-16));
#1474=DIRECTION('',(-1.,0.,-1.24580888572481E-16));
#1475=DIRECTION('',(-1.00788056029469E-16,0.587785252292473,0.809016994374947));
#1476=DIRECTION('',(-8.65411570460934E-17,0.719339800338651,0.694658370458997));
#1477=DIRECTION('',(-1.,0.,-1.24580888572481E-16));
#1478=DIRECTION('',(1.00788056029469E-16,-0.587785252292473,-0.809016994374947));
#1479=DIRECTION('',(-1.11972560931606E-16,0.438371146789078,0.898794046299167));
#1480=DIRECTION('',(1.,0.,1.24580888572481E-16));
#1481=DIRECTION('',(1.24580888572481E-16,0.,-1.));
#1482=DIRECTION('',(1.,0.,1.24580888572481E-16));
#1483=DIRECTION('',(1.24580888572481E-16,0.,-1.));
#1484=DIRECTION('',(1.,0.,1.24580888572481E-16));
#1485=DIRECTION('',(1.00788056029469E-16,-0.587785252292473,-0.809016994374947));
#1486=DIRECTION('',(-1.,0.,-1.24580888572481E-16));
#1487=DIRECTION('',(1.00788056029469E-16,-0.587785252292473,-0.809016994374947));
#1488=DIRECTION('',(1.,0.,1.24580888572481E-16));
#1489=DIRECTION('',(1.,0.,1.24580888572481E-16));
#1490=DIRECTION('',(1.,0.,1.24580888572481E-16));
#1491=DIRECTION('',(1.00788056029469E-16,-0.587785252292473,-0.809016994374947));
#1492=DIRECTION('',(-1.,0.,-1.24580888572481E-16));
#1493=DIRECTION('',(1.00788056029469E-16,-0.587785252292473,-0.809016994374947));
#1494=DIRECTION('',(-1.,0.,-1.24580888572481E-16));
#1495=DIRECTION('',(-1.24580888572481E-16,0.,1.));
#1496=DIRECTION('',(1.11972560931606E-16,-0.438371146789078,-0.898794046299167));
#1497=DIRECTION('',(8.65411570460934E-17,-0.719339800338651,-0.694658370458997));
#1498=DIRECTION('',(-1.,0.,-1.24580888572481E-16));
#1499=DIRECTION('',(-1.24580888572481E-16,0.,1.));
#1500=DIRECTION('',(1.,0.,1.24580888572481E-16));
#1501=DIRECTION('',(1.00788056029469E-16,-0.587785252292473,-0.809016994374947));
#1502=DIRECTION('',(1.,0.,1.24580888572481E-16));
#1503=DIRECTION('',(1.24580888572481E-16,0.,-1.));
#1504=DIRECTION('',(1.,0.,1.24580888572481E-16));
#1505=DIRECTION('',(1.,0.,1.24580888572481E-16));
#1506=DIRECTION('',(-5.46126669915207E-17,-0.898794046299167,0.438371146789078));
#1507=DIRECTION('',(1.,5.46126669915207E-17,2.36553449504087E-16));
#1508=DIRECTION('',(-1.,1.23259516440783E-32,-1.24580888572481E-16));
#1509=DIRECTION('',(-8.96159915117401E-17,-0.694658370458997,0.719339800338651));
#1510=DIRECTION('',(1.,8.96159915117401E-17,2.11122045618574E-16));
#1511=DIRECTION('',(1.,-1.26301737552816E-32,1.24580888572481E-16));
#1512=DIRECTION('',(1.,0.,1.24580888572481E-16));
#1513=DIRECTION('',(-1.24580888572481E-16,0.,1.));
#1514=DIRECTION('',(-1.,0.,-1.24580888572481E-16));
#1515=DIRECTION('',(1.24580888572481E-16,0.,-1.));
#1516=DIRECTION('',(1.,0.,1.24580888572481E-16));
#1517=DIRECTION('',(-1.24580888572481E-16,0.,1.));
#1518=DIRECTION('',(1.,0.,1.24580888572481E-16));
#1519=DIRECTION('',(1.00788056029469E-16,0.587785252292473,-0.809016994374948));
#1520=DIRECTION('',(-1.,0.,-1.24580888572481E-16));
#1521=DIRECTION('',(1.00788056029469E-16,0.587785252292473,-0.809016994374948));
#1522=DIRECTION('',(1.,0.,1.24580888572481E-16));
#1523=DIRECTION('',(1.,0.,1.24580888572481E-16));
#1524=DIRECTION('',(-1.,0.,-1.24580888572481E-16));
#1525=DIRECTION('',(-1.00788056029469E-16,-0.587785252292473,0.809016994374948));
#1526=DIRECTION('',(-1.11972560931606E-16,-0.438371146789078,0.898794046299167));
#1527=DIRECTION('',(-1.,0.,-1.24580888572481E-16));
#1528=DIRECTION('',(1.00788056029469E-16,0.587785252292473,-0.809016994374948));
#1529=DIRECTION('',(-8.65411570460935E-17,-0.719339800338651,0.694658370458998));
#1530=DIRECTION('',(1.,0.,1.24580888572481E-16));
#1531=DIRECTION('',(1.24580888572481E-16,0.,-1.));
#1532=DIRECTION('',(1.,0.,1.24580888572481E-16));
#1533=DIRECTION('',(1.24580888572481E-16,0.,-1.));
#1534=DIRECTION('',(1.,0.,1.24580888572481E-16));
#1535=DIRECTION('',(1.00788056029469E-16,0.587785252292473,-0.809016994374948));
#1536=DIRECTION('',(-1.,0.,-1.24580888572481E-16));
#1537=DIRECTION('',(1.00788056029469E-16,0.587785252292473,-0.809016994374948));
#1538=DIRECTION('',(1.,0.,1.24580888572481E-16));
#1539=DIRECTION('',(1.,0.,1.24580888572481E-16));
#1540=DIRECTION('',(1.,0.,1.24580888572481E-16));
#1541=DIRECTION('',(1.00788056029469E-16,0.587785252292473,-0.809016994374948));
#1542=DIRECTION('',(-1.,0.,-1.24580888572481E-16));
#1543=DIRECTION('',(1.00788056029469E-16,0.587785252292473,-0.809016994374948));
#1544=DIRECTION('',(-1.,0.,-1.24580888572481E-16));
#1545=DIRECTION('',(-1.24580888572481E-16,0.,1.));
#1546=DIRECTION('',(8.65411570460935E-17,0.719339800338651,-0.694658370458998));
#1547=DIRECTION('',(1.11972560931606E-16,0.438371146789078,-0.898794046299167));
#1548=DIRECTION('',(-1.,0.,-1.24580888572481E-16));
#1549=DIRECTION('',(-1.24580888572481E-16,0.,1.));
#1550=DIRECTION('',(1.,0.,1.24580888572481E-16));
#1551=DIRECTION('',(1.00788056029469E-16,0.587785252292473,-0.809016994374948));
#1552=DIRECTION('',(1.,0.,1.24580888572481E-16));
#1553=DIRECTION('',(1.24580888572481E-16,0.,-1.));
#1554=DIRECTION('',(1.,0.,1.24580888572481E-16));
#1555=DIRECTION('',(1.,0.,1.24580888572481E-16));
#1556=DIRECTION('',(8.96159915117401E-17,-0.694658370458998,-0.719339800338651));
#1557=DIRECTION('',(1.,-8.96159915117401E-17,2.11122045618574E-16));
#1558=DIRECTION('',(-1.,2.05840550163069E-32,-1.24580888572481E-16));
#1559=DIRECTION('',(5.46126669915207E-17,-0.898794046299167,-0.438371146789077));
#1560=DIRECTION('',(1.,-5.46126669915207E-17,2.36553449504087E-16));
#1561=DIRECTION('',(1.,6.7867056677438E-33,1.24580888572481E-16));
#1562=DIRECTION('',(1.,0.,1.24580888572481E-16));
#1563=DIRECTION('',(-1.24580888572481E-16,0.,1.));
#1564=DIRECTION('',(-1.,0.,-1.24580888572481E-16));
#1565=DIRECTION('',(1.24580888572481E-16,0.,-1.));
#1566=DIRECTION('',(1.,0.,1.24580888572481E-16));
#1567=DIRECTION('',(-1.24580888572481E-16,0.,1.));
#1568=DIRECTION('',(1.,0.,1.24580888572481E-16));
#1569=DIRECTION('',(-3.84976117432283E-17,0.951056516295154,0.309016994374948));
#1570=DIRECTION('',(-1.,0.,-1.24580888572481E-16));
#1571=DIRECTION('',(-3.84976117432283E-17,0.951056516295154,0.309016994374948));
#1572=DIRECTION('',(1.,0.,1.24580888572481E-16));
#1573=DIRECTION('',(1.,0.,1.24580888572481E-16));
#1574=DIRECTION('',(-1.,0.,-1.24580888572481E-16));
#1575=DIRECTION('',(3.84976117432283E-17,-0.951056516295154,-0.309016994374948));
#1576=DIRECTION('',(1.73383085829925E-17,-0.99026806874157,-0.139173100960065));
#1577=DIRECTION('',(-1.,0.,-1.24580888572481E-16));
#1578=DIRECTION('',(-3.84976117432283E-17,0.951056516295154,0.309016994374948));
#1579=DIRECTION('',(5.84871844513775E-17,-0.882947592858927,-0.469471562785891));
#1580=DIRECTION('',(1.,0.,1.24580888572481E-16));
#1581=DIRECTION('',(1.24580888572481E-16,0.,-1.));
#1582=DIRECTION('',(1.,0.,1.24580888572481E-16));
#1583=DIRECTION('',(1.24580888572481E-16,0.,-1.));
#1584=DIRECTION('',(1.,0.,1.24580888572481E-16));
#1585=DIRECTION('',(-3.84976117432283E-17,0.951056516295154,0.309016994374948));
#1586=DIRECTION('',(-1.,0.,-1.24580888572481E-16));
#1587=DIRECTION('',(-3.84976117432283E-17,0.951056516295154,0.309016994374948));
#1588=DIRECTION('',(1.,0.,1.24580888572481E-16));
#1589=DIRECTION('',(1.,0.,1.24580888572481E-16));
#1590=DIRECTION('',(1.,0.,1.24580888572481E-16));
#1591=DIRECTION('',(-3.84976117432283E-17,0.951056516295154,0.309016994374948));
#1592=DIRECTION('',(-1.,0.,-1.24580888572481E-16));
#1593=DIRECTION('',(-3.84976117432283E-17,0.951056516295154,0.309016994374948));
#1594=DIRECTION('',(-1.,0.,-1.24580888572481E-16));
#1595=DIRECTION('',(-1.24580888572481E-16,0.,1.));
#1596=DIRECTION('',(-5.84871844513775E-17,0.882947592858927,0.469471562785891));
#1597=DIRECTION('',(-1.73383085829925E-17,0.99026806874157,0.139173100960065));
#1598=DIRECTION('',(-1.,0.,-1.24580888572481E-16));
#1599=DIRECTION('',(-1.24580888572481E-16,0.,1.));
#1600=DIRECTION('',(1.,0.,1.24580888572481E-16));
#1601=DIRECTION('',(-3.84976117432283E-17,0.951056516295154,0.309016994374948));
#1602=DIRECTION('',(1.,0.,1.24580888572481E-16));
#1603=DIRECTION('',(1.24580888572481E-16,0.,-1.));
#1604=DIRECTION('',(1.,0.,1.24580888572481E-16));
#1605=DIRECTION('',(1.,0.,1.24580888572481E-16));
#1606=DIRECTION('',(1.09998395681298E-16,0.46947156278589,-0.882947592858927));
#1607=DIRECTION('',(1.,-1.09998395681298E-16,6.60937041211034E-17));
#1608=DIRECTION('',(-1.,-6.85317405054219E-33,-1.24580888572481E-16));
#1609=DIRECTION('',(1.23368475928779E-16,0.139173100960065,-0.99026806874157));
#1610=DIRECTION('',(1.,-1.23368475928779E-16,1.07242579989488E-16));
#1611=DIRECTION('',(1.,0.,1.24580888572481E-16));
#1612=DIRECTION('',(1.,0.,1.24580888572481E-16));
#1613=DIRECTION('',(-1.24580888572481E-16,0.,1.));
#1614=DIRECTION('',(-1.,0.,-1.24580888572481E-16));
#1615=DIRECTION('',(1.24580888572481E-16,0.,-1.));
#1616=DIRECTION('',(1.,0.,1.24580888572481E-16));
#1617=DIRECTION('',(-1.24580888572481E-16,0.,1.));
#1618=DIRECTION('',(-1.,0.,0.));
#1619=DIRECTION('',(0.,0.,-1.));
#1620=CARTESIAN_POINT('',(0.,0.,0.));
#1621=CARTESIAN_POINT('',(-0.044,0.0723,0.012055));
#1622=CARTESIAN_POINT('',(-0.052,0.0723,0.012055));
#1623=CARTESIAN_POINT('',(-0.052,0.0723,0.001805));
#1624=CARTESIAN_POINT('',(-0.044,0.0723,0.012055));
#1625=CARTESIAN_POINT('',(-0.044,0.0723,0.022305));
#1626=CARTESIAN_POINT('',(-0.044,0.0638,0.012055));
#1627=CARTESIAN_POINT('',(-0.044,0.113320238695523,0.0231721047203088));
#1628=CARTESIAN_POINT('',(-0.044,0.115777230156821,0.0188174298806557));
#1629=CARTESIAN_POINT('',(-0.044,0.114828544926343,0.0184050288541126));
#1630=CARTESIAN_POINT('',(-0.044,0.0723,0.012055));
#1631=CARTESIAN_POINT('',(-0.044,0.111448674618731,0.0321393539999857));
#1632=CARTESIAN_POINT('',(-0.044,0.112020540420784,0.0271721647037697));
#1633=CARTESIAN_POINT('',(-0.044,0.110438768903529,0.0319153702514137));
#1634=CARTESIAN_POINT('',(-0.044,0.0723,0.012055));
#1635=CARTESIAN_POINT('',(-0.044,0.0794028068079123,0.0544643166114414));
#1636=CARTESIAN_POINT('',(-0.044,0.0744029559836482,0.0545029395981812));
#1637=CARTESIAN_POINT('',(-0.044,0.0793037499828221,0.0554940088075007));
#1638=CARTESIAN_POINT('',(-0.044,0.0723,0.012055));
#1639=CARTESIAN_POINT('',(-0.044,0.065296250017178,0.0554940088075007));
#1640=CARTESIAN_POINT('',(-0.044,0.0701970440163519,0.0545029395981812));
#1641=CARTESIAN_POINT('',(-0.044,0.0651971931920877,0.0544643166114414));
#1642=CARTESIAN_POINT('',(-0.044,0.0723,0.012055));
#1643=CARTESIAN_POINT('',(-0.044,0.0341612310964714,0.0319153702514137));
#1644=CARTESIAN_POINT('',(-0.044,0.0325794595792165,0.0271721647037697));
#1645=CARTESIAN_POINT('',(-0.044,0.0331513253812692,0.0321393539999857));
#1646=CARTESIAN_POINT('',(-0.044,0.0723,0.012055));
#1647=CARTESIAN_POINT('',(-0.044,0.0288227698431786,0.0188174298806558));
#1648=CARTESIAN_POINT('',(-0.044,0.0312797613044769,0.0231721047203088));
#1649=CARTESIAN_POINT('',(-0.044,0.0297714550736575,0.0184050288541126));
#1650=CARTESIAN_POINT('',(-0.044,0.0723,0.012055));
#1651=CARTESIAN_POINT('',(-0.044,0.0416261377206295,-0.0180799327669104));
#1652=CARTESIAN_POINT('',(-0.044,0.0456483999847936,-0.0210500179977213));
#1653=CARTESIAN_POINT('',(-0.044,0.041101038488292,-0.0189711953934246));
#1654=CARTESIAN_POINT('',(-0.044,0.0723,0.012055));
#1655=CARTESIAN_POINT('',(-0.044,0.0524333440092045,-0.0272045972947175));
#1656=CARTESIAN_POINT('',(-0.044,0.0490510542431812,-0.0235221910245384));
#1657=CARTESIAN_POINT('',(-0.044,0.0531187205513557,-0.0264297829500573));
#1658=CARTESIAN_POINT('',(-0.044,0.0723,0.012055));
#1659=CARTESIAN_POINT('',(-0.044,0.0914812794486443,-0.0264297829500573));
#1660=CARTESIAN_POINT('',(-0.044,0.0955489457568188,-0.0235221910245385));
#1661=CARTESIAN_POINT('',(-0.044,0.0921666559907955,-0.0272045972947175));
#1662=CARTESIAN_POINT('',(-0.044,0.0723,0.012055));
#1663=CARTESIAN_POINT('',(-0.044,0.103498961511708,-0.0189711953934246));
#1664=CARTESIAN_POINT('',(-0.044,0.0989516000152064,-0.0210500179977213));
#1665=CARTESIAN_POINT('',(-0.044,0.102973862279371,-0.0180799327669104));
#1666=CARTESIAN_POINT('',(-0.044,0.0723,0.012055));
#1667=CARTESIAN_POINT('',(-0.044,0.0723,-0.017945));
#1668=CARTESIAN_POINT('',(-0.044,0.0723,-0.019545));
#1669=CARTESIAN_POINT('',(-0.044,0.0423,0.012055));
#1670=CARTESIAN_POINT('',(-0.044,0.0423,0.010455));
#1671=CARTESIAN_POINT('',(-0.044,0.0723,0.042055));
#1672=CARTESIAN_POINT('',(-0.044,0.0723,0.040455));
#1673=CARTESIAN_POINT('',(-0.044,0.1023,0.012055));
#1674=CARTESIAN_POINT('',(-0.044,0.1023,0.010455));
#1675=CARTESIAN_POINT('',(-0.044,0.0723,-0.017945));
#1676=CARTESIAN_POINT('',(-0.052,0.0723,-0.017945));
#1677=CARTESIAN_POINT('',(-0.052,0.0723,-0.019545));
#1678=CARTESIAN_POINT('',(-0.044,0.0423,0.012055));
#1679=CARTESIAN_POINT('',(-0.052,0.0423,0.012055));
#1680=CARTESIAN_POINT('',(-0.052,0.0423,0.010455));
#1681=CARTESIAN_POINT('',(-0.044,0.0723,0.042055));
#1682=CARTESIAN_POINT('',(-0.052,0.0723,0.042055));
#1683=CARTESIAN_POINT('',(-0.052,0.0723,0.040455));
#1684=CARTESIAN_POINT('',(-0.044,0.1023,0.012055));
#1685=CARTESIAN_POINT('',(-0.052,0.1023,0.012055));
#1686=CARTESIAN_POINT('',(-0.052,0.1023,0.010455));
#1687=CARTESIAN_POINT('',(-0.044,0.0723,0.012055));
#1688=CARTESIAN_POINT('',(-0.047,0.0723,0.012055));
#1689=CARTESIAN_POINT('',(-0.047,0.0723,-0.030945));
#1690=CARTESIAN_POINT('',(-0.044,0.114828544926343,0.0184050288541126));
#1691=CARTESIAN_POINT('',(-0.0469749371855331,0.114828544926343,0.0184050288541126));
#1692=CARTESIAN_POINT('',(-0.0469749371855331,0.102973862279371,-0.0180799327669104));
#1693=CARTESIAN_POINT('',(-0.0469749371855331,0.102973862279371,-0.0180799327669104));
#1694=CARTESIAN_POINT('',(-0.0469749371855331,0.0723,0.012055));
#1695=CARTESIAN_POINT('',(-0.0469749371855331,0.0914812794486443,-0.0264297829500573));
#1696=CARTESIAN_POINT('',(-0.044,0.0914812794486443,-0.0264297829500573));
#1697=CARTESIAN_POINT('',(-0.0469749371855331,0.0531187205513557,-0.0264297829500573));
#1698=CARTESIAN_POINT('',(-0.0469749371855331,0.0531187205513557,-0.0264297829500573));
#1699=CARTESIAN_POINT('',(-0.0469749371855331,0.0723,0.012055));
#1700=CARTESIAN_POINT('',(-0.0469749371855331,0.0416261377206295,-0.0180799327669104));
#1701=CARTESIAN_POINT('',(-0.044,0.0416261377206295,-0.0180799327669104));
#1702=CARTESIAN_POINT('',(-0.0469749371855331,0.0297714550736575,0.0184050288541126));
#1703=CARTESIAN_POINT('',(-0.0469749371855331,0.0297714550736575,0.0184050288541126));
#1704=CARTESIAN_POINT('',(-0.0469749371855331,0.0723,0.012055));
#1705=CARTESIAN_POINT('',(-0.0469749371855331,0.0341612310964714,0.0319153702514137));
#1706=CARTESIAN_POINT('',(-0.044,0.0341612310964714,0.0319153702514137));
#1707=CARTESIAN_POINT('',(-0.0469749371855331,0.0651971931920877,0.0544643166114414));
#1708=CARTESIAN_POINT('',(-0.0469749371855331,0.0651971931920877,0.0544643166114414));
#1709=CARTESIAN_POINT('',(-0.0469749371855331,0.0723,0.012055));
#1710=CARTESIAN_POINT('',(-0.0469749371855331,0.0794028068079123,0.0544643166114414));
#1711=CARTESIAN_POINT('',(-0.044,0.0794028068079123,0.0544643166114414));
#1712=CARTESIAN_POINT('',(-0.0469749371855331,0.110438768903529,0.0319153702514137));
#1713=CARTESIAN_POINT('',(-0.0469749371855331,0.110438768903529,0.0319153702514137));
#1714=CARTESIAN_POINT('',(-0.0469749371855331,0.0723,0.012055));
#1715=CARTESIAN_POINT('',(-0.052,0.0638,0.012055));
#1716=CARTESIAN_POINT('',(-0.052,0.0723,0.012055));
#1717=CARTESIAN_POINT('',(-0.052,0.0723,-0.025945));
#1718=CARTESIAN_POINT('',(-0.0477768386863172,0.0723,0.012055));
#1719=CARTESIAN_POINT('',(-0.034,0.0723,0.012055));
#1720=CARTESIAN_POINT('',(-0.034,0.065296250017178,0.0554940088075007));
#1721=CARTESIAN_POINT('',(-0.034,0.0793037499828221,0.0554940088075007));
#1722=CARTESIAN_POINT('',(-0.044,0.065296250017178,0.0554940088075007));
#1723=CARTESIAN_POINT('',(-0.034,0.0793037499828221,0.0554940088075007));
#1724=CARTESIAN_POINT('',(-0.034,0.0651370126712391,0.0526783198117536));
#1725=CARTESIAN_POINT('',(-0.034,0.0723952660738469,0.0143229118975776));
#1726=CARTESIAN_POINT('',(-0.034,0.0793269954823263,0.0536347028703958));
#1727=CARTESIAN_POINT('',(-0.034,0.0786898095457897,0.0500210418527997));
#1728=CARTESIAN_POINT('',(-0.034,0.0723,0.012055));
#1729=CARTESIAN_POINT('',(-0.034,0.0659101904542104,0.0500210418527997));
#1730=CARTESIAN_POINT('',(-0.034,0.0722047339261531,0.0143229118975776));
#1731=CARTESIAN_POINT('',(-0.034,0.0652730045178647,0.0536347028693128));
#1732=CARTESIAN_POINT('',(-0.034,0.0701970440163519,0.0545029395981812));
#1733=CARTESIAN_POINT('',(-0.034,0.0744029559836482,0.0545029395981812));
#1734=CARTESIAN_POINT('',(-0.0477768386863172,0.0723,0.012055));
#1735=CARTESIAN_POINT('',(-0.024,0.0723,0.012055));
#1736=CARTESIAN_POINT('',(-0.024,0.0659101904542104,0.0500210418527997));
#1737=CARTESIAN_POINT('',(-0.024,0.0786898095457897,0.0500210418527997));
#1738=CARTESIAN_POINT('',(-0.0477768386863172,0.0659101904542104,0.0500210418527997));
#1739=CARTESIAN_POINT('',(-0.0477768386863172,0.0786898095457897,0.0500210418527997));
#1740=CARTESIAN_POINT('',(-0.024,0.064833128360322,0.054401733379525));
#1741=CARTESIAN_POINT('',(-0.024,0.0723,0.012055));
#1742=CARTESIAN_POINT('',(-0.024,0.0699496374300403,0.0594968148450261));
#1743=CARTESIAN_POINT('',(-0.024,0.0746503625699597,0.0594968148450261));
#1744=CARTESIAN_POINT('',(-0.024,0.0701970440163519,0.0545029395981812));
#1745=CARTESIAN_POINT('',(-0.024,0.0652730045179298,0.053634702868944));
#1746=CARTESIAN_POINT('',(-0.024,0.0722047339261531,0.0143229118975776));
#1747=CARTESIAN_POINT('',(-0.024,0.0723952660738469,0.0143229118975776));
#1748=CARTESIAN_POINT('',(-0.024,0.0793269954823535,0.0536347028705501));
#1749=CARTESIAN_POINT('',(-0.024,0.0744029559836482,0.0545029395981812));
#1750=CARTESIAN_POINT('',(-0.0477768386863172,0.0723,0.012055));
#1751=CARTESIAN_POINT('',(-0.042,0.0723,0.012055));
#1752=CARTESIAN_POINT('',(-0.042,0.0699496374300403,0.0594968148450261));
#1753=CARTESIAN_POINT('',(-0.042,0.0746503625699597,0.0594968148450261));
#1754=CARTESIAN_POINT('',(-0.024,0.0699496374300403,0.0594968148450261));
#1755=CARTESIAN_POINT('',(-0.042,0.0746503625699597,0.0594968148450261));
#1756=CARTESIAN_POINT('',(-0.038,0.0722047339261531,0.0143229118975776));
#1757=CARTESIAN_POINT('',(-0.0477768386863172,0.0652730052512908,0.0536346987098466));
#1758=CARTESIAN_POINT('',(-0.038,0.0723952660738469,0.0143229118975776));
#1759=CARTESIAN_POINT('',(-0.038,0.0793269947487092,0.0536346987098465));
#1760=CARTESIAN_POINT('',(-0.0477768386863172,0.0701970440163519,0.0545029395981812));
#1761=CARTESIAN_POINT('',(-0.0469749371855331,0.0651971931920877,0.0544643166114414));
#1762=CARTESIAN_POINT('',(-0.0468975128570923,0.0651911671866503,0.0552443994273102));
#1763=CARTESIAN_POINT('',(-0.0463933256304339,0.065550683079792,0.0567140217677428));
#1764=CARTESIAN_POINT('',(-0.0450992444416912,0.0667577304014489,0.0582850363021292));
#1765=CARTESIAN_POINT('',(-0.0436009925821128,0.0682686598645131,0.0592227043796583));
#1766=CARTESIAN_POINT('',(-0.0425289913418488,0.0693910790960617,0.0594691427459378));
#1767=CARTESIAN_POINT('',(-0.042,0.0699496374300403,0.0594968148450261));
#1768=CARTESIAN_POINT('',(-0.042,0.0723,0.012055));
#1769=CARTESIAN_POINT('',(-0.0469749371855331,0.0794028068079123,0.0544643166114414));
#1770=CARTESIAN_POINT('',(-0.0468975128570923,0.0794088328133497,0.0552443994273102));
#1771=CARTESIAN_POINT('',(-0.0463933256304324,0.0790493169202096,0.0567140217677427));
#1772=CARTESIAN_POINT('',(-0.0450992444416965,0.0778422695985462,0.0582850363021295));
#1773=CARTESIAN_POINT('',(-0.043600992582093,0.0763313401355056,0.0592227043796574));
#1774=CARTESIAN_POINT('',(-0.0425289913418912,0.0752089209038983,0.0594691427459397));
#1775=CARTESIAN_POINT('',(-0.042,0.0746503625699597,0.0594968148450261));
#1776=CARTESIAN_POINT('',(-0.0477768386863172,0.0744029559836482,0.0545029395981812));
#1777=CARTESIAN_POINT('',(-0.0477768386863172,0.0723,0.012055));
#1778=CARTESIAN_POINT('',(-0.034,0.0723,0.012055));
#1779=CARTESIAN_POINT('',(-0.034,0.0288227698431786,0.0188174298806558));
#1780=CARTESIAN_POINT('',(-0.034,0.0331513253812692,0.0321393539999857));
#1781=CARTESIAN_POINT('',(-0.044,0.0288227698431786,0.0188174298806558));
#1782=CARTESIAN_POINT('',(-0.034,0.0331513253812692,0.0321393539999857));
#1783=CARTESIAN_POINT('',(-0.034,0.0314514421644102,0.0177958904146027));
#1784=CARTESIAN_POINT('',(-0.034,0.0701725264472316,0.0128464267384106));
#1785=CARTESIAN_POINT('',(-0.034,0.0349268136702372,0.03158690464757));
#1786=CARTESIAN_POINT('',(-0.034,0.0381667082384287,0.0298642221480739));
#1787=CARTESIAN_POINT('',(-0.034,0.0723,0.012055));
#1788=CARTESIAN_POINT('',(-0.034,0.0342175887574921,0.0177100821352574));
#1789=CARTESIAN_POINT('',(-0.034,0.0701136487756195,0.0126652198977826));
#1790=CARTESIAN_POINT('',(-0.034,0.0305838916190318,0.0182207649641523));
#1791=CARTESIAN_POINT('',(-0.034,0.0312797613044769,0.0231721047203088));
#1792=CARTESIAN_POINT('',(-0.034,0.0325794595792165,0.0271721647037697));
#1793=CARTESIAN_POINT('',(-0.0477768386863172,0.0723,0.012055));
#1794=CARTESIAN_POINT('',(-0.024,0.0723,0.012055));
#1795=CARTESIAN_POINT('',(-0.024,0.0342175887574921,0.0177100821352574));
#1796=CARTESIAN_POINT('',(-0.024,0.0381667082384287,0.0298642221480739));
#1797=CARTESIAN_POINT('',(-0.0477768386863172,0.0342175887574921,0.0177100821352574));
#1798=CARTESIAN_POINT('',(-0.0477768386863172,0.0381667082384287,0.0298642221480739));
#1799=CARTESIAN_POINT('',(-0.024,0.0297184730441125,0.0180394433412828));
#1800=CARTESIAN_POINT('',(-0.024,0.0723,0.012055));
#1801=CARTESIAN_POINT('',(-0.024,0.0264538508697096,0.0244799993932864));
#1802=CARTESIAN_POINT('',(-0.024,0.0279064548238302,0.0289506546689191));
#1803=CARTESIAN_POINT('',(-0.024,0.0312797613044769,0.0231721047203088));
#1804=CARTESIAN_POINT('',(-0.024,0.0305838916191897,0.0182207649641302));
#1805=CARTESIAN_POINT('',(-0.024,0.0701136487756195,0.0126652198977826));
#1806=CARTESIAN_POINT('',(-0.024,0.0701725264472316,0.0128464267384106));
#1807=CARTESIAN_POINT('',(-0.024,0.0349268136705581,0.0315869046473994));
#1808=CARTESIAN_POINT('',(-0.024,0.0325794595792165,0.0271721647037697));
#1809=CARTESIAN_POINT('',(-0.0477768386863172,0.0723,0.012055));
#1810=CARTESIAN_POINT('',(-0.042,0.0723,0.012055));
#1811=CARTESIAN_POINT('',(-0.042,0.0264538508697096,0.0244799993932864));
#1812=CARTESIAN_POINT('',(-0.042,0.0279064548238302,0.0289506546689191));
#1813=CARTESIAN_POINT('',(-0.024,0.0264538508697096,0.0244799993932864));
#1814=CARTESIAN_POINT('',(-0.042,0.0279064548238302,0.0289506546689191));
#1815=CARTESIAN_POINT('',(-0.038,0.0701136487756195,0.0126652198977826));
#1816=CARTESIAN_POINT('',(-0.0477768386863172,0.0305838957996766,0.018220764376601));
#1817=CARTESIAN_POINT('',(-0.038,0.0701725264472316,0.0128464267384106));
#1818=CARTESIAN_POINT('',(-0.038,0.0349268173931459,0.0315869026680644));
#1819=CARTESIAN_POINT('',(-0.0477768386863172,0.0312797613044769,0.0231721047203088));
#1820=CARTESIAN_POINT('',(-0.0469749371855331,0.0297714550736575,0.0184050288541126));
#1821=CARTESIAN_POINT('',(-0.0468975128570923,0.0290276900902871,0.0186403566294974));
#1822=CARTESIAN_POINT('',(-0.0463933256304337,0.0277410927076544,0.019436414840888));
#1823=CARTESIAN_POINT('',(-0.045099244441692,0.0266199672329388,0.0210698552511627));
#1824=CARTESIAN_POINT('',(-0.0436009925821101,0.0261950947790706,0.0227965899337086));
#1825=CARTESIAN_POINT('',(-0.0425289913418545,0.0263075645823193,0.0239402277011419));
#1826=CARTESIAN_POINT('',(-0.042,0.0264538508697096,0.0244799993932864));
#1827=CARTESIAN_POINT('',(-0.042,0.0723,0.012055));
#1828=CARTESIAN_POINT('',(-0.0469749371855331,0.0341612310964714,0.0319153702514137));
#1829=CARTESIAN_POINT('',(-0.0468975128570923,0.0334211903892778,0.0321621601702756));
#1830=CARTESIAN_POINT('',(-0.0463933256304326,0.0319123999651882,0.0322743785158994));
#1831=CARTESIAN_POINT('',(-0.0450992444416957,0.030045278219657,0.0316118784846914));
#1832=CARTESIAN_POINT('',(-0.0436009925820962,0.0286866000030193,0.0304646545442397));
#1833=CARTESIAN_POINT('',(-0.0425289913418844,0.0281053765715249,0.0294733240632606));
#1834=CARTESIAN_POINT('',(-0.042,0.0279064548238302,0.0289506546689191));
#1835=CARTESIAN_POINT('',(-0.0477768386863172,0.0325794595792165,0.0271721647037697));
#1836=CARTESIAN_POINT('',(-0.0477768386863172,0.0723,0.012055));
#1837=CARTESIAN_POINT('',(-0.034,0.0723,0.012055));
#1838=CARTESIAN_POINT('',(-0.034,0.0524333440092045,-0.0272045972947175));
#1839=CARTESIAN_POINT('',(-0.034,0.041101038488292,-0.0189711953934246));
#1840=CARTESIAN_POINT('',(-0.044,0.0524333440092045,-0.0272045972947175));
#1841=CARTESIAN_POINT('',(-0.034,0.041101038488292,-0.0189711953934246));
#1842=CARTESIAN_POINT('',(-0.034,0.0542171901949506,-0.0250202544098406));
#1843=CARTESIAN_POINT('',(-0.034,0.0708898829603757,0.0102762167263657));
#1844=CARTESIAN_POINT('',(-0.034,0.0421751050990933,-0.0174533219253534));
#1845=CARTESIAN_POINT('',(-0.034,0.0448146559976424,-0.0149043372520926));
#1846=CARTESIAN_POINT('',(-0.034,0.0723,0.012055));
#1847=CARTESIAN_POINT('',(-0.034,0.0551535850243686,-0.0224160088840383));
#1848=CARTESIAN_POINT('',(-0.034,0.0710440267058348,0.0101642247398636));
#1849=CARTESIAN_POINT('',(-0.034,0.0535450226277475,-0.0257140505452505));
#1850=CARTESIAN_POINT('',(-0.034,0.0490510542431812,-0.0235221910245384));
#1851=CARTESIAN_POINT('',(-0.034,0.0456483999847936,-0.0210500179977213));
#1852=CARTESIAN_POINT('',(-0.0477768386863172,0.0723,0.012055));
#1853=CARTESIAN_POINT('',(-0.024,0.0723,0.012055));
#1854=CARTESIAN_POINT('',(-0.024,0.0551535850243686,-0.0224160088840383));
#1855=CARTESIAN_POINT('',(-0.024,0.0448146559976424,-0.0149043372520926));
#1856=CARTESIAN_POINT('',(-0.0477768386863172,0.0551535850243686,-0.0224160088840383));
#1857=CARTESIAN_POINT('',(-0.0477768386863172,0.0448146559976424,-0.0149043372520926));
#1858=CARTESIAN_POINT('',(-0.024,0.0534500406880697,-0.0265931439908642));
#1859=CARTESIAN_POINT('',(-0.024,0.0723,0.012055));
#1860=CARTESIAN_POINT('',(-0.024,0.0463158841541437,-0.0277077429097782));
#1861=CARTESIAN_POINT('',(-0.024,0.0425129176300634,-0.0249447259974531));
#1862=CARTESIAN_POINT('',(-0.024,0.0490510542431812,-0.0235221910245384));
#1863=CARTESIAN_POINT('',(-0.024,0.0535450226278488,-0.0257140505450427));
#1864=CARTESIAN_POINT('',(-0.024,0.0710440267058348,0.0101642247398636));
#1865=CARTESIAN_POINT('',(-0.024,0.0708898829603757,0.0102762167263657));
#1866=CARTESIAN_POINT('',(-0.024,0.0421751050992977,-0.017453321925156));
#1867=CARTESIAN_POINT('',(-0.024,0.0456483999847936,-0.0210500179977213));
#1868=CARTESIAN_POINT('',(-0.0477768386863172,0.0723,0.012055));
#1869=CARTESIAN_POINT('',(-0.042,0.0723,0.012055));
#1870=CARTESIAN_POINT('',(-0.042,0.0463158841541437,-0.0277077429097782));
#1871=CARTESIAN_POINT('',(-0.042,0.0425129176300634,-0.0249447259974532));
#1872=CARTESIAN_POINT('',(-0.024,0.0463158841541437,-0.0277077429097782));
#1873=CARTESIAN_POINT('',(-0.042,0.0425129176300634,-0.0249447259974532));
#1874=CARTESIAN_POINT('',(-0.038,0.0710440267058348,0.0101642247398636));
#1875=CARTESIAN_POINT('',(-0.0477768386863172,0.053545024474677,-0.0257140467584838));
#1876=CARTESIAN_POINT('',(-0.038,0.0708898829603757,0.0102762167263657));
#1877=CARTESIAN_POINT('',(-0.038,0.0421751081324986,-0.017453318996028));
#1878=CARTESIAN_POINT('',(-0.0477768386863172,0.0490510542431812,-0.0235221910245384));
#1879=CARTESIAN_POINT('',(-0.0469749371855331,0.0531187205513557,-0.0264297829500573));
#1880=CARTESIAN_POINT('',(-0.0468975128570923,0.0526650745174283,-0.0270644252022414));
#1881=CARTESIAN_POINT('',(-0.0463933256304309,0.0515103977119853,-0.0280420565110124));
#1882=CARTESIAN_POINT('',(-0.0450992444417016,0.0496104567412901,-0.0286035493532452));
#1883=CARTESIAN_POINT('',(-0.0436009925820744,0.0478369416608908,-0.028474036707431));
#1884=CARTESIAN_POINT('',(-0.0425289913419315,0.0467840325903608,-0.0280136680625607));
#1885=CARTESIAN_POINT('',(-0.042,0.0463158841541437,-0.0277077429097782));
#1886=CARTESIAN_POINT('',(-0.042,0.0723,0.012055));
#1887=CARTESIAN_POINT('',(-0.0469749371855331,0.0416261377206295,-0.0180799327669104));
#1888=CARTESIAN_POINT('',(-0.0468975128570923,0.0411627414050879,-0.0187074910248418));
#1889=CARTESIAN_POINT('',(-0.0463933256304324,0.0405897735342404,-0.0201077586135173));
#1890=CARTESIAN_POINT('',(-0.0450992444416966,0.0406428761560313,-0.0220882206847392));
#1891=CARTESIAN_POINT('',(-0.0436009925820927,0.0413140963014163,-0.0237349121501714));
#1892=CARTESIAN_POINT('',(-0.0425289913418921,0.042077299697301,-0.0245940264477887));
#1893=CARTESIAN_POINT('',(-0.042,0.0425129176300634,-0.0249447259974532));
#1894=CARTESIAN_POINT('',(-0.0477768386863172,0.0456483999847936,-0.0210500179977213));
#1895=CARTESIAN_POINT('',(-0.0477768386863172,0.0723,0.012055));
#1896=CARTESIAN_POINT('',(-0.034,0.0723,0.012055));
#1897=CARTESIAN_POINT('',(-0.034,0.103498961511708,-0.0189711953934246));
#1898=CARTESIAN_POINT('',(-0.034,0.0921666559907955,-0.0272045972947175));
#1899=CARTESIAN_POINT('',(-0.044,0.103498961511708,-0.0189711953934246));
#1900=CARTESIAN_POINT('',(-0.034,0.0921666559907955,-0.0272045972947175));
#1901=CARTESIAN_POINT('',(-0.034,0.101972766763969,-0.0165996577814336));
#1902=CARTESIAN_POINT('',(-0.034,0.0735559732941652,0.0101642247398636));
#1903=CARTESIAN_POINT('',(-0.034,0.0910549773744208,-0.0257140505496963));
#1904=CARTESIAN_POINT('',(-0.034,0.0894464149756314,-0.0224160088840383));
#1905=CARTESIAN_POINT('',(-0.034,0.0723,0.012055));
#1906=CARTESIAN_POINT('',(-0.034,0.0997853440023575,-0.0149043372520926));
#1907=CARTESIAN_POINT('',(-0.034,0.0737101170396243,0.0102762167263657));
#1908=CARTESIAN_POINT('',(-0.034,0.102424894904529,-0.0174533219288513));
#1909=CARTESIAN_POINT('',(-0.034,0.0989516000152064,-0.0210500179977213));
#1910=CARTESIAN_POINT('',(-0.034,0.0955489457568188,-0.0235221910245385));
#1911=CARTESIAN_POINT('',(-0.0477768386863172,0.0723,0.012055));
#1912=CARTESIAN_POINT('',(-0.024,0.0723,0.012055));
#1913=CARTESIAN_POINT('',(-0.024,0.0997853440023575,-0.0149043372520926));
#1914=CARTESIAN_POINT('',(-0.024,0.0894464149756314,-0.0224160088840383));
#1915=CARTESIAN_POINT('',(-0.0477768386863172,0.0997853440023575,-0.0149043372520926));
#1916=CARTESIAN_POINT('',(-0.0477768386863172,0.0894464149756314,-0.0224160088840383));
#1917=CARTESIAN_POINT('',(-0.024,0.103231611414562,-0.0178153099297369));
#1918=CARTESIAN_POINT('',(-0.024,0.0723,0.012055));
#1919=CARTESIAN_POINT('',(-0.024,0.102087082369937,-0.0249447259974532));
#1920=CARTESIAN_POINT('',(-0.024,0.0982841158458563,-0.0277077429097782));
#1921=CARTESIAN_POINT('',(-0.024,0.0989516000152064,-0.0210500179977213));
#1922=CARTESIAN_POINT('',(-0.024,0.102424894904449,-0.0174533219287745));
#1923=CARTESIAN_POINT('',(-0.024,0.0737101170396243,0.0102762167263657));
#1924=CARTESIAN_POINT('',(-0.024,0.0735559732941652,0.0101642247398636));
#1925=CARTESIAN_POINT('',(-0.024,0.091054977374109,-0.0257140505490569));
#1926=CARTESIAN_POINT('',(-0.024,0.0955489457568188,-0.0235221910245385));
#1927=CARTESIAN_POINT('',(-0.0477768386863172,0.0723,0.012055));
#1928=CARTESIAN_POINT('',(-0.042,0.0723,0.012055));
#1929=CARTESIAN_POINT('',(-0.042,0.102087082369937,-0.0249447259974532));
#1930=CARTESIAN_POINT('',(-0.042,0.0982841158458563,-0.0277077429097782));
#1931=CARTESIAN_POINT('',(-0.024,0.102087082369937,-0.0249447259974532));
#1932=CARTESIAN_POINT('',(-0.042,0.0982841158458563,-0.0277077429097782));
#1933=CARTESIAN_POINT('',(-0.038,0.0737101170396243,0.0102762167263657));
#1934=CARTESIAN_POINT('',(-0.0477768386863172,0.102424891867501,-0.0174533189960281));
#1935=CARTESIAN_POINT('',(-0.038,0.0735559732941652,0.0101642247398636));
#1936=CARTESIAN_POINT('',(-0.038,0.0910549755253229,-0.0257140467584838));
#1937=CARTESIAN_POINT('',(-0.0477768386863172,0.0989516000152064,-0.0210500179977213));
#1938=CARTESIAN_POINT('',(-0.0469749371855331,0.102973862279371,-0.0180799327669104));
#1939=CARTESIAN_POINT('',(-0.0468975128570923,0.103437258594912,-0.0187074910248418));
#1940=CARTESIAN_POINT('',(-0.0463933256304355,0.104010226465757,-0.0201077586135192));
#1941=CARTESIAN_POINT('',(-0.0450992444416858,0.103957123843977,-0.0220882206847327));
#1942=CARTESIAN_POINT('',(-0.0436009925821331,0.103285903698554,-0.0237349121501953));
#1943=CARTESIAN_POINT('',(-0.042528991341805,0.102522700302763,-0.024594026447737));
#1944=CARTESIAN_POINT('',(-0.042,0.102087082369937,-0.0249447259974532));
#1945=CARTESIAN_POINT('',(-0.042,0.0723,0.012055));
#1946=CARTESIAN_POINT('',(-0.0469749371855331,0.0914812794486443,-0.0264297829500573));
#1947=CARTESIAN_POINT('',(-0.0468975128570923,0.0919349254825717,-0.0270644252022414));
#1948=CARTESIAN_POINT('',(-0.0463933256304345,0.0930896022880176,-0.0280420565110106));
#1949=CARTESIAN_POINT('',(-0.045099244441689,0.0949895432587,-0.0286035493532517));
#1950=CARTESIAN_POINT('',(-0.0436009925821208,0.096763058339146,-0.028474036707407));
#1951=CARTESIAN_POINT('',(-0.0425289913418312,0.0978159674095598,-0.0280136680626125));
#1952=CARTESIAN_POINT('',(-0.042,0.0982841158458563,-0.0277077429097782));
#1953=CARTESIAN_POINT('',(-0.0477768386863172,0.0955489457568188,-0.0235221910245385));
#1954=CARTESIAN_POINT('',(-0.0477768386863172,0.0723,0.012055));
#1955=CARTESIAN_POINT('',(-0.034,0.0723,0.012055));
#1956=CARTESIAN_POINT('',(-0.034,0.111448674618731,0.0321393539999857));
#1957=CARTESIAN_POINT('',(-0.034,0.115777230156821,0.0188174298806557));
#1958=CARTESIAN_POINT('',(-0.044,0.111448674618731,0.0321393539999857));
#1959=CARTESIAN_POINT('',(-0.034,0.115777230156821,0.0188174298806557));
#1960=CARTESIAN_POINT('',(-0.034,0.108721588205431,0.031420701964918));
#1961=CARTESIAN_POINT('',(-0.034,0.0744863512243805,0.0126652198977826));
#1962=CARTESIAN_POINT('',(-0.034,0.114016108378686,0.0182207649638316));
#1963=CARTESIAN_POINT('',(-0.034,0.110382411242508,0.0177100821352574));
#1964=CARTESIAN_POINT('',(-0.034,0.0723,0.012055));
#1965=CARTESIAN_POINT('',(-0.034,0.106433291761571,0.0298642221480739));
#1966=CARTESIAN_POINT('',(-0.034,0.0744274735527684,0.0128464267384106));
#1967=CARTESIAN_POINT('',(-0.034,0.109673186335049,0.0315869046503807));
#1968=CARTESIAN_POINT('',(-0.034,0.112020540420784,0.0271721647037697));
#1969=CARTESIAN_POINT('',(-0.034,0.113320238695523,0.0231721047203088));
#1970=CARTESIAN_POINT('',(-0.0477768386863172,0.0723,0.012055));
#1971=CARTESIAN_POINT('',(-0.024,0.0723,0.012055));
#1972=CARTESIAN_POINT('',(-0.024,0.106433291761571,0.0298642221480739));
#1973=CARTESIAN_POINT('',(-0.024,0.110382411242508,0.0177100821352574));
#1974=CARTESIAN_POINT('',(-0.0477768386863172,0.106433291761571,0.0298642221480739));
#1975=CARTESIAN_POINT('',(-0.0477768386863172,0.110382411242508,0.0177100821352574));
#1976=CARTESIAN_POINT('',(-0.024,0.110266746492934,0.0322422771997933));
#1977=CARTESIAN_POINT('',(-0.024,0.0723,0.012055));
#1978=CARTESIAN_POINT('',(-0.024,0.11669354517617,0.0289506546689191));
#1979=CARTESIAN_POINT('',(-0.024,0.11814614913029,0.0244799993932864));
#1980=CARTESIAN_POINT('',(-0.024,0.112020540420784,0.0271721647037697));
#1981=CARTESIAN_POINT('',(-0.024,0.109673186334901,0.0315869046503022));
#1982=CARTESIAN_POINT('',(-0.024,0.0744274735527684,0.0128464267384106));
#1983=CARTESIAN_POINT('',(-0.024,0.0744863512243805,0.0126652198977826));
#1984=CARTESIAN_POINT('',(-0.024,0.114016108378695,0.0182207649638328));
#1985=CARTESIAN_POINT('',(-0.024,0.113320238695523,0.0231721047203088));
#1986=CARTESIAN_POINT('',(-0.0477768386863172,0.0723,0.012055));
#1987=CARTESIAN_POINT('',(-0.042,0.0723,0.012055));
#1988=CARTESIAN_POINT('',(-0.042,0.11669354517617,0.0289506546689191));
#1989=CARTESIAN_POINT('',(-0.042,0.11814614913029,0.0244799993932864));
#1990=CARTESIAN_POINT('',(-0.024,0.11669354517617,0.0289506546689191));
#1991=CARTESIAN_POINT('',(-0.042,0.11814614913029,0.0244799993932864));
#1992=CARTESIAN_POINT('',(-0.038,0.0744274735527684,0.0128464267384106));
#1993=CARTESIAN_POINT('',(-0.0477768386863172,0.109673182606854,0.0315869026680644));
#1994=CARTESIAN_POINT('',(-0.038,0.0744863512243805,0.0126652198977826));
#1995=CARTESIAN_POINT('',(-0.038,0.114016104200323,0.0182207643766009));
#1996=CARTESIAN_POINT('',(-0.0477768386863172,0.112020540420784,0.0271721647037697));
#1997=CARTESIAN_POINT('',(-0.0469749371855331,0.110438768903529,0.0319153702514137));
#1998=CARTESIAN_POINT('',(-0.0468975128570923,0.111178809610722,0.0321621601702756));
#1999=CARTESIAN_POINT('',(-0.0463933256304281,0.11268760003481,0.0322743785159033));
#2000=CARTESIAN_POINT('',(-0.0450992444417115,0.114554721780348,0.0316118784846774));
#2001=CARTESIAN_POINT('',(-0.0436009925820373,0.115913399996961,0.0304646545442917));
#2002=CARTESIAN_POINT('',(-0.042528991342011,0.116494623428518,0.0294733240631487));
#2003=CARTESIAN_POINT('',(-0.042,0.11669354517617,0.0289506546689191));
#2004=CARTESIAN_POINT('',(-0.042,0.0723,0.012055));
#2005=CARTESIAN_POINT('',(-0.0469749371855331,0.114828544926343,0.0184050288541126));
#2006=CARTESIAN_POINT('',(-0.0468975128570923,0.115572309909713,0.0186403566294974));
#2007=CARTESIAN_POINT('',(-0.0463933256304324,0.116858907292346,0.0194364148408869));
#2008=CARTESIAN_POINT('',(-0.0450992444416963,0.11798003276706,0.0210698552511667));
#2009=CARTESIAN_POINT('',(-0.043600992582094,0.118404905220933,0.022796589933694));
#2010=CARTESIAN_POINT('',(-0.0425289913418894,0.118292435417672,0.0239402277011737));
#2011=CARTESIAN_POINT('',(-0.042,0.11814614913029,0.0244799993932864));
#2012=CARTESIAN_POINT('',(-0.0477768386863172,0.113320238695523,0.0231721047203088));
#2013=CARTESIAN_POINT('',(-0.047,0.0723,0.012055));
#2014=MECHANICAL_DESIGN_GEOMETRIC_PRESENTATION_REPRESENTATION('',(#1113),
#2015);
#2015=(
GEOMETRIC_REPRESENTATION_CONTEXT(3)
GLOBAL_UNCERTAINTY_ASSIGNED_CONTEXT((#2016))
GLOBAL_UNIT_ASSIGNED_CONTEXT((#2019,#2018,#2017))
REPRESENTATION_CONTEXT('Hip Support Roll Giver',
'TOP_LEVEL_ASSEMBLY_PART')
);
#2016=UNCERTAINTY_MEASURE_WITH_UNIT(LENGTH_MEASURE(2.E-5),#2019,
'DISTANCE_ACCURACY_VALUE','Maximum Tolerance applied to model');
#2017=(
NAMED_UNIT(*)
SI_UNIT($,.STERADIAN.)
SOLID_ANGLE_UNIT()
);
#2018=(
NAMED_UNIT(*)
PLANE_ANGLE_UNIT()
SI_UNIT($,.RADIAN.)
);
#2019=(
LENGTH_UNIT()
NAMED_UNIT(*)
SI_UNIT($,.METRE.)
);
#2020=PRODUCT_DEFINITION_SHAPE('','',#2021);
#2021=PRODUCT_DEFINITION('','',#2023,#2022);
#2022=PRODUCT_DEFINITION_CONTEXT('',#2029,'design');
#2023=PRODUCT_DEFINITION_FORMATION_WITH_SPECIFIED_SOURCE('','',#2025,
 .NOT_KNOWN.);
#2024=PRODUCT_RELATED_PRODUCT_CATEGORY('','',(#2025));
#2025=PRODUCT('Hip Support Roll Giver','Hip Support Roll Giver',
'Hip Support Roll Giver',(#2027));
#2026=PRODUCT_CATEGORY('','');
#2027=PRODUCT_CONTEXT('',#2029,'mechanical');
#2028=APPLICATION_PROTOCOL_DEFINITION('international standard',
'ap242_managed_model_based_3d_engineering',2020,#2029);
#2029=APPLICATION_CONTEXT('managed model based 3d engineering');
ENDSEC;
END-ISO-10303-21;
