ISO-10303-21;
HEADER;
/* Generated by software containing ST-Developer
 * from STEP Tools, Inc. (www.steptools.com) 
 */
/* OPTION: using custom renumber hook */

FILE_DESCRIPTION(
/* description */ ('STEP AP242 Edition 2',
'CAx-IF Rec.Pracs.---Representation and Presentation of Product Manufa
cturing Information (PMI)---4.0---2014-10-13',
'CAx-IF Rec.Pracs.---3D Tessellated Geometry---0.4---2014-09-14','2;1',
'CAx-IF Rec.Pracs.---User Defined Attributes---1.5---2016-08-15'),
/* implementation_level */ '2;1');

FILE_NAME(
/* name */ 'robot - Hips connector',
/* time_stamp */ '2026-08-16T03:04:30Z',
/* author */ (''),
/* organization */ (''),
/* preprocessor_version */ 'ST-DEVELOPER v20',
/* originating_system */ 'ONSHAPE BY PTC INC, 1.219',
/* authorisation */ '  ');

FILE_SCHEMA (('AP242_MANAGED_MODEL_BASED_3D_ENGINEERING_MIM_LF { 1 0 10303 442 3 1 4 }'));
ENDSEC;

DATA;
#10=SHAPE_REPRESENTATION_RELATIONSHIP('','',#271,#11);
#11=ADVANCED_BREP_SHAPE_REPRESENTATION('',(#269),#537);
#12=PLANE('',#288);
#13=PLANE('',#289);
#14=PLANE('',#291);
#15=PLANE('',#292);
#16=PLANE('',#293);
#17=PLANE('',#294);
#18=CIRCLE('',#279,0.04215);
#19=CIRCLE('',#280,0.04215);
#20=CIRCLE('',#281,0.04215);
#21=CIRCLE('',#282,0.04215);
#22=CIRCLE('',#284,0.047);
#23=CIRCLE('',#285,0.047);
#24=CIRCLE('',#286,0.047);
#25=CIRCLE('',#287,0.047);
#26=LINE('',#476,#34);
#27=LINE('',#481,#35);
#28=LINE('',#504,#36);
#29=LINE('',#508,#37);
#30=LINE('',#529,#38);
#31=LINE('',#530,#39);
#32=LINE('',#532,#40);
#33=LINE('',#534,#41);
#34=VECTOR('',#309,1.);
#35=VECTOR('',#312,1.);
#36=VECTOR('',#323,1.);
#37=VECTOR('',#326,1.);
#38=VECTOR('',#339,1.);
#39=VECTOR('',#340,1.);
#40=VECTOR('',#343,1.);
#41=VECTOR('',#346,1.);
#42=ORIENTED_EDGE('',*,*,#98,.F.);
#43=ORIENTED_EDGE('',*,*,#99,.F.);
#44=ORIENTED_EDGE('',*,*,#100,.F.);
#45=ORIENTED_EDGE('',*,*,#101,.F.);
#46=ORIENTED_EDGE('',*,*,#102,.F.);
#47=ORIENTED_EDGE('',*,*,#103,.F.);
#48=ORIENTED_EDGE('',*,*,#104,.T.);
#49=ORIENTED_EDGE('',*,*,#105,.T.);
#50=ORIENTED_EDGE('',*,*,#106,.T.);
#51=ORIENTED_EDGE('',*,*,#107,.T.);
#52=ORIENTED_EDGE('',*,*,#108,.F.);
#53=ORIENTED_EDGE('',*,*,#109,.T.);
#54=ORIENTED_EDGE('',*,*,#110,.T.);
#55=ORIENTED_EDGE('',*,*,#111,.F.);
#56=ORIENTED_EDGE('',*,*,#98,.T.);
#57=ORIENTED_EDGE('',*,*,#102,.T.);
#58=ORIENTED_EDGE('',*,*,#100,.T.);
#59=ORIENTED_EDGE('',*,*,#104,.F.);
#60=ORIENTED_EDGE('',*,*,#106,.F.);
#61=ORIENTED_EDGE('',*,*,#112,.F.);
#62=ORIENTED_EDGE('',*,*,#113,.T.);
#63=ORIENTED_EDGE('',*,*,#114,.F.);
#64=ORIENTED_EDGE('',*,*,#115,.T.);
#65=ORIENTED_EDGE('',*,*,#116,.F.);
#66=ORIENTED_EDGE('',*,*,#117,.F.);
#67=ORIENTED_EDGE('',*,*,#118,.T.);
#68=ORIENTED_EDGE('',*,*,#99,.T.);
#69=ORIENTED_EDGE('',*,*,#103,.T.);
#70=ORIENTED_EDGE('',*,*,#101,.T.);
#71=ORIENTED_EDGE('',*,*,#105,.F.);
#72=ORIENTED_EDGE('',*,*,#107,.F.);
#73=ORIENTED_EDGE('',*,*,#119,.F.);
#74=ORIENTED_EDGE('',*,*,#120,.F.);
#75=ORIENTED_EDGE('',*,*,#121,.T.);
#76=ORIENTED_EDGE('',*,*,#113,.F.);
#77=ORIENTED_EDGE('',*,*,#120,.T.);
#78=ORIENTED_EDGE('',*,*,#114,.T.);
#79=ORIENTED_EDGE('',*,*,#121,.F.);
#80=ORIENTED_EDGE('',*,*,#112,.T.);
#81=ORIENTED_EDGE('',*,*,#119,.T.);
#82=ORIENTED_EDGE('',*,*,#122,.F.);
#83=ORIENTED_EDGE('',*,*,#118,.F.);
#84=ORIENTED_EDGE('',*,*,#123,.T.);
#85=ORIENTED_EDGE('',*,*,#110,.F.);
#86=ORIENTED_EDGE('',*,*,#111,.T.);
#87=ORIENTED_EDGE('',*,*,#123,.F.);
#88=ORIENTED_EDGE('',*,*,#117,.T.);
#89=ORIENTED_EDGE('',*,*,#124,.T.);
#90=ORIENTED_EDGE('',*,*,#125,.F.);
#91=ORIENTED_EDGE('',*,*,#115,.F.);
#92=ORIENTED_EDGE('',*,*,#122,.T.);
#93=ORIENTED_EDGE('',*,*,#109,.F.);
#94=ORIENTED_EDGE('',*,*,#108,.T.);
#95=ORIENTED_EDGE('',*,*,#124,.F.);
#96=ORIENTED_EDGE('',*,*,#116,.T.);
#97=ORIENTED_EDGE('',*,*,#125,.T.);
#98=EDGE_CURVE('',#126,#126,#150,.T.);
#99=EDGE_CURVE('',#127,#127,#151,.T.);
#100=EDGE_CURVE('',#128,#128,#152,.T.);
#101=EDGE_CURVE('',#129,#129,#153,.T.);
#102=EDGE_CURVE('',#130,#130,#154,.T.);
#103=EDGE_CURVE('',#131,#131,#155,.T.);
#104=EDGE_CURVE('',#132,#132,#156,.T.);
#105=EDGE_CURVE('',#133,#133,#157,.T.);
#106=EDGE_CURVE('',#134,#134,#158,.T.);
#107=EDGE_CURVE('',#135,#135,#159,.T.);
#108=EDGE_CURVE('',#136,#137,#26,.F.);
#109=EDGE_CURVE('',#136,#138,#18,.T.);
#110=EDGE_CURVE('',#138,#139,#27,.F.);
#111=EDGE_CURVE('',#137,#139,#19,.T.);
#112=EDGE_CURVE('',#140,#140,#160,.T.);
#113=EDGE_CURVE('',#141,#141,#20,.T.);
#114=EDGE_CURVE('',#142,#142,#21,.T.);
#115=EDGE_CURVE('',#143,#144,#22,.F.);
#116=EDGE_CURVE('',#145,#144,#28,.T.);
#117=EDGE_CURVE('',#146,#145,#23,.F.);
#118=EDGE_CURVE('',#146,#143,#29,.T.);
#119=EDGE_CURVE('',#147,#147,#161,.T.);
#120=EDGE_CURVE('',#148,#148,#24,.T.);
#121=EDGE_CURVE('',#149,#149,#25,.T.);
#122=EDGE_CURVE('',#143,#138,#30,.T.);
#123=EDGE_CURVE('',#146,#139,#31,.T.);
#124=EDGE_CURVE('',#145,#137,#32,.T.);
#125=EDGE_CURVE('',#144,#136,#33,.T.);
#126=VERTEX_POINT('',#362);
#127=VERTEX_POINT('',#374);
#128=VERTEX_POINT('',#387);
#129=VERTEX_POINT('',#399);
#130=VERTEX_POINT('',#412);
#131=VERTEX_POINT('',#424);
#132=VERTEX_POINT('',#437);
#133=VERTEX_POINT('',#449);
#134=VERTEX_POINT('',#462);
#135=VERTEX_POINT('',#474);
#136=VERTEX_POINT('',#477);
#137=VERTEX_POINT('',#478);
#138=VERTEX_POINT('',#480);
#139=VERTEX_POINT('',#482);
#140=VERTEX_POINT('',#495);
#141=VERTEX_POINT('',#497);
#142=VERTEX_POINT('',#499);
#143=VERTEX_POINT('',#502);
#144=VERTEX_POINT('',#503);
#145=VERTEX_POINT('',#505);
#146=VERTEX_POINT('',#507);
#147=VERTEX_POINT('',#520);
#148=VERTEX_POINT('',#522);
#149=VERTEX_POINT('',#524);
#150=B_SPLINE_CURVE_WITH_KNOTS('',3,(#351,#352,#353,#354,#355,#356,#357,
#358,#359,#360,#361),.UNSPECIFIED.,.T.,.F.,(1,1,1,1,1,1,1,1,1,1,1,1,1,1,
1),(-0.00375165931774919,-0.00250110621183279,-0.0012505531059164,0.,0.0012505531059164,
0.00250110621183279,0.00375165931774919,0.00500221242366558,0.00625276552958198,
0.00750331863549837,0.00875387174141477,0.0100044248473312,0.0112549779532476,
0.012505531059164,0.0137560841650804),.UNSPECIFIED.);
#151=B_SPLINE_CURVE_WITH_KNOTS('',3,(#363,#364,#365,#366,#367,#368,#369,
#370,#371,#372,#373),.UNSPECIFIED.,.T.,.F.,(1,1,1,1,1,1,1,1,1,1,1,1,1,1,
1),(-0.00375159393547382,-0.00250106262364921,-0.00125053131182461,0.,0.00125053131182461,
0.00250106262364921,0.00375159393547382,0.00500212524729843,0.00625265655912304,
0.00750318787094764,0.00875371918277225,0.0100042504945969,0.0112547818064215,
0.0125053131182461,0.0137558444300707),.UNSPECIFIED.);
#152=B_SPLINE_CURVE_WITH_KNOTS('',3,(#376,#377,#378,#379,#380,#381,#382,
#383,#384,#385,#386),.UNSPECIFIED.,.T.,.F.,(1,1,1,1,1,1,1,1,1,1,1,1,1,1,
1),(-0.00375165931774925,-0.00250110621183283,-0.00125055310591642,0.,0.00125055310591642,
0.00250110621183283,0.00375165931774925,0.00500221242366567,0.00625276552958208,
0.0075033186354985,0.00875387174141492,0.0100044248473313,0.0112549779532478,
0.0125055310591642,0.0137560841650806),.UNSPECIFIED.);
#153=B_SPLINE_CURVE_WITH_KNOTS('',3,(#388,#389,#390,#391,#392,#393,#394,
#395,#396,#397,#398),.UNSPECIFIED.,.T.,.F.,(1,1,1,1,1,1,1,1,1,1,1,1,1,1,
1),(-0.00375159393547386,-0.00250106262364924,-0.00125053131182462,0.,0.00125053131182462,
0.00250106262364924,0.00375159393547386,0.00500212524729848,0.00625265655912309,
0.00750318787094771,0.00875371918277233,0.010004250494597,0.0112547818064216,
0.0125053131182462,0.0137558444300708),.UNSPECIFIED.);
#154=B_SPLINE_CURVE_WITH_KNOTS('',3,(#401,#402,#403,#404,#405,#406,#407,
#408,#409,#410,#411),.UNSPECIFIED.,.T.,.F.,(1,1,1,1,1,1,1,1,1,1,1,1,1,1,
1),(-0.00375165931774919,-0.00250110621183279,-0.0012505531059164,0.,0.0012505531059164,
0.00250110621183279,0.00375165931774919,0.00500221242366559,0.00625276552958198,
0.00750331863549838,0.00875387174141477,0.0100044248473312,0.0112549779532476,
0.012505531059164,0.0137560841650804),.UNSPECIFIED.);
#155=B_SPLINE_CURVE_WITH_KNOTS('',3,(#413,#414,#415,#416,#417,#418,#419,
#420,#421,#422,#423),.UNSPECIFIED.,.T.,.F.,(1,1,1,1,1,1,1,1,1,1,1,1,1,1,
1),(-0.00375159393547384,-0.00250106262364923,-0.00125053131182461,0.,0.00125053131182461,
0.00250106262364923,0.00375159393547384,0.00500212524729846,0.00625265655912307,
0.00750318787094769,0.0087537191827723,0.0100042504945969,0.0112547818064215,
0.0125053131182461,0.0137558444300708),.UNSPECIFIED.);
#156=B_SPLINE_CURVE_WITH_KNOTS('',3,(#426,#427,#428,#429,#430,#431,#432,
#433,#434,#435,#436),.UNSPECIFIED.,.T.,.F.,(1,1,1,1,1,1,1,1,1,1,1,1,1,1,
1),(-0.00375165931774925,-0.00250110621183283,-0.00125055310591642,0.,0.00125055310591642,
0.00250110621183283,0.00375165931774925,0.00500221242366567,0.00625276552958208,
0.0075033186354985,0.00875387174141492,0.0100044248473313,0.0112549779532478,
0.0125055310591642,0.0137560841650806),.UNSPECIFIED.);
#157=B_SPLINE_CURVE_WITH_KNOTS('',3,(#438,#439,#440,#441,#442,#443,#444,
#445,#446,#447,#448),.UNSPECIFIED.,.T.,.F.,(1,1,1,1,1,1,1,1,1,1,1,1,1,1,
1),(-0.00375159393547386,-0.00250106262364924,-0.00125053131182462,0.,0.00125053131182462,
0.00250106262364924,0.00375159393547386,0.00500212524729848,0.00625265655912309,
0.00750318787094771,0.00875371918277233,0.010004250494597,0.0112547818064216,
0.0125053131182462,0.0137558444300708),.UNSPECIFIED.);
#158=B_SPLINE_CURVE_WITH_KNOTS('',3,(#451,#452,#453,#454,#455,#456,#457,
#458,#459,#460,#461),.UNSPECIFIED.,.T.,.F.,(1,1,1,1,1,1,1,1,1,1,1,1,1,1,
1),(-0.00375165931774919,-0.00250110621183279,-0.0012505531059164,0.,0.0012505531059164,
0.00250110621183279,0.00375165931774919,0.00500221242366559,0.00625276552958198,
0.00750331863549838,0.00875387174141477,0.0100044248473312,0.0112549779532476,
0.012505531059164,0.0137560841650804),.UNSPECIFIED.);
#159=B_SPLINE_CURVE_WITH_KNOTS('',3,(#463,#464,#465,#466,#467,#468,#469,
#470,#471,#472,#473),.UNSPECIFIED.,.T.,.F.,(1,1,1,1,1,1,1,1,1,1,1,1,1,1,
1),(-0.00375159393547384,-0.00250106262364923,-0.00125053131182461,0.,0.00125053131182461,
0.00250106262364923,0.00375159393547384,0.00500212524729846,0.00625265655912307,
0.00750318787094769,0.0087537191827723,0.0100042504945969,0.0112547818064215,
0.0125053131182461,0.0137558444300708),.UNSPECIFIED.);
#160=B_SPLINE_CURVE_WITH_KNOTS('',3,(#484,#485,#486,#487,#488,#489,#490,
#491,#492,#493,#494),.UNSPECIFIED.,.T.,.F.,(1,1,1,1,1,1,1,1,1,1,1,1,1,1,
1),(-0.00375165931774919,-0.00250110621183279,-0.0012505531059164,0.,0.0012505531059164,
0.00250110621183279,0.00375165931774919,0.00500221242366558,0.00625276552958198,
0.00750331863549837,0.00875387174141477,0.0100044248473312,0.0112549779532476,
0.012505531059164,0.0137560841650804),.UNSPECIFIED.);
#161=B_SPLINE_CURVE_WITH_KNOTS('',3,(#509,#510,#511,#512,#513,#514,#515,
#516,#517,#518,#519),.UNSPECIFIED.,.T.,.F.,(1,1,1,1,1,1,1,1,1,1,1,1,1,1,
1),(-0.00375159393547382,-0.00250106262364921,-0.00125053131182461,0.,0.00125053131182461,
0.00250106262364921,0.00375159393547382,0.00500212524729843,0.00625265655912304,
0.00750318787094764,0.00875371918277225,0.0100042504945969,0.0112547818064215,
0.0125053131182461,0.0137558444300707),.UNSPECIFIED.);
#162=EDGE_LOOP('',(#42));
#163=EDGE_LOOP('',(#43));
#164=EDGE_LOOP('',(#44));
#165=EDGE_LOOP('',(#45));
#166=EDGE_LOOP('',(#46));
#167=EDGE_LOOP('',(#47));
#168=EDGE_LOOP('',(#48));
#169=EDGE_LOOP('',(#49));
#170=EDGE_LOOP('',(#50));
#171=EDGE_LOOP('',(#51));
#172=EDGE_LOOP('',(#52,#53,#54,#55));
#173=EDGE_LOOP('',(#56));
#174=EDGE_LOOP('',(#57));
#175=EDGE_LOOP('',(#58));
#176=EDGE_LOOP('',(#59));
#177=EDGE_LOOP('',(#60));
#178=EDGE_LOOP('',(#61));
#179=EDGE_LOOP('',(#62));
#180=EDGE_LOOP('',(#63));
#181=EDGE_LOOP('',(#64,#65,#66,#67));
#182=EDGE_LOOP('',(#68));
#183=EDGE_LOOP('',(#69));
#184=EDGE_LOOP('',(#70));
#185=EDGE_LOOP('',(#71));
#186=EDGE_LOOP('',(#72));
#187=EDGE_LOOP('',(#73));
#188=EDGE_LOOP('',(#74));
#189=EDGE_LOOP('',(#75));
#190=EDGE_LOOP('',(#76));
#191=EDGE_LOOP('',(#77));
#192=EDGE_LOOP('',(#78));
#193=EDGE_LOOP('',(#79));
#194=EDGE_LOOP('',(#80));
#195=EDGE_LOOP('',(#81));
#196=EDGE_LOOP('',(#82,#83,#84,#85));
#197=EDGE_LOOP('',(#86,#87,#88,#89));
#198=EDGE_LOOP('',(#90,#91,#92,#93));
#199=EDGE_LOOP('',(#94,#95,#96,#97));
#200=FACE_BOUND('',#162,.T.);
#201=FACE_BOUND('',#163,.T.);
#202=FACE_BOUND('',#164,.T.);
#203=FACE_BOUND('',#165,.T.);
#204=FACE_BOUND('',#166,.T.);
#205=FACE_BOUND('',#167,.T.);
#206=FACE_BOUND('',#168,.T.);
#207=FACE_BOUND('',#169,.T.);
#208=FACE_BOUND('',#170,.T.);
#209=FACE_BOUND('',#171,.T.);
#210=FACE_BOUND('',#172,.T.);
#211=FACE_BOUND('',#173,.T.);
#212=FACE_BOUND('',#174,.T.);
#213=FACE_BOUND('',#175,.T.);
#214=FACE_BOUND('',#176,.T.);
#215=FACE_BOUND('',#177,.T.);
#216=FACE_BOUND('',#178,.T.);
#217=FACE_BOUND('',#179,.T.);
#218=FACE_BOUND('',#180,.T.);
#219=FACE_BOUND('',#181,.T.);
#220=FACE_BOUND('',#182,.T.);
#221=FACE_BOUND('',#183,.T.);
#222=FACE_BOUND('',#184,.T.);
#223=FACE_BOUND('',#185,.T.);
#224=FACE_BOUND('',#186,.T.);
#225=FACE_BOUND('',#187,.T.);
#226=FACE_BOUND('',#188,.T.);
#227=FACE_BOUND('',#189,.T.);
#228=FACE_BOUND('',#190,.T.);
#229=FACE_BOUND('',#191,.T.);
#230=FACE_BOUND('',#192,.T.);
#231=FACE_BOUND('',#193,.T.);
#232=FACE_BOUND('',#194,.T.);
#233=FACE_BOUND('',#195,.T.);
#234=FACE_BOUND('',#196,.T.);
#235=FACE_BOUND('',#197,.T.);
#236=FACE_BOUND('',#198,.T.);
#237=FACE_BOUND('',#199,.T.);
#238=CYLINDRICAL_SURFACE('',#273,0.0016);
#239=CYLINDRICAL_SURFACE('',#274,0.0016);
#240=CYLINDRICAL_SURFACE('',#275,0.0016);
#241=CYLINDRICAL_SURFACE('',#276,0.0016);
#242=CYLINDRICAL_SURFACE('',#277,0.0016);
#243=CYLINDRICAL_SURFACE('',#278,0.04215);
#244=CYLINDRICAL_SURFACE('',#283,0.047);
#245=CYLINDRICAL_SURFACE('',#290,0.0016);
#246=ADVANCED_FACE('',(#200,#201),#238,.F.);
#247=ADVANCED_FACE('',(#202,#203),#239,.F.);
#248=ADVANCED_FACE('',(#204,#205),#240,.F.);
#249=ADVANCED_FACE('',(#206,#207),#241,.F.);
#250=ADVANCED_FACE('',(#208,#209),#242,.F.);
#251=ADVANCED_FACE('',(#210,#211,#212,#213,#214,#215,#216,#217,#218),#243,
 .F.);
#252=ADVANCED_FACE('',(#219,#220,#221,#222,#223,#224,#225,#226,#227),#244,
 .T.);
#253=ADVANCED_FACE('',(#228,#229),#12,.T.);
#254=ADVANCED_FACE('',(#230,#231),#13,.F.);
#255=ADVANCED_FACE('',(#232,#233),#245,.F.);
#256=ADVANCED_FACE('',(#234),#14,.T.);
#257=ADVANCED_FACE('',(#235),#15,.F.);
#258=ADVANCED_FACE('',(#236),#16,.T.);
#259=ADVANCED_FACE('',(#237),#17,.F.);
#260=CLOSED_SHELL('',(#246,#247,#248,#249,#250,#251,#252,#253,#254,#255,
#256,#257,#258,#259));
#261=STYLED_ITEM('',(#262),#269);
#262=PRESENTATION_STYLE_ASSIGNMENT((#263));
#263=SURFACE_STYLE_USAGE(.BOTH.,#264);
#264=SURFACE_SIDE_STYLE('',(#265));
#265=SURFACE_STYLE_FILL_AREA(#266);
#266=FILL_AREA_STYLE('',(#267));
#267=FILL_AREA_STYLE_COLOUR('',#268);
#268=COLOUR_RGB('',0.615686274509804,0.811764705882353,0.929411764705882);
#269=MANIFOLD_SOLID_BREP('Hips connector',#260);
#270=SHAPE_DEFINITION_REPRESENTATION(#542,#271);
#271=SHAPE_REPRESENTATION('Hips connector',(#272),#537);
#272=AXIS2_PLACEMENT_3D('',#349,#295,#296);
#273=AXIS2_PLACEMENT_3D('',#350,#297,#298);
#274=AXIS2_PLACEMENT_3D('',#375,#299,#300);
#275=AXIS2_PLACEMENT_3D('',#400,#301,#302);
#276=AXIS2_PLACEMENT_3D('',#425,#303,#304);
#277=AXIS2_PLACEMENT_3D('',#450,#305,#306);
#278=AXIS2_PLACEMENT_3D('',#475,#307,#308);
#279=AXIS2_PLACEMENT_3D('',#479,#310,#311);
#280=AXIS2_PLACEMENT_3D('',#483,#313,#314);
#281=AXIS2_PLACEMENT_3D('',#496,#315,#316);
#282=AXIS2_PLACEMENT_3D('',#498,#317,#318);
#283=AXIS2_PLACEMENT_3D('',#500,#319,#320);
#284=AXIS2_PLACEMENT_3D('',#501,#321,#322);
#285=AXIS2_PLACEMENT_3D('',#506,#324,#325);
#286=AXIS2_PLACEMENT_3D('',#521,#327,#328);
#287=AXIS2_PLACEMENT_3D('',#523,#329,#330);
#288=AXIS2_PLACEMENT_3D('',#525,#331,#332);
#289=AXIS2_PLACEMENT_3D('',#526,#333,#334);
#290=AXIS2_PLACEMENT_3D('',#527,#335,#336);
#291=AXIS2_PLACEMENT_3D('',#528,#337,#338);
#292=AXIS2_PLACEMENT_3D('',#531,#341,#342);
#293=AXIS2_PLACEMENT_3D('',#533,#344,#345);
#294=AXIS2_PLACEMENT_3D('',#535,#347,#348);
#295=DIRECTION('',(0.,0.,1.));
#296=DIRECTION('',(1.,0.,0.));
#297=DIRECTION('',(0.,0.,1.));
#298=DIRECTION('',(1.,0.,0.));
#299=DIRECTION('',(-0.866025403784438,0.,-0.5));
#300=DIRECTION('',(-0.5,0.,0.866025403784438));
#301=DIRECTION('',(0.866025403784439,0.,-0.5));
#302=DIRECTION('',(-0.5,0.,-0.866025403784439));
#303=DIRECTION('',(-0.866025403784438,0.,-0.5));
#304=DIRECTION('',(-0.5,0.,0.866025403784438));
#305=DIRECTION('',(0.866025403784439,0.,-0.5));
#306=DIRECTION('',(-0.5,0.,-0.866025403784439));
#307=DIRECTION('',(0.,1.,0.));
#308=DIRECTION('',(0.,0.,1.));
#309=DIRECTION('',(0.,1.,0.));
#310=DIRECTION('',(0.,-1.,0.));
#311=DIRECTION('',(0.,0.,-1.));
#312=DIRECTION('',(0.,1.,0.));
#313=DIRECTION('',(0.,-1.,0.));
#314=DIRECTION('',(0.,0.,-1.));
#315=DIRECTION('',(0.,-1.,0.));
#316=DIRECTION('',(0.,0.,-1.));
#317=DIRECTION('',(0.,-1.,0.));
#318=DIRECTION('',(0.,0.,-1.));
#319=DIRECTION('',(0.,1.,0.));
#320=DIRECTION('',(0.,0.,1.));
#321=DIRECTION('',(0.,-1.,0.));
#322=DIRECTION('',(0.,0.,-1.));
#323=DIRECTION('',(0.,1.,0.));
#324=DIRECTION('',(0.,-1.,0.));
#325=DIRECTION('',(0.,0.,-1.));
#326=DIRECTION('',(0.,1.,0.));
#327=DIRECTION('',(0.,-1.,0.));
#328=DIRECTION('',(0.,0.,-1.));
#329=DIRECTION('',(0.,-1.,0.));
#330=DIRECTION('',(0.,0.,-1.));
#331=DIRECTION('',(0.,-1.,0.));
#332=DIRECTION('',(1.,0.,0.));
#333=DIRECTION('',(0.,-1.,0.));
#334=DIRECTION('',(1.,0.,0.));
#335=DIRECTION('',(0.,0.,1.));
#336=DIRECTION('',(1.,0.,0.));
#337=DIRECTION('',(-1.,1.38777878078145E-16,0.));
#338=DIRECTION('',(-1.38777878078145E-16,-1.,0.));
#339=DIRECTION('',(0.,0.,1.));
#340=DIRECTION('',(0.,0.,1.));
#341=DIRECTION('',(0.,-1.,0.));
#342=DIRECTION('',(0.,0.,-1.));
#343=DIRECTION('',(0.,0.,1.));
#344=DIRECTION('',(0.,-1.,0.));
#345=DIRECTION('',(0.,0.,-1.));
#346=DIRECTION('',(0.,0.,1.));
#347=DIRECTION('',(-1.,1.38777878078145E-16,0.));
#348=DIRECTION('',(-1.38777878078145E-16,-1.,0.));
#349=CARTESIAN_POINT('',(0.,0.,0.));
#350=CARTESIAN_POINT('',(-3.03576608295941E-18,-0.04,-0.047002));
#351=CARTESIAN_POINT('',(0.00125279706349801,-0.0387447993343032,-0.0421348550357101));
#352=CARTESIAN_POINT('',(0.00177350079841456,-0.0400003213062979,-0.0421120118787708));
#353=CARTESIAN_POINT('',(0.00125319974284375,-0.0412539154405051,-0.0421348253592209));
#354=CARTESIAN_POINT('',(1.30453357345858E-6,-0.0417728627703328,-0.0421575837347085));
#355=CARTESIAN_POINT('',(-0.00125329905475938,-0.0412546321134583,-0.0421348396501414));
#356=CARTESIAN_POINT('',(-0.00177292497157134,-0.0400002406070228,-0.0421120295445437));
#357=CARTESIAN_POINT('',(-0.00125500045231099,-0.0387478183120397,-0.0421347701047427));
#358=CARTESIAN_POINT('',(-1.87770712032645E-6,-0.0382268468171388,-0.0421575936682448));
#359=CARTESIAN_POINT('',(0.00125279706349801,-0.0387447993343032,-0.0421348550357101));
#360=CARTESIAN_POINT('',(0.00177350079841456,-0.0400003213062979,-0.0421120118787708));
#361=CARTESIAN_POINT('',(0.00125319974284375,-0.0412539154405051,-0.0421348253592209));
#362=CARTESIAN_POINT('',(0.0016,-0.04,-0.0421196213183357));
#363=CARTESIAN_POINT('',(0.00125279783694661,-0.0412552012698787,-0.0469864178790786));
#364=CARTESIAN_POINT('',(0.00177350027020943,-0.0399996784539657,-0.0469659348128079));
#365=CARTESIAN_POINT('',(0.00125320108221566,-0.0387460849142586,-0.0469863912448076));
#366=CARTESIAN_POINT('',(1.30194961066014E-6,-0.0382271382952589,-0.0470068011345604));
#367=CARTESIAN_POINT('',(-0.00125329424935245,-0.0387453632671773,-0.0469864041705687));
#368=CARTESIAN_POINT('',(-0.00177292650353291,-0.0399997617143314,-0.0469659506303252));
#369=CARTESIAN_POINT('',(-0.00125499913122435,-0.0412521808289891,-0.0469863417038656));
#370=CARTESIAN_POINT('',(-1.88251263050814E-6,-0.0417731532422219,-0.0470068100622874));
#371=CARTESIAN_POINT('',(0.00125279783694661,-0.0412552012698787,-0.0469864178790786));
#372=CARTESIAN_POINT('',(0.00177350027020943,-0.0399996784539657,-0.0469659348128079));
#373=CARTESIAN_POINT('',(0.00125320108221566,-0.0387460849142586,-0.0469863912448076));
#374=CARTESIAN_POINT('',(0.0016,-0.04,-0.0469727580625196));
#375=CARTESIAN_POINT('',(0.0407049260286762,-0.04,0.023501));
#376=CARTESIAN_POINT('',(0.0358634563139506,-0.0387447993343032,0.0221523816006309));
#377=CARTESIAN_POINT('',(0.0355833216922802,-0.0400003213062979,0.0225919026844444));
#378=CARTESIAN_POINT('',(0.0358632292736842,-0.041253915440505,0.0221527154929293));
#379=CARTESIAN_POINT('',(0.0365088862096405,-0.0417728627703328,0.0210799216265689));
#380=CARTESIAN_POINT('',(0.0371164910487859,-0.0412546321134583,0.01998203100511));
#381=CARTESIAN_POINT('',(0.0373565498762814,-0.0400002406070228,0.0195206167078873));
#382=CARTESIAN_POINT('',(0.0371172815194798,-0.0387478183120397,0.0199805227789091));
#383=CARTESIAN_POINT('',(0.0365104859326822,-0.0382268468171388,0.0210771706920553));
#384=CARTESIAN_POINT('',(0.0358634563139506,-0.0387447993343032,0.0221523816006309));
#385=CARTESIAN_POINT('',(0.0355833216922802,-0.0400003213062979,0.0225919026844444));
#386=CARTESIAN_POINT('',(0.0358632292736842,-0.041253915440505,0.0221527154929293));
#387=CARTESIAN_POINT('',(0.0356766620594593,-0.04,0.0224454513052229));
#388=CARTESIAN_POINT('',(0.0400650325976401,-0.0412552012698786,0.0245781636921412));
#389=CARTESIAN_POINT('',(0.0397869425252708,-0.0399996784539657,0.0250188636940239));
#390=CARTESIAN_POINT('',(0.0400648079090503,-0.0387460849142586,0.0245784995956527));
#391=CARTESIAN_POINT('',(0.0407084329583671,-0.0382271382952589,0.0235045280887175));
#392=CARTESIAN_POINT('',(0.0413180667688719,-0.0387453632671773,0.0224078174269282));
#393=CARTESIAN_POINT('',(0.0415601696105139,-0.0399997617143314,0.0219475759240604));
#394=CARTESIAN_POINT('',(0.041318865112056,-0.0412521808289891,0.0224063097225651));
#395=CARTESIAN_POINT('',(0.0407100329211261,-0.0417731532422219,0.0235017747273827));
#396=CARTESIAN_POINT('',(0.0400650325976401,-0.0412552012698786,0.0245781636921412));
#397=CARTESIAN_POINT('',(0.0397869425252708,-0.0399996784539657,0.0250188636940239));
#398=CARTESIAN_POINT('',(0.0400648079090503,-0.0387460849142586,0.0245784995956527));
#399=CARTESIAN_POINT('',(0.0398796017679622,-0.04,0.0248720196773149));
#400=CARTESIAN_POINT('',(-0.0407049260286762,-0.04,0.023501));
#401=CARTESIAN_POINT('',(-0.0371162533774486,-0.0387447993343032,0.0199824734350792));
#402=CARTESIAN_POINT('',(-0.0373568224906949,-0.0400003213062979,0.0195201091943264));
#403=CARTESIAN_POINT('',(-0.037116429016528,-0.041253915440505,0.0199821098662916));
#404=CARTESIAN_POINT('',(-0.0365101907432139,-0.0417728627703328,0.0210776621081395));
#405=CARTESIAN_POINT('',(-0.0358631919940266,-0.0412546321134583,0.0221528086450313));
#406=CARTESIAN_POINT('',(-0.03558362490471,-0.0400002406070228,0.0225914128366564));
#407=CARTESIAN_POINT('',(-0.0358622810671688,-0.0387478183120397,0.0221542473258336));
#408=CARTESIAN_POINT('',(-0.0365086082255619,-0.0382268468171388,0.0210804229761895));
#409=CARTESIAN_POINT('',(-0.0371162533774486,-0.0387447993343032,0.0199824734350792));
#410=CARTESIAN_POINT('',(-0.0373568224906949,-0.0400003213062979,0.0195201091943264));
#411=CARTESIAN_POINT('',(-0.037116429016528,-0.041253915440505,0.0199821098662916));
#412=CARTESIAN_POINT('',(-0.0372766620594593,-0.04,0.0196741700131127));
#413=CARTESIAN_POINT('',(-0.0413178304345867,-0.0412552012698786,0.0224082541869373));
#414=CARTESIAN_POINT('',(-0.0415604427954803,-0.0399996784539657,0.021947071118784));
#415=CARTESIAN_POINT('',(-0.041318008991266,-0.0387460849142586,0.0224078916491549));
#416=CARTESIAN_POINT('',(-0.0407097349079778,-0.0382271382952589,0.0235022730458429));
#417=CARTESIAN_POINT('',(-0.0400647725195194,-0.0387453632671773,0.0245785867436405));
#418=CARTESIAN_POINT('',(-0.039787243106981,-0.0399997617143314,0.0250183747062648));
#419=CARTESIAN_POINT('',(-0.0400638659808316,-0.0412521808289891,0.0245800319813005));
#420=CARTESIAN_POINT('',(-0.0407081504084956,-0.0417731532422219,0.0235050353349047));
#421=CARTESIAN_POINT('',(-0.0413178304345867,-0.0412552012698786,0.0224082541869373));
#422=CARTESIAN_POINT('',(-0.0415604427954803,-0.0399996784539657,0.021947071118784));
#423=CARTESIAN_POINT('',(-0.041318008991266,-0.0387460849142586,0.0224078916491549));
#424=CARTESIAN_POINT('',(-0.0414796017679623,-0.04,0.0221007383852047));
#425=CARTESIAN_POINT('',(0.0407049260286762,0.04,0.023501));
#426=CARTESIAN_POINT('',(0.0358634563139506,0.0387447993343032,0.0221523816006309));
#427=CARTESIAN_POINT('',(0.0355833216922802,0.0400003213062979,0.0225919026844444));
#428=CARTESIAN_POINT('',(0.0358632292736842,0.041253915440505,0.0221527154929293));
#429=CARTESIAN_POINT('',(0.0365088862096405,0.0417728627703328,0.0210799216265689));
#430=CARTESIAN_POINT('',(0.0371164910487859,0.0412546321134583,0.01998203100511));
#431=CARTESIAN_POINT('',(0.0373565498762814,0.0400002406070228,0.0195206167078873));
#432=CARTESIAN_POINT('',(0.0371172815194798,0.0387478183120397,0.0199805227789091));
#433=CARTESIAN_POINT('',(0.0365104859326822,0.0382268468171388,0.0210771706920553));
#434=CARTESIAN_POINT('',(0.0358634563139506,0.0387447993343032,0.0221523816006309));
#435=CARTESIAN_POINT('',(0.0355833216922802,0.0400003213062979,0.0225919026844444));
#436=CARTESIAN_POINT('',(0.0358632292736842,0.041253915440505,0.0221527154929293));
#437=CARTESIAN_POINT('',(0.0356766620594593,0.04,0.0224454513052229));
#438=CARTESIAN_POINT('',(0.0400650325976401,0.0412552012698786,0.0245781636921412));
#439=CARTESIAN_POINT('',(0.0397869425252708,0.0399996784539657,0.0250188636940239));
#440=CARTESIAN_POINT('',(0.0400648079090503,0.0387460849142586,0.0245784995956527));
#441=CARTESIAN_POINT('',(0.0407084329583671,0.0382271382952589,0.0235045280887175));
#442=CARTESIAN_POINT('',(0.0413180667688719,0.0387453632671773,0.0224078174269282));
#443=CARTESIAN_POINT('',(0.0415601696105139,0.0399997617143314,0.0219475759240604));
#444=CARTESIAN_POINT('',(0.041318865112056,0.0412521808289891,0.0224063097225651));
#445=CARTESIAN_POINT('',(0.0407100329211261,0.0417731532422219,0.0235017747273827));
#446=CARTESIAN_POINT('',(0.0400650325976401,0.0412552012698786,0.0245781636921412));
#447=CARTESIAN_POINT('',(0.0397869425252708,0.0399996784539657,0.0250188636940239));
#448=CARTESIAN_POINT('',(0.0400648079090503,0.0387460849142586,0.0245784995956527));
#449=CARTESIAN_POINT('',(0.0398796017679622,0.04,0.0248720196773149));
#450=CARTESIAN_POINT('',(-0.0407049260286762,0.04,0.023501));
#451=CARTESIAN_POINT('',(-0.0371162533774486,0.0387447993343032,0.0199824734350792));
#452=CARTESIAN_POINT('',(-0.0373568224906949,0.0400003213062979,0.0195201091943264));
#453=CARTESIAN_POINT('',(-0.037116429016528,0.041253915440505,0.0199821098662916));
#454=CARTESIAN_POINT('',(-0.0365101907432139,0.0417728627703328,0.0210776621081395));
#455=CARTESIAN_POINT('',(-0.0358631919940266,0.0412546321134583,0.0221528086450313));
#456=CARTESIAN_POINT('',(-0.03558362490471,0.0400002406070228,0.0225914128366564));
#457=CARTESIAN_POINT('',(-0.0358622810671688,0.0387478183120397,0.0221542473258336));
#458=CARTESIAN_POINT('',(-0.0365086082255619,0.0382268468171388,0.0210804229761895));
#459=CARTESIAN_POINT('',(-0.0371162533774486,0.0387447993343032,0.0199824734350792));
#460=CARTESIAN_POINT('',(-0.0373568224906949,0.0400003213062979,0.0195201091943264));
#461=CARTESIAN_POINT('',(-0.037116429016528,0.041253915440505,0.0199821098662916));
#462=CARTESIAN_POINT('',(-0.0372766620594593,0.04,0.0196741700131127));
#463=CARTESIAN_POINT('',(-0.0413178304345867,0.0412552012698786,0.0224082541869373));
#464=CARTESIAN_POINT('',(-0.0415604427954803,0.0399996784539657,0.021947071118784));
#465=CARTESIAN_POINT('',(-0.041318008991266,0.0387460849142586,0.0224078916491549));
#466=CARTESIAN_POINT('',(-0.0407097349079778,0.0382271382952589,0.0235022730458429));
#467=CARTESIAN_POINT('',(-0.0400647725195194,0.0387453632671773,0.0245785867436405));
#468=CARTESIAN_POINT('',(-0.039787243106981,0.0399997617143314,0.0250183747062648));
#469=CARTESIAN_POINT('',(-0.0400638659808316,0.0412521808289891,0.0245800319813005));
#470=CARTESIAN_POINT('',(-0.0407081504084956,0.0417731532422219,0.0235050353349047));
#471=CARTESIAN_POINT('',(-0.0413178304345867,0.0412552012698786,0.0224082541869373));
#472=CARTESIAN_POINT('',(-0.0415604427954803,0.0399996784539657,0.021947071118784));
#473=CARTESIAN_POINT('',(-0.041318008991266,0.0387460849142586,0.0224078916491549));
#474=CARTESIAN_POINT('',(-0.0414796017679623,0.04,0.0221007383852047));
#475=CARTESIAN_POINT('',(0.,-0.05,2.58094312920304E-18));
#476=CARTESIAN_POINT('',(-0.025,-0.05,-0.0339355639410929));
#477=CARTESIAN_POINT('',(-0.025,0.025,-0.0339355639410929));
#478=CARTESIAN_POINT('',(-0.025,-0.025,-0.0339355639410929));
#479=CARTESIAN_POINT('',(0.,0.025,2.58094312920304E-18));
#480=CARTESIAN_POINT('',(0.025,0.025,-0.0339355639410929));
#481=CARTESIAN_POINT('',(0.025,-0.05,-0.0339355639410929));
#482=CARTESIAN_POINT('',(0.025,-0.025,-0.0339355639410929));
#483=CARTESIAN_POINT('',(0.,-0.025,2.58094312920304E-18));
#484=CARTESIAN_POINT('',(0.00125279706349801,0.0387447993343032,-0.0421348550357101));
#485=CARTESIAN_POINT('',(0.00177350079841456,0.0400003213062979,-0.0421120118787708));
#486=CARTESIAN_POINT('',(0.00125319974284375,0.0412539154405051,-0.0421348253592209));
#487=CARTESIAN_POINT('',(1.30453357345858E-6,0.0417728627703328,-0.0421575837347085));
#488=CARTESIAN_POINT('',(-0.00125329905475938,0.0412546321134583,-0.0421348396501414));
#489=CARTESIAN_POINT('',(-0.00177292497157134,0.0400002406070228,-0.0421120295445437));
#490=CARTESIAN_POINT('',(-0.00125500045231099,0.0387478183120397,-0.0421347701047427));
#491=CARTESIAN_POINT('',(-1.87770712032645E-6,0.0382268468171388,-0.0421575936682448));
#492=CARTESIAN_POINT('',(0.00125279706349801,0.0387447993343032,-0.0421348550357101));
#493=CARTESIAN_POINT('',(0.00177350079841456,0.0400003213062979,-0.0421120118787708));
#494=CARTESIAN_POINT('',(0.00125319974284375,0.0412539154405051,-0.0421348253592209));
#495=CARTESIAN_POINT('',(0.0016,0.04,-0.0421196213183357));
#496=CARTESIAN_POINT('',(0.,-0.05,2.58094312920304E-18));
#497=CARTESIAN_POINT('',(0.,-0.05,-0.04215));
#498=CARTESIAN_POINT('',(0.,0.05,2.58094312920304E-18));
#499=CARTESIAN_POINT('',(0.,0.05,-0.04215));
#500=CARTESIAN_POINT('',(0.,-0.05,2.87791997799628E-18));
#501=CARTESIAN_POINT('',(0.,0.025,2.87791997799628E-18));
#502=CARTESIAN_POINT('',(0.025,0.025,-0.0397994974842648));
#503=CARTESIAN_POINT('',(-0.025,0.025,-0.0397994974842648));
#504=CARTESIAN_POINT('',(-0.025,-0.05,-0.0397994974842648));
#505=CARTESIAN_POINT('',(-0.025,-0.025,-0.0397994974842648));
#506=CARTESIAN_POINT('',(0.,-0.025,2.87791997799628E-18));
#507=CARTESIAN_POINT('',(0.025,-0.025,-0.0397994974842648));
#508=CARTESIAN_POINT('',(0.025,-0.05,-0.0397994974842648));
#509=CARTESIAN_POINT('',(0.00125279783694661,0.0412552012698787,-0.0469864178790786));
#510=CARTESIAN_POINT('',(0.00177350027020943,0.0399996784539657,-0.0469659348128079));
#511=CARTESIAN_POINT('',(0.00125320108221566,0.0387460849142586,-0.0469863912448076));
#512=CARTESIAN_POINT('',(1.30194961066014E-6,0.0382271382952589,-0.0470068011345604));
#513=CARTESIAN_POINT('',(-0.00125329424935245,0.0387453632671773,-0.0469864041705687));
#514=CARTESIAN_POINT('',(-0.00177292650353291,0.0399997617143314,-0.0469659506303252));
#515=CARTESIAN_POINT('',(-0.00125499913122435,0.0412521808289891,-0.0469863417038656));
#516=CARTESIAN_POINT('',(-1.88251263050814E-6,0.0417731532422219,-0.0470068100622874));
#517=CARTESIAN_POINT('',(0.00125279783694661,0.0412552012698787,-0.0469864178790786));
#518=CARTESIAN_POINT('',(0.00177350027020943,0.0399996784539657,-0.0469659348128079));
#519=CARTESIAN_POINT('',(0.00125320108221566,0.0387460849142586,-0.0469863912448076));
#520=CARTESIAN_POINT('',(0.0016,0.04,-0.0469727580625196));
#521=CARTESIAN_POINT('',(0.,-0.05,2.87791997799628E-18));
#522=CARTESIAN_POINT('',(0.,-0.05,-0.047));
#523=CARTESIAN_POINT('',(0.,0.05,2.87791997799628E-18));
#524=CARTESIAN_POINT('',(0.,0.05,-0.047));
#525=CARTESIAN_POINT('',(0.,-0.05,0.));
#526=CARTESIAN_POINT('',(0.,0.05,0.));
#527=CARTESIAN_POINT('',(-3.03576608295941E-18,0.04,-0.047002));
#528=CARTESIAN_POINT('',(0.025,0.,-0.047002));
#529=CARTESIAN_POINT('',(0.025,0.025,-0.047002));
#530=CARTESIAN_POINT('',(0.025,-0.025,-0.047002));
#531=CARTESIAN_POINT('',(-3.46944695195361E-18,-0.025,-0.047002));
#532=CARTESIAN_POINT('',(-0.025,-0.025,-0.047002));
#533=CARTESIAN_POINT('',(3.46944695195361E-18,0.025,-0.047002));
#534=CARTESIAN_POINT('',(-0.025,0.025,-0.047002));
#535=CARTESIAN_POINT('',(-0.025,0.,-0.047002));
#536=MECHANICAL_DESIGN_GEOMETRIC_PRESENTATION_REPRESENTATION('',(#261),
#537);
#537=(
GEOMETRIC_REPRESENTATION_CONTEXT(3)
GLOBAL_UNCERTAINTY_ASSIGNED_CONTEXT((#538))
GLOBAL_UNIT_ASSIGNED_CONTEXT((#541,#540,#539))
REPRESENTATION_CONTEXT('Hips connector','TOP_LEVEL_ASSEMBLY_PART')
);
#538=UNCERTAINTY_MEASURE_WITH_UNIT(LENGTH_MEASURE(2.E-5),#541,
'DISTANCE_ACCURACY_VALUE','Maximum Tolerance applied to model');
#539=(
NAMED_UNIT(*)
SI_UNIT($,.STERADIAN.)
SOLID_ANGLE_UNIT()
);
#540=(
NAMED_UNIT(*)
PLANE_ANGLE_UNIT()
SI_UNIT($,.RADIAN.)
);
#541=(
LENGTH_UNIT()
NAMED_UNIT(*)
SI_UNIT($,.METRE.)
);
#542=PRODUCT_DEFINITION_SHAPE('','',#543);
#543=PRODUCT_DEFINITION('','',#545,#544);
#544=PRODUCT_DEFINITION_CONTEXT('',#551,'design');
#545=PRODUCT_DEFINITION_FORMATION_WITH_SPECIFIED_SOURCE('','',#547,
 .NOT_KNOWN.);
#546=PRODUCT_RELATED_PRODUCT_CATEGORY('','',(#547));
#547=PRODUCT('Hips connector','Hips connector','Hips connector',(#549));
#548=PRODUCT_CATEGORY('','');
#549=PRODUCT_CONTEXT('',#551,'mechanical');
#550=APPLICATION_PROTOCOL_DEFINITION('international standard',
'ap242_managed_model_based_3d_engineering',2020,#551);
#551=APPLICATION_CONTEXT('managed model based 3d engineering');
ENDSEC;
END-ISO-10303-21;
